ComicJensFreePro.glyphspackage
{
glyphname = exclam;
layers = (
{
hints = (
{
horizontal = 1;
origin = (1,11);
stem = 2;
target = (1,5);
type = TTStem;
},
{
horizontal = 1;
origin = (1,5);
target = (0,17);
type = TTShift;
},
{
horizontal = 1;
origin = (0,8);
type = TTSnap;
}
);
layerId = master01;
shapes = (
{
closed = 1;
nodes = (
(210,214,o),
(229,235,o),
(235,270,cs),
(258,416,o),
(277,545,o),
(280,678,cs),
(281,720,o),
(254,737,o),
(231,737,cs),
(208,737,o),
(179,724,o),
(176,684,cs),
(165,551,o),
(153,427,o),
(138,282,cs),
(133,233,o),
(158,214,o),
(182,214,cs)
);
},
{
closed = 1;
nodes = (
(195,-24,o),
(240,14,o),
(240,60,cs),
(240,107,o),
(215,132,o),
(176,132,cs),
(130,132,o),
(75,84,o),
(75,39,cs),
(75,7,o),
(108,-24,o),
(148,-24,cs)
);
}
);
userData = {
com.typemytype.robofont.mark = (
0.619,
1,
0.6,
1
);
};
width = 389;
},
{
layerId = "8E39700C-2F6D-4A17-B4B3-161F49A69C4C";
shapes = (
{
closed = 1;
nodes = (
(188,716,o),
(216,737,o),
(231,737,q),
(248,737,o),
(276,712,o),
(280,687,q),
(278,626,o),
(264,506,o),
(248,386,o),
(234,266,o),
(232,205,q),
(228,179,o),
(198,155,o),
(181,155,q),
(162,155,o),
(132,184,o),
(132,213,q),
(134,274,o),
(148,394,o),
(164,514,o),
(178,634,o),
(180,695,q)
);
},
{
closed = 1;
nodes = (
(225,57,o),
(225,49,o),
(225,47,q),
(225,16,o),
(175,-27,o),
(144,-27,q),
(118,-27,o),
(80,7,o),
(80,28,q),
(80,43,o),
(96,72,o),
(122,96,o),
(154,110,o),
(169,110,q),
(190,110,o),
(220,85,o),
(224,62,q)
);
}
);
width = 389;
}
);
unicode = 33;
}
{
glyphname = quotedbl;
layers = (
{
hints = (
{
horizontal = 1;
origin = (1,14);
type = TTSnap;
},
{
horizontal = 1;
origin = (1,14);
stem = -1;
target = (1,5);
type = TTStem;
},
{
horizontal = 1;
origin = (1,5);
target = (0,8);
type = TTShift;
},
{
horizontal = 1;
origin = (1,14);
target = (0,17);
type = TTShift;
}
);
layerId = master01;
shapes = (
{
closed = 1;
nodes = (
(83,559,o),
(81,514,o),
(81,468,cs),
(81,448,o),
(81,429,o),
(83,409,cs),
(86,375,o),
(99,351,o),
(128,351,cs),
(156,351,o),
(174,372,o),
(177,401,cs),
(185,470,o),
(190,529,o),
(192,590,cs),
(193,627,o),
(169,651,o),
(140,651,cs),
(114,651,o),
(92,633,o),
(88,601,cs)
);
},
{
closed = 1;
nodes = (
(255,553,o),
(253,482,o),
(254,411,cs),
(254,377,o),
(272,353,o),
(301,353,cs),
(329,353,o),
(345,374,o),
(349,403,cs),
(359,469,o),
(367,543,o),
(367,622,cs),
(367,651,o),
(344,672,o),
(317,672,cs),
(289,672,o),
(265,654,o),
(262,624,cs)
);
}
);
width = 442;
},
{
layerId = "8E39700C-2F6D-4A17-B4B3-161F49A69C4C";
shapes = (
{
closed = 1;
nodes = (
(97,630,o),
(125,651,o),
(140,651,q),
(157,651,o),
(185,626,o),
(189,601,q),
(188,550,o),
(180,452,o),
(179,401,q),
(175,375,o),
(145,351,o),
(128,351,q),
(109,351,o),
(79,380,o),
(79,409,q),
(81,460,o),
(88,558,o),
(89,609,q)
);
},
{
closed = 1;
nodes = (
(274,651,o),
(302,672,o),
(317,672,q),
(334,672,o),
(362,647,o),
(366,622,q),
(365,567,o),
(353,458,o),
(352,403,q),
(348,377,o),
(318,353,o),
(301,353,q),
(282,353,o),
(252,382,o),
(252,411,q),
(254,466,o),
(265,575,o),
(266,630,q)
);
}
);
width = 442;
}
);
unicode = 34;
}
{
glyphname = numbersign;
layers = (
{
layerId = master01;
shapes = (
{
closed = 1;
nodes = (
(122,-15,o),
(142,-43,o),
(172,-43,cs),
(199,-43,o),
(218,-24,o),
(224,7,cs),
(265,213,o),
(295,421,o),
(312,627,cs),
(315,664,o),
(297,691,o),
(265,691,cs),
(238,691,o),
(215,670,o),
(212,638,cs),
(192,434,o),
(165,229,o),
(129,25,cs)
);
},
{
closed = 1;
nodes = (
(653,179,o),
(676,201,o),
(676,228,cs),
(676,255,o),
(653,274,o),
(622,274,cs),
(445,274,o),
(267,271,o),
(90,263,cs),
(59,262,o),
(39,245,o),
(39,217,cs),
(39,187,o),
(63,166,o),
(97,167,cs),
(271,174,o),
(446,179,o),
(622,179,cs)
);
},
{
closed = 1;
nodes = (
(86,530,o),
(61,512,o),
(61,479,cs),
(61,448,o),
(84,428,o),
(124,432,cs),
(279,449,o),
(434,448,o),
(590,452,cs),
(622,453,o),
(644,474,o),
(644,500,cs),
(644,528,o),
(621,547,o),
(590,548,cs),
(436,551,o),
(281,546,o),
(127,533,cs)
);
},
{
closed = 1;
nodes = (
(373,4,o),
(390,-25,o),
(422,-25,cs),
(451,-25,o),
(468,-5,o),
(476,35,cs),
(517,230,o),
(542,432,o),
(562,636,cs),
(566,673,o),
(547,700,o),
(513,700,cs),
(485,700,o),
(464,680,o),
(461,649,cs),
(443,448,o),
(417,247,o),
(381,46,cs)
);
}
);
userData = {
com.typemytype.robofont.mark = (
0.619,
1,
0.6,
1
);
};
width = 712;
},
{
layerId = "8E39700C-2F6D-4A17-B4B3-161F49A69C4C";
shapes = (
{
closed = 1;
nodes = (
(83,434,o),
(61,462,o),
(61,479,q),
(61,494,o),
(73,516,o),
(105,531,o),
(160,541,o),
(203,545,q,{
name = sv01;
}),
(205,571,o),
(208,623,o),
(210,649,q),
(218,670,o),
(246,691,o),
(261,691,q,{
name = av02;
}),
(278,691,o),
(306,666,o),
(310,641,q),
(309,596,o),
(304,549,q,{
name = dv01;
}),
(344,550,o),
(424,550,o),
(464,550,q),
(469,574,o),
(478,630,o),
(482,658,q),
(490,679,o),
(518,700,o),
(533,700,q,{
name = av01;
}),
(550,700,o),
(578,675,o),
(582,650,q),
(580,624,o),
(571,574,o),
(566,550,q,{
name = sv02;
}),
(590,550,l),
(617,547,o),
(644,517,o),
(644,500,q),
(644,483,o),
(617,452,o),
(590,450,q),
(542,450,l,{
name = sv03;
}),
(539,436,o),
(532,395,o),
(525,347,o),
(518,298,o),
(515,277,q,{
name = sv04;
}),
(541,277,o),
(595,278,o),
(622,278,q),
(649,275,o),
(676,245,o),
(676,228,q),
(676,211,o),
(649,180,o),
(622,178,q),
(593,178,o),
(534,177,o),
(505,176,q,{
name = sv05;
}),
(502,138,o),
(498,63,o),
(497,25,q),
(493,-1,o),
(463,-25,o),
(446,-25,q,{
name = ab02;
}),
(427,-25,o),
(397,4,o),
(397,33,q),
(397,68,o),
(401,139,o),
(404,174,q),
(247,169,l,{
name = dv04;
}),
(239,129,o),
(224,45,o),
(222,7,q),
(218,-19,o),
(188,-43,o),
(171,-43,q,{
name = ab01;
}),
(152,-43,o),
(122,-14,o),
(122,15,q),
(124,53,o),
(139,129,o),
(146,167,q,{
name = sv06;
}),
(83,167,l),
(60,172,o),
(39,201,o),
(39,217,q),
(39,233,o),
(60,261,o),
(83,267,q),
(163,267,l,{
name = sv07;
}),
(171,312,o),
(186,401,o),
(192,446,q,{
name = sv08;
}),
(184,446,l),
(164,445,o),
(126,431,o),
(106,429,q)
);
},
{
closed = 1;
nodes = (
(287,404,o),
(273,315,o),
(265,270,q,{
name = dv03;
}),
(413,274,l),
(424,364,o),
(440,450,q),
(403,450,o),
(330,450,o),
(293,449,q,{
name = dv02;
})
);
}
);
width = 712;
},
{
hints = (
{
horizontal = 1;
origin = (0,80);
type = TTSnap;
},
{
horizontal = 1;
origin = (0,67);
type = TTSnap;
},
{
horizontal = 1;
origin = (0,39);
type = TTSnap;
},
{
horizontal = 1;
origin = (0,39);
target = (0,26);
type = TTShift;
},
{
horizontal = 1;
origin = (0,67);
other1 = (0,73);
target = (0,39);
type = TTInterpolate;
},
{
horizontal = 1;
origin = (0,67);
other1 = (0,33);
target = (0,39);
type = TTInterpolate;
},
{
horizontal = 1;
options = 4;
origin = (0,73);
target = (1,1);
type = TTStem;
},
{
horizontal = 1;
options = 4;
origin = (0,33);
target = (1,4);
type = TTStem;
},
{
horizontal = 1;
options = 4;
origin = (0,33);
target = (0,43);
type = TTShift;
},
{
horizontal = 1;
options = 4;
origin = (1,4);
target = (0,51);
type = TTShift;
},
{
horizontal = 1;
options = 4;
origin = (1,1);
target = (0,53);
type = TTShift;
},
{
horizontal = 1;
options = 4;
origin = (0,73);
target = (0,63);
type = TTShift;
},
{
horizontal = 1;
options = 4;
origin = (0,73);
target = (0,3);
type = TTShift;
},
{
horizontal = 1;
options = 4;
origin = (1,1);
target = (0,11);
type = TTShift;
},
{
horizontal = 1;
options = 4;
origin = (1,4);
target = (0,14);
type = TTShift;
},
{
horizontal = 1;
options = 4;
origin = (0,33);
target = (0,22);
type = TTShift;
}
);
layerId = "92936CB7-D294-4857-B41D-63B9425360A1";
shapes = (
{
closed = 1;
nodes = (
(149,-43,o),
(124,-5,o),
(129,25,q),
(153,169,l,{
name = sv02;
}),
(97,167,l),
(71,166,o),
(39,194,o),
(39,217,q),
(39,238,o),
(67,262,o),
(90,263,q),
(167,266,l,{
name = sv03;
}),
(173,310,o),
(185,395,o),
(190,438,q,{
name = sv04;
}),
(124,432,l),
(94,429,o),
(61,456,o),
(61,479,q),
(61,504,o),
(96,531,o),
(127,533,q),
(202,539,l,{
name = sv05;
}),
(212,638,l),
(214,662,o),
(245,691,o),
(265,691,q,{
name = av01;
}),
(289,691,o),
(314,655,o),
(312,627,q),
(304,544,l),
(341,546,o),
(414,548,o),
(451,548,q,{
name = dv01;
}),
(454,574,o),
(459,623,o),
(461,649,q),
(463,672,o),
(492,700,o),
(513,700,q,{
name = sv06;
}),
(539,700,o),
(565,664,o),
(562,636,q),
(553,548,l,{
name = sv07;
}),
(590,548,l),
(613,547,o),
(644,521,o),
(644,500,q),
(644,480,o),
(614,453,o),
(590,452,q),
(542,450,l,{
name = sv08;
}),
(531,359,o),
(518,274,q,{
name = sv09;
}),
(622,274,l),
(645,274,o),
(676,248,o),
(676,228,q),
(676,208,o),
(645,179,o),
(622,179,q),
(562,179,l),
(533,179,o),
(503,178,q,{
name = sv10;
}),
(491,104,o),
(476,35,q),
(464,-25,o),
(422,-25,q,{
name = ab01;
}),
(398,-25,o),
(375,14,o),
(381,46,q),
(387,78,o),
(398,144,o),
(403,177,q,{
name = dv04;
}),
(254,173,l),
(247,131,o),
(232,49,o),
(224,7,q),
(219,-16,o),
(192,-43,o),
(172,-43,q,{
name = sv01;
})
);
},
{
closed = 1;
nodes = (
(343,272,o),
(417,272,q,{
name = dv03;
}),
(424,317,o),
(435,404,o),
(440,449,q,{
name = dv02;
}),
(403,448,o),
(330,446,o),
(293,444,q),
(288,400,o),
(277,314,o),
(270,269,q)
);
}
);
userData = {
com.typemytype.robofont.mark = (
0.656,
1,
0.6,
1
);
};
width = 712;
}
);
unicode = 35;
}
{
glyphname = dollar;
layers = (
{
background = {
shapes = (
{
closed = 1;
nodes = (
(177,701,o),
(101,638,o),
(86,549,cs),
(65,428,o),
(167,368,o),
(225,345,cs),
(320,307,o),
(348,259,o),
(331,180,cs),
(318,118,o),
(285,74,o),
(216,74,cs),
(181,74,o),
(151,87,o),
(122,111,cs),
(88,139,o),
(50,119,o),
(50,84,cs),
(50,73,o),
(53,61,o),
(62,49,cs),
(86,15,o),
(140,-22,o),
(214,-22,cs),
(331,-22,o),
(410,66,o),
(429,159,cs),
(460,315,o),
(387,381,o),
(284,427,cs),
(208,461,o),
(180,488,o),
(184,531,cs),
(189,583,o),
(234,606,o),
(278,606,cs),
(331,606,o),
(359,586,o),
(379,580,cs),
(428,565,o),
(454,627,o),
(410,661,cs),
(383,682,o),
(339,701,o),
(283,701,cs)
);
},
{
closed = 1;
nodes = (
(139,-115,o),
(156,-141,o),
(187,-141,cs),
(214,-141,o),
(229,-120,o),
(234,-89,cs),
(282,193,o),
(324,475,o),
(360,757,cs),
(364,791,o),
(344,817,o),
(312,817,cs),
(285,817,o),
(264,797,o),
(260,767,cs),
(226,483,o),
(188,199,o),
(144,-83,cs)
);
}
);
};
hints = (
{
horizontal = 1;
options = 4;
origin = (0,26,1,8);
target = (0,14,1,17);
origin = (0,6);
target = (0,41);
type = TTStem;
},
{
horizontal = 1;
origin = (0,26,1,8);
target = (1,2);
origin = (0,6);
target = (0,2);
type = TTStem;
},
{
horizontal = 1;
options = 4;
origin = (0,2,1,17);
target = (0,35,1,17);
origin = (0,32);
target = (1,2);
type = TTStem;
},
{
horizontal = 1;
origin = (0,2,1,17);
target = (1,11);
origin = (0,32);
target = (0,28);
type = TTStem;
},
{
horizontal = 1;
options = 4;
origin = (0,14,1,17);
other1 = (0,32,1,17);
target = (0,2,1,17);
origin = (0,41);
other1 = (1,5);
target = (0,32);
type = TTInterpolate;
},
{
horizontal = 1;
options = 4;
origin = (0,35,1,17);
target = (0,38,1,8);
origin = (1,2);
target = (0,15);
type = TTShift;
},
{
horizontal = 1;
options = 4;
origin = (0,2,1,17);
target = (0,44,1,8);
origin = (0,32);
target = (0,24);
type = TTShift;
},
{
horizontal = 1;
options = 4;
origin = (0,26,1,8);
target = (0,23,1,17);
origin = (0,6);
target = (0,53);
type = TTShift;
},
{
horizontal = 1;
options = 4;
origin = (0,14,1,17);
target = (0,11,1,8);
origin = (0,41);
target = (2,8);
type = TTShift;
},
{
horizontal = 1;
options = 4;
origin = (0,26,1,8);
other1 = (0,5,1,17);
target = (0,35,1,17);
origin = (0,6);
other1 = (0,38);
target = (1,2);
type = TTInterpolate;
},
{
horizontal = 1;
options = 4;
origin = (0,26,1,8);
other1 = (0,8,1,8);
target = (0,35,1,17);
origin = (0,6);
other1 = (2,2);
target = (1,2);
type = TTInterpolate;
},
{
horizontal = 1;
options = 4;
origin = (0,14,1,17);
other1 = (0,29,1,8);
target = (0,2,1,17);
origin = (0,41);
other1 = (0,12);
target = (0,32);
type = TTInterpolate;
}
);
layerId = master01;
shapes = (
{
closed = 1;
nodes = (
(177,701,o),
(101,638,o),
(86,549,cs),
(65,428,o),
(167,368,o),
(225,345,cs),
(320,307,o),
(348,259,o),
(331,180,cs),
(318,118,o),
(285,74,o),
(216,74,cs),
(181,74,o),
(151,87,o),
(122,111,cs),
(88,139,o),
(50,119,o),
(50,84,cs),
(50,73,o),
(53,61,o),
(62,49,cs),
(86,15,o),
(140,-22,o),
(214,-22,cs),
(331,-22,o),
(410,66,o),
(429,159,cs),
(460,315,o),
(387,381,o),
(284,427,cs),
(208,461,o),
(180,488,o),
(184,531,cs),
(189,583,o),
(234,606,o),
(278,606,cs),
(331,606,o),
(359,586,o),
(379,580,cs),
(428,565,o),
(454,627,o),
(410,661,cs),
(383,682,o),
(339,701,o),
(283,701,cs)
);
},
{
closed = 1;
nodes = (
(139,-115,o),
(156,-141,o),
(187,-141,cs),
(214,-141,o),
(229,-120,o),
(234,-89,cs),
(282,193,o),
(324,475,o),
(360,757,cs),
(246,-20,l),
(345,-6,o),
(412,75,o),
(429,159,cs),
(457,300,o),
(400,367,o),
(313,413,c),
(322,474,o),
(331,535,o),
(339,596,c),
(356,590,o),
(369,583,o),
(379,580,cs),
(428,565,o),
(454,627,o),
(410,661,cs),
(395,672,o),
(375,683,o),
(351,691,c),
(360,757,ls),
(364,791,o),
(344,817,o),
(312,817,cs),
(285,817,o),
(264,797,o),
(260,767,cs),
(226,483,o),
(188,199,o),
(252,699,l),
(162,688,o),
(99,629,o),
(86,549,cs),
(67,440,o),
(149,380,o),
(207,353,c),
(195,262,o),
(182,172,o),
(169,83,c),
(153,89,o),
(137,98,o),
(122,111,cs),
(88,139,o),
(50,119,o),
(50,84,cs),
(50,73,o),
(53,61,o),
(62,49,cs),
(79,25,o),
(111,-1,o),
(155,-14,c),
(151,-37,o),
(148,-60,o),
(144,-83,cs)
);
},
{
closed = 1;
nodes = (
(188,568,o),
(211,590,o),
(239,600,c),
(234,553,o),
(228,507,o),
(222,461,c),
(192,482,o),
(181,503,o),
(184,531,cs)
);
},
{
closed = 1;
nodes = (
(274,156,o),
(286,230,o),
(297,304,c),
(333,273,o),
(342,233,o),
(331,180,cs),
(321,134,o),
(301,98,o),
(262,82,c)
);
}
);
userData = {
com.typemytype.robofont.mark = (
0.619,
1,
0.6,
1
);
};
width = 493;
},
{
layerId = "8E39700C-2F6D-4A17-B4B3-161F49A69C4C";
shapes = (
{
closed = 1;
nodes = (
(258,856,o),
(286,877,o),
(301,877,q),
(318,877,o),
(346,852,o),
(350,827,q),
(347,795,o),
(331,733,o),
(323,701,q),
(350,699,o),
(387,687,o),
(407,671,q),
(420,661,o),
(429,636,o),
(429,625,q),
(429,607,o),
(402,580,o),
(379,580,q),
(368,580,o),
(351,587,o),
(335,596,o),
(316,604,o),
(304,604,q),
(284,426,l),
(356,405,o),
(443,307,o),
(443,235,q),
(443,217,o),
(433,166,o),
(414,112,o),
(387,60,o),
(371,41,q),
(344,9,o),
(269,-24,o),
(228,-26,q),
(227,-42,o),
(225,-74,o),
(225,-90,q),
(221,-116,o),
(191,-140,o),
(174,-140,q),
(155,-140,o),
(125,-111,o),
(125,-82,q),
(125,-63,o),
(128,-27,o),
(130,-8,q),
(117,-3,o),
(89,15,o),
(65,38,o),
(50,66,o),
(50,81,q),
(50,103,o),
(77,130,o),
(95,130,q),
(118,130,o),
(138,111,q),
(140,109,o),
(141,105,o),
(143,103,q),
(150,151,o),
(164,244,o),
(170,292,q),
(178,360,l),
(135,382,o),
(84,461,o),
(84,509,q),
(84,540,o),
(105,594,o),
(141,637,o),
(188,671,o),
(215,682,q),
(222,720,o),
(247,796,o),
(250,835,q)
);
},
{
closed = 1;
nodes = (
(333,286,o),
(297,317,o),
(274,326,q),
(269,284,l),
(263,232,o),
(247,130,o),
(240,78,q),
(251,81,o),
(278,90,o),
(286,97,q),
(296,106,o),
(317,141,o),
(332,182,o),
(342,224,o),
(342,241,q),
(342,246,o),
(341,255,o),
(340,260,q)
);
},
{
closed = 1;
nodes = (
(186,523,o),
(186,505,q),
(186,494,o),
(190,483,q),
(197,542,l)
);
}
);
width = 493;
}
);
unicode = 36;
}
{
glyphname = percent;
layers = (
{
background = {
shapes = (
{
closed = 1;
nodes = (
(237,378,o),
(302,447,o),
(325,523,cs),
(345,588,o),
(320,725,o),
(193,725,cs),
(89,725,o),
(28,636,o),
(20,552,cs),
(11,457,o),
(57,378,o),
(149,378,cs)
);
},
{
closed = 1;
nodes = (
(355,486,o),
(188,241,o),
(95,57,cs),
(73,14,o),
(96,-19,o),
(125,-19,cs),
(141,-19,o),
(158,-9,o),
(172,14,cs),
(290,217,o),
(425,411,o),
(554,597,cs),
(584,641,o),
(556,681,o),
(519,681,cs),
(503,681,o),
(485,673,o),
(471,653,cs)
);
},
{
closed = 1;
nodes = (
(559,-9,o),
(623,61,o),
(635,142,cs),
(652,259,o),
(598,325,o),
(518,325,cs),
(432,325,o),
(353,241,o),
(345,143,cs),
(337,44,o),
(397,-9,o),
(471,-9,cs)
);
},
{
closed = 1;
nodes = (
(122,468,o),
(116,508,o),
(121,548,cs),
(127,595,o),
(150,635,o),
(183,635,cs),
(221,635,o),
(236,591,o),
(229,548,cs),
(220,496,o),
(187,468,o),
(155,468,cs)
);
},
{
closed = 1;
nodes = (
(532,111,o),
(503,81,o),
(475,81,cs),
(449,81,o),
(439,109,o),
(444,148,cs),
(450,191,o),
(478,233,o),
(509,233,cs),
(533,233,o),
(546,207,o),
(539,160,cs)
);
}
);
};
hints = (
{
horizontal = 1;
options = 4;
origin = (2,11);
target = (4,2);
type = TTStem;
},
{
horizontal = 1;
options = 4;
origin = (0,5);
target = (3,5);
type = TTStem;
},
{
horizontal = 1;
origin = (0,11);
type = TTSnap;
},
{
horizontal = 1;
options = 4;
origin = (0,11);
target = (3,11);
type = TTStem;
},
{
horizontal = 1;
origin = (2,5);
type = TTSnap;
},
{
horizontal = 1;
options = 4;
origin = (2,5);
target = (4,8);
type = TTStem;
},
{
horizontal = 1;
origin = (1,5);
type = TTSnap;
},
{
horizontal = 1;
origin = (1,14);
type = TTSnap;
}
);
layerId = master01;
shapes = (
{
closed = 1;
nodes = (
(237,378,o),
(302,447,o),
(325,523,cs),
(345,588,o),
(320,725,o),
(193,725,cs),
(85,725,o),
(19,629,o),
(19,529,cs),
(19,445,o),
(65,378,o),
(149,378,cs)
);
},
{
closed = 1;
nodes = (
(355,486,o),
(188,241,o),
(95,57,cs),
(73,14,o),
(96,-19,o),
(125,-19,cs),
(141,-19,o),
(158,-9,o),
(172,14,cs),
(290,217,o),
(425,411,o),
(554,597,cs),
(584,641,o),
(556,681,o),
(519,681,cs),
(503,681,o),
(485,673,o),
(471,653,cs)
);
},
{
closed = 1;
nodes = (
(559,-9,o),
(623,61,o),
(635,142,cs),
(652,259,o),
(598,325,o),
(518,325,cs),
(432,325,o),
(353,241,o),
(345,143,cs),
(337,44,o),
(397,-9,o),
(471,-9,cs)
);
},
{
closed = 1;
nodes = (
(122,468,o),
(116,508,o),
(121,548,cs),
(127,595,o),
(150,635,o),
(183,635,cs),
(221,635,o),
(236,591,o),
(229,548,cs),
(220,496,o),
(187,468,o),
(155,468,cs)
);
},
{
closed = 1;
nodes = (
(532,111,o),
(503,81,o),
(475,81,cs),
(449,81,o),
(439,109,o),
(444,148,cs),
(450,191,o),
(478,233,o),
(509,233,cs),
(533,233,o),
(546,207,o),
(539,160,cs)
);
}
);
width = 671;
},
{
layerId = "8E39700C-2F6D-4A17-B4B3-161F49A69C4C";
shapes = (
{
closed = 1;
nodes = (
(290,705,o),
(308,678,o),
(308,664,q),
(331,644,o),
(351,597,o),
(351,573,q),
(351,537,o),
(314,468,o),
(257,412,o),
(189,378,o),
(158,378,q),
(127,378,o),
(83,408,o),
(54,455,o),
(40,509,o),
(40,533,q),
(40,574,o),
(53,607,q),
(55,612,o),
(73,642,o),
(94,674,o),
(114,699,o),
(118,699,q),
(131,716,o),
(163,728,o),
(184,728,q),
(206,728,o),
(251,718,o),
(270,714,q)
);
},
{
closed = 1;
nodes = (
(516,672,o),
(540,683,o),
(552,683,q),
(570,683,o),
(598,658,o),
(598,636,q),
(598,628,o),
(594,611,o),
(589,603,q),
(541,529,o),
(441,383,o),
(343,235,o),
(250,85,o),
(208,7,q),
(198,-11,o),
(172,-27,o),
(158,-27,q),
(140,-27,o),
(112,-1,o),
(112,22,q),
(112,28,o),
(115,42,o),
(117,47,q),
(159,127,o),
(255,282,o),
(355,433,o),
(457,583,o),
(506,658,q)
);
},
{
closed = 1;
nodes = (
(549,342,o),
(592,311,o),
(592,282,q),
(592,277,o),
(590,269,q),
(602,241,o),
(619,193,o),
(619,167,q),
(619,137,o),
(594,78,o),
(551,32,o),
(490,4,o),
(454,4,q),
(403,4,o),
(347,65,o),
(347,134,q),
(347,160,o),
(354,182,q),
(361,206,o),
(394,262,o),
(439,310,o),
(493,342,o),
(521,342,q)
);
},
{
closed = 1;
nodes = (
(180,617,o),
(163,599,o),
(149,576,o),
(139,544,o),
(139,521,q),
(139,504,o),
(150,481,o),
(163,481,q),
(174,481,o),
(204,500,o),
(232,527,o),
(251,556,o),
(251,566,q),
(251,573,o),
(242,589,o),
(237,597,q),
(234,602,o),
(231,616,o),
(230,621,q),
(220,623,o),
(202,625,o),
(188,626,q)
);
},
{
closed = 1;
nodes = (
(519,155,o),
(519,165,q),
(519,181,o),
(507,211,o),
(500,227,q),
(489,216,l),
(456,183,o),
(448,143,q),
(447,138,o),
(447,125,q),
(447,117,o),
(451,101,o),
(459,101,q),
(466,101,o),
(485,112,o),
(502,127,o),
(514,142,o),
(516,146,q)
);
}
);
width = 671;
}
);
unicode = 37;
}
{
glyphname = ampersand;
layers = (
{
layerId = master01;
shapes = (
{
closed = 1;
nodes = (
(181,373,l),
(108,311,o),
(38,241,o),
(38,138,cs),
(38,33,o),
(103,-7,o),
(208,-7,cs),
(336,-7,o),
(475,70,o),
(610,187,cs),
(673,241,o),
(633,318,o),
(567,267,cs),
(451,177,o),
(323,87,o),
(210,87,cs),
(167,87,o),
(143,107,o),
(143,146,cs),
(143,206,o),
(182,255,o),
(229,302,c)
);
},
{
closed = 1;
nodes = (
(279,330,l),
(356,392,o),
(433,458,o),
(433,541,cs),
(433,611,o),
(385,653,o),
(319,653,cs),
(231,653,o),
(147,580,o),
(143,471,cs),
(140,394,o),
(179,305,o),
(266,205,cs),
(333,128,o),
(430,46,o),
(564,-37,cs),
(623,-74,o),
(680,-3,o),
(620,38,cs),
(506,116,o),
(407,193,o),
(345,264,cs),
(277,342,o),
(239,403,o),
(242,476,cs),
(244,523,o),
(276,559,o),
(308,559,cs),
(320,559,o),
(327,552,o),
(327,535,cs),
(327,490,o),
(287,449,o),
(239,408,c)
);
}
);
userData = {
com.typemytype.robofont.mark = (
0.619,
1,
0.6,
1
);
};
width = 675;
},
{
layerId = "8E39700C-2F6D-4A17-B4B3-161F49A69C4C";
shapes = (
{
closed = 1;
nodes = (
(643,6,o),
(643,-8,q),
(643,-28,o),
(615,-55,o),
(595,-55,q,{
name = av02;
}),
(587,-55,o),
(570,-50,o),
(561,-44,q),
(532,-15,o),
(466,34,o),
(435,60,q,{
name = iv01;
}),
(386,32,o),
(268,-7,o),
(208,-7,q,{
name = ab01;
}),
(129,-7,o),
(41,65,o),
(41,148,q),
(41,178,o),
(62,235,o),
(96,287,o),
(141,336,o),
(165,359,q),
(149,393,o),
(143,450,o),
(143,466,q),
(143,499,o),
(169,566,o),
(215,620,o),
(280,653,o),
(319,653,q,{
name = av01;
}),
(338,653,o),
(376,640,o),
(407,615,o),
(426,576,o),
(426,550,q),
(426,524,o),
(404,472,o),
(368,421,o),
(322,371,o),
(298,349,q),
(313,329,o),
(344,291,o),
(362,274,q),
(384,253,o),
(431,218,o),
(448,190,q,{
name = iv02;
}),
(481,214,o),
(546,261,o),
(584,279,q),
(589,281,o),
(598,281,o),
(603,281,q),
(626,281,o),
(653,255,o),
(653,236,q),
(653,225,o),
(642,202,o),
(631,191,q),
(605,180,o),
(562,144,o),
(539,128,q),
(526,119,l),
(554,96,o),
(608,49,o),
(634,23,q)
);
},
{
closed = 1;
nodes = (
(245,92,o),
(327,116,o),
(366,136,q),
(354,150,l),
(326,177,o),
(270,227,o),
(244,257,q),
(224,280,l,{
name = iv03;
}),
(206,263,o),
(194,250,q),
(187,242,o),
(168,217,o),
(150,189,o),
(138,158,o),
(138,143,q),
(138,116,o),
(176,92,o),
(203,92,q,{
name = sv02;
})
);
},
{
closed = 1;
nodes = (
(255,512,o),
(243,473,o),
(243,453,q),
(243,448,o),
(243,437,o),
(245,432,q,{
name = iv04;
}),
(258,445,o),
(286,474,o),
(308,505,o),
(323,536,o),
(323,550,q),
(318,553,o,{
name = sv01;
}),
(316,553,q),
(302,552,o),
(275,536,o),
(266,525,q)
);
}
);
width = 675;
},
{
background = {
shapes = (
{
closed = 1;
nodes = (
(583,63,o),
(548,88,o),
(516,113,c,{
name = iv06;
}),
(547,135,o),
(579,160,o),
(610,187,cs),
(673,241,o),
(633,319,o),
(567,267,cs),
(525,234,o),
(482,202,o),
(438,174,c,{
name = iv05;
}),
(384,221,o),
(325,280,o),
(288,337,c),
(362,397,o),
(433,461,o),
(433,541,cs),
(433,611,o),
(385,653,o),
(319,653,cs),
(231,653,o),
(147,580,o),
(143,471,cs),
(142,436,o),
(149,399,o),
(165,359,c),
(98,301,o),
(38,234,o),
(38,138,cs),
(38,33,o),
(103,-7,o),
(208,-7,cs),
(278,-7,o),
(352,16,o),
(427,57,c,{
name = iv07;
}),
(468,26,o),
(513,-5,o),
(564,-37,cs),
(576,-44,o),
(587,-47,o),
(598,-47,cs),
(641,-47,o),
(668,5,o),
(620,38,cs)
);
},
{
closed = 1;
nodes = (
(244,523,o),
(276,559,o),
(308,559,cs),
(320,559,o),
(327,552,o),
(327,535,cs),
(327,493,o),
(292,455,o),
(249,417,c),
(244,436,o),
(241,455,o),
(242,476,cs)
);
},
{
closed = 1;
nodes = (
(167,87,o),
(143,107,o),
(143,146,cs),
(143,197,o),
(171,240,o),
(208,280,c),
(241,230,o),
(294,170,o),
(347,123,c,{
name = iv08;
}),
(300,101,o),
(254,87,o),
(210,87,cs)
);
}
);
};
hints = (
{
horizontal = 1;
origin = (0,16);
type = TTSnap;
},
{
horizontal = 1;
options = 4;
origin = (0,16);
target = (2,4);
type = TTStem;
},
{
horizontal = 1;
options = 4;
origin = (0,5);
target = (1,10);
type = TTStem;
},
{
horizontal = 1;
origin = (0,39);
type = TTSnap;
},
{
horizontal = 1;
options = 4;
origin = (2,4);
other1 = (1,4);
target = (0,5);
type = TTInterpolate;
},
{
horizontal = 1;
options = 4;
origin = (0,16);
other1 = (2,8);
target = (1,10);
type = TTInterpolate;
},
{
horizontal = 1;
origin = (0,16);
other1 = (0,27);
target = (0,5);
type = TTInterpolate;
},
{
horizontal = 1;
options = 4;
origin = (1,4);
other1 = (0,22);
target = (2,8);
type = TTInterpolate;
},
{
horizontal = 1;
options = 4;
origin = (1,4);
other1 = (0,11);
target = (2,8);
type = TTInterpolate;
},
{
horizontal = 1;
options = 4;
origin = (1,10);
other1 = (1,1);
target = (0,27);
type = TTInterpolate;
},
{
horizontal = 1;
options = 4;
origin = (1,10);
other1 = (0,24);
target = (0,27);
type = TTInterpolate;
}
);
layerId = "92936CB7-D294-4857-B41D-63B9425360A1";
shapes = (
{
closed = 1;
nodes = (
(581,-47,o),
(564,-37,qs),
(489,10,o),
(427,57,q,{
name = iv07;
}),
(310,-7,o),
(208,-7,qs),
(123,-7,o),
(38,65,o),
(38,138,qs),
(38,196,o),
(97,300,o),
(165,359,q),
(141,418,o),
(143,471,qs),
(146,549,o),
(249,653,o),
(319,653,qs),
(370,653,o),
(433,592,o),
(433,541,qs),
(433,496,o),
(371,404,o),
(288,337,q),
(336,262,o),
(438,174,q,{
name = iv05;
}),
(494,210,o),
(567,267,qs),
(590,285,o),
(629,283,o),
(646,249,o),
(631,205,o),
(610,187,qs),
(565,148,o),
(516,113,q,{
name = iv06;
}),
(561,78,o),
(620,38,qs),
(642,23,o),
(648,-17,o),
(620,-47,o),
(598,-47,qs)
);
},
{
closed = 1;
nodes = (
(270,87,o),
(347,123,q,{
name = iv08;
}),
(307,158,o),
(233,242,o),
(208,280,q),
(174,244,o),
(143,179,o),
(143,146,qs),
(143,117,o),
(177,87,o),
(210,87,qs)
);
},
{
closed = 1;
nodes = (
(291,454,o),
(327,509,o),
(327,535,qs),
(327,559,o),
(307,559,qs),
(283,559,o),
(242,507,o),
(242,442,o),
(249,417,q)
);
}
);
userData = {
com.typemytype.robofont.mark = (
0.656,
1,
0.6,
1
);
};
width = 675;
},
{
associatedMasterId = master01;
color = 4;
layerId = "AB3F94AE-E21C-401E-AC00-DADF30FEEE3F";
name = "May 16 19, 00:01";
shapes = (
{
closed = 1;
nodes = (
(336,-7,o),
(475,70,o),
(610,187,cs),
(673,241,o),
(633,318,o),
(567,267,cs),
(451,177,o),
(323,87,o),
(210,87,cs),
(167,87,o),
(143,107,o),
(143,146,cs),
(143,213,o),
(198,267,o),
(259,319,cs),
(337,387,o),
(433,455,o),
(433,544,cs),
(433,611,o),
(385,653,o),
(319,653,cs),
(231,653,o),
(147,580,o),
(143,471,cs),
(140,394,o),
(179,305,o),
(266,205,cs),
(333,128,o),
(430,46,o),
(564,-37,cs),
(623,-74,o),
(680,-3,o),
(620,38,cs),
(506,116,o),
(407,193,o),
(345,264,cs),
(277,342,o),
(239,403,o),
(242,476,cs),
(244,523,o),
(276,559,o),
(308,559,cs),
(321,559,o),
(327,552,o),
(327,537,cs),
(327,487,o),
(274,449,o),
(213,398,cs),
(133,331,o),
(40,252,o),
(38,138,cs),
(36,36,o),
(103,-7,o),
(208,-7,cs)
);
}
);
userData = {
com.typemytype.robofont.mark = (
0.619,
1,
0.6,
1
);
};
width = 675;
}
);
unicode = 38;
}
{
glyphname = quotesingle;
layers = (
{
layerId = master01;
shapes = (
{
closed = 1;
nodes = (
(123,570,o),
(123,504,o),
(127,434,cs),
(129,395,o),
(150,376,o),
(174,376,cs),
(195,376,o),
(218,391,o),
(221,426,cs),
(228,499,o),
(234,566,o),
(234,637,cs),
(234,672,o),
(210,693,o),
(179,693,cs),
(152,693,o),
(129,675,o),
(127,637,cs)
);
}
);
userData = {
com.typemytype.robofont.mark = (
0.619,
1,
0.6,
1
);
};
width = 357;
},
{
layerId = "8E39700C-2F6D-4A17-B4B3-161F49A69C4C";
shapes = (
{
closed = 1;
nodes = (
(130,664,o),
(160,693,o),
(179,693,q),
(196,693,o),
(226,669,o),
(230,643,q),
(230,589,o),
(225,480,o),
(225,426,q),
(221,400,o),
(191,376,o),
(174,376,q),
(155,376,o),
(125,405,o),
(125,434,q),
(125,485,o),
(130,584,o),
(130,635,q)
);
}
);
width = 357;
},
{
hints = (
{
horizontal = 1;
origin = (0,7);
type = TTSnap;
},
{
horizontal = 1;
origin = (0,7);
stem = -1;
target = (0,16);
type = TTStem;
}
);
layerId = "92936CB7-D294-4857-B41D-63B9425360A1";
shapes = (
{
closed = 1;
nodes = (
(156,376,o),
(129,405,o),
(127,434,q),
(121,538,o),
(127,637,q),
(129,666,o),
(159,693,o),
(179,693,q),
(202,693,o),
(234,663,o),
(234,637,q),
(234,583,o),
(226,481,o),
(221,426,q),
(219,400,o),
(190,376,o),
(174,376,q)
);
}
);
userData = {
com.typemytype.robofont.mark = (
0.656,
1,
0.6,
1
);
};
width = 357;
}
);
unicode = 39;
}
{
glyphname = parenleft;
layers = (
{
hints = (
{
horizontal = 1;
origin = (0,11);
type = TTSnap;
},
{
horizontal = 1;
origin = (0,23);
type = TTSnap;
}
);
layerId = master01;
shapes = (
{
closed = 1;
nodes = (
(415,-112,o),
(421,-54,o),
(379,-39,cs),
(265,2,o),
(184,85,o),
(187,278,cs),
(190,458,o),
(250,537,o),
(380,631,cs),
(413,655,o),
(406,705,o),
(364,705,cs),
(352,705,o),
(338,702,o),
(321,693,cs),
(147,604,o),
(80,439,o),
(80,267,cs),
(80,71,o),
(176,-56,o),
(313,-101,cs),
(330,-107,o),
(349,-112,o),
(364,-112,cs)
);
}
);
width = 461;
},
{
layerId = "8E39700C-2F6D-4A17-B4B3-161F49A69C4C";
shapes = (
{
closed = 1;
nodes = (
(382,707,o),
(409,677,o),
(409,659,q),
(409,645,o),
(394,628,o),
(372,615,o),
(347,601,o),
(336,592,q),
(306,565,o),
(250,512,o),
(207,444,o),
(182,355,o),
(182,292,q),
(182,254,o),
(192,177,o),
(213,107,o),
(245,49,o),
(268,30,q),
(287,14,o),
(340,-2,o),
(388,-17,o),
(422,-40,o),
(422,-63,q),
(422,-81,o),
(394,-110,o),
(368,-112,q),
(324,-107,o),
(235,-78,o),
(200,-45,q),
(171,-17,o),
(126,61,o),
(96,152,o),
(80,249,o),
(80,297,q),
(80,342,o),
(94,426,o),
(110,461,q),
(118,479,o),
(147,529,o),
(187,584,o),
(233,638,o),
(283,681,o),
(333,708,o),
(356,709,q)
);
}
);
width = 461;
}
);
unicode = 40;
}
{
glyphname = parenright;
layers = (
{
layerId = master01;
shapes = (
{
closed = 1;
nodes = (
(121,-77,o),
(131,-75,o),
(143,-72,cs),
(277,-35,o),
(376,52,o),
(391,226,cs),
(413,476,o),
(281,665,o),
(109,714,cs),
(102,716,o),
(95,717,o),
(89,717,cs),
(43,717,o),
(28,658,o),
(82,634,cs),
(197,583,o),
(299,444,o),
(285,248,cs),
(274,95,o),
(207,36,o),
(99,3,cs),
(53,-11,o),
(54,-76,o),
(113,-77,cs)
);
}
);
userData = {
com.typemytype.robofont.mark = (
0.619,
1,
0.6,
1
);
};
width = 439;
},
{
layerId = "8E39700C-2F6D-4A17-B4B3-161F49A69C4C";
shapes = (
{
closed = 1;
nodes = (
(60,631,o),
(43,657,o),
(43,670,q),
(43,689,o),
(73,717,o),
(101,718,q),
(127,710,o),
(178,696,o),
(201,683,q),
(233,665,o),
(286,603,o),
(328,525,o),
(359,436,o),
(379,346,o),
(389,261,o),
(389,226,q),
(389,179,o),
(369,93,o),
(344,54,q),
(327,28,o),
(283,-15,o),
(260,-37,q),
(248,-49,o),
(216,-61,o),
(181,-67,o),
(145,-71,o),
(128,-75,q),
(124,-76,o),
(117,-76,o),
(114,-76,q),
(89,-76,o),
(62,-47,o),
(62,-28,q),
(62,-5,o),
(92,16,o),
(135,27,o),
(183,35,o),
(202,46,q),
(229,61,o),
(263,112,o),
(281,169,o),
(288,226,o),
(288,248,q),
(288,293,o),
(271,395,o),
(237,491,o),
(186,571,o),
(151,595,q),
(134,606,o),
(96,615,o),
(77,621,q)
);
}
);
width = 439;
},
{
hints = (
{
horizontal = 1;
origin = (0,19);
type = TTSnap;
},
{
horizontal = 1;
origin = (0,33);
type = TTSnap;
}
);
layerId = "92936CB7-D294-4857-B41D-63B9425360A1";
shapes = (
{
closed = 1;
nodes = (
(91,-77,o),
(68,-55,o),
(65,-28,o),
(82,-2,o),
(99,3,q),
(139,15,o),
(205,52,o),
(252,109,o),
(281,191,o),
(285,248,q),
(290,321,o),
(260,446,o),
(203,545,o),
(125,615,o),
(82,634,q),
(62,643,o),
(46,671,o),
(50,698,o),
(72,717,o),
(89,717,q),
(98,717,o),
(109,714,q),
(173,696,o),
(284,609,o),
(362,482,o),
(399,320,o),
(391,226,q),
(385,161,o),
(344,62,o),
(279,-10,o),
(193,-58,o),
(143,-72,q),
(123,-77,o),
(113,-77,q)
);
}
);
userData = {
com.typemytype.robofont.mark = (
0.656,
1,
0.6,
1
);
};
width = 439;
}
);
unicode = 41;
}
{
glyphname = asterisk;
layers = (
{
background = {
shapes = (
{
closed = 1;
nodes = (
(218,-15,o),
(238,-3,o),
(250,26,cs),
(284,105,o),
(317,183,o),
(358,255,cs),
(394,319,o),
(437,379,o),
(478,440,cs),
(508,485,o),
(482,522,o),
(445,522,cs),
(429,522,o),
(411,514,o),
(397,494,cs),
(354,430,o),
(317,360,o),
(280,291,cs),
(233,206,o),
(190,123,o),
(167,48,cs),
(154,7,o),
(173,-15,o),
(200,-15,cs)
);
},
{
closed = 1;
nodes = (
(450,41,o),
(467,34,o),
(483,34,cs),
(514,34,o),
(541,66,o),
(518,103,cs),
(477,169,o),
(423,238,o),
(367,303,cs),
(310,370,o),
(250,432,o),
(189,474,cs),
(180,481,o),
(170,483,o),
(161,483,cs),
(122,483,o),
(94,433,o),
(134,401,cs),
(192,355,o),
(247,306,o),
(295,251,cs),
(348,191,o),
(392,125,o),
(437,60,cs)
);
},
{
closed = 1;
nodes = (
(176,176,o),
(254,203,o),
(332,222,cs),
(426,246,o),
(519,262,o),
(594,274,cs),
(653,284,o),
(649,364,o),
(581,358,cs),
(506,351,o),
(410,329,o),
(318,309,cs),
(226,288,o),
(137,268,o),
(80,248,cs),
(54,239,o),
(42,217,o),
(42,197,cs),
(42,169,o),
(63,146,o),
(103,157,cs)
);
}
);
};
hints = (
{
horizontal = 1;
origin = (0,68);
type = TTSnap;
},
{
horizontal = 1;
origin = (0,32);
type = TTSnap;
},
{
horizontal = 1;
options = 4;
origin = (0,68);
other1 = (0,17);
target = (0,32);
type = TTInterpolate;
},
{
horizontal = 1;
options = 4;
origin = (0,17);
target = (0,26);
type = TTStem;
},
{
horizontal = 1;
options = 4;
origin = (0,26);
target = (0,50);
type = TTShift;
},
{
horizontal = 1;
options = 4;
origin = (0,68);
other1 = (0,11);
target = (0,32);
type = TTInterpolate;
},
{
horizontal = 1;
options = 4;
origin = (0,68);
other1 = (0,44);
target = (0,32);
type = TTInterpolate;
},
{
horizontal = 1;
options = 4;
origin = (0,17);
target = (0,62);
type = TTShift;
},
{
horizontal = 1;
options = 4;
origin = (0,17);
target = (0,5);
type = TTShift;
},
{
horizontal = 1;
options = 4;
origin = (0,26);
target = (0,38);
type = TTShift;
}
);
layerId = master01;
shapes = (
{
closed = 1;
nodes = (
(218,-15,o),
(238,-3,o),
(250,26,cs),
(277,88,o),
(302,149,o),
(332,207,c),
(369,159,o),
(403,109,o),
(437,60,cs),
(450,41,o),
(467,34,o),
(483,34,cs),
(514,34,o),
(541,66,o),
(518,103,cs),
(490,149,o),
(455,196,o),
(418,242,c),
(481,255,o),
(542,266,o),
(594,274,cs),
(653,284,o),
(649,364,o),
(581,358,cs),
(529,353,o),
(466,341,o),
(402,327,c),
(427,365,o),
(453,402,o),
(478,440,cs),
(508,485,o),
(482,522,o),
(445,522,cs),
(429,522,o),
(411,514,o),
(397,494,cs),
(368,451,o),
(342,406,o),
(317,359,c),
(275,404,o),
(232,444,o),
(189,474,cs),
(180,481,o),
(170,483,o),
(161,483,cs),
(122,483,o),
(94,433,o),
(134,401,cs),
(176,367,o),
(217,332,o),
(255,294,c),
(186,279,o),
(124,263,o),
(80,248,cs),
(54,239,o),
(42,217,o),
(42,197,cs),
(42,169,o),
(63,146,o),
(103,157,cs),
(143,168,o),
(185,180,o),
(228,193,c),
(203,143,o),
(181,94,o),
(167,48,cs),
(154,7,o),
(173,-15,o),
(200,-15,cs)
);
}
);
width = 691;
},
{
layerId = "8E39700C-2F6D-4A17-B4B3-161F49A69C4C";
shapes = (
{
closed = 1;
nodes = (
(442,535,o),
(468,535,q),
(488,535,o),
(515,509,o),
(515,490,q),
(515,476,o),
(502,453,o),
(481,431,o),
(456,407,o),
(445,393,q),
(431,375,o),
(403,336,o),
(389,315,q),
(416,321,o),
(478,334,o),
(538,343,o),
(592,349,o),
(611,349,q),
(638,349,o),
(665,316,o),
(665,299,q),
(665,282,o),
(637,250,o),
(611,249,q),
(566,247,o),
(480,235,o),
(437,225,q),
(459,198,o),
(493,133,o),
(516,108,q),
(538,86,o),
(538,63,q),
(538,44,o),
(511,17,o),
(491,17,q),
(467,17,o),
(430,52,o),
(396,106,o),
(358,170,o),
(332,199,q),
(324,197,l),
(301,147,o),
(268,53,o),
(262,13,q),
(258,-13,o),
(228,-37,o),
(211,-37,q),
(191,-37,o),
(162,-9,o),
(162,11,q),
(162,23,o),
(169,60,o),
(180,101,o),
(193,143,o),
(200,161,q),
(184,156,o),
(148,146,o),
(113,137,o),
(82,131,o),
(72,131,q),
(52,131,o),
(28,160,o),
(28,181,q),
(28,197,o),
(49,228,o),
(72,231,q),
(101,235,o),
(160,251,o),
(183,260,q),
(203,268,o),
(244,278,o),
(253,281,q),
(256,285,l),
(218,325,o),
(157,377,o),
(114,413,o),
(91,440,o),
(91,455,q),
(91,473,o),
(118,501,o),
(140,501,q),
(155,501,o),
(194,480,o),
(238,445,o),
(285,400,o),
(309,375,q),
(337,419,o),
(395,488,o),
(427,520,q)
);
}
);
width = 691;
}
);
unicode = 42;
}
{
glyphname = plus;
layers = (
{
hints = (
{
horizontal = 1;
origin = (1,17);
type = TTSnap;
},
{
horizontal = 1;
origin = (1,8);
type = TTSnap;
},
{
horizontal = 1;
options = 4;
origin = (0,2,1,14);
target = (0,8,1,14);
type = TTStem;
},
{
horizontal = 1;
origin = (0,2,1,14);
type = TTSnap;
},
{
horizontal = 1;
options = 4;
origin = (0,2,1,14);
target = (0,2,1,5);
type = TTShift;
},
{
horizontal = 1;
options = 4;
origin = (0,8,1,14);
target = (0,8,1,5);
type = TTShift;
}
);
layerId = master01;
shapes = (
{
closed = 1;
nodes = (
(208,270,o),
(368,279,o),
(500,281,cs),
(562,282,o),
(563,367,o),
(500,370,cs),
(385,376,o),
(217,377,o),
(110,366,cs),
(71,362,o),
(52,341,o),
(52,313,cs),
(52,287,o),
(71,266,o),
(108,267,cs)
);
},
{
closed = 1;
nodes = (
(317,59,o),
(338,77,o),
(341,113,cs),
(351,213,o),
(352,381,o),
(339,513,cs),
(336,548,o),
(314,563,o),
(287,563,cs),
(261,563,o),
(236,545,o),
(238,511,cs),
(244,379,o),
(247,246,o),
(245,114,cs),
(244,78,o),
(267,59,o),
(291,59,cs)
);
}
);
width = 595;
},
{
layerId = "8E39700C-2F6D-4A17-B4B3-161F49A69C4C";
shapes = (
{
closed = 1;
nodes = (
(238,535,o),
(268,564,o),
(287,564,q),
(304,564,o),
(334,540,o),
(338,514,q),
(340,478,o),
(350,408,o),
(352,373,q),
(390,371,o),
(464,367,o),
(491,366,q),
(518,363,o),
(545,333,o),
(545,316,q),
(545,299,o),
(518,268,o),
(491,266,q),
(352,270,l),
(350,238,o),
(347,175,o),
(347,143,q),
(343,117,o),
(313,93,o),
(296,93,q),
(277,93,o),
(247,122,o),
(247,151,q),
(247,182,o),
(251,242,o),
(252,273,q),
(238,274,o),
(208,275,o),
(193,275,q),
(173,275,o),
(132,271,o),
(113,264,q),
(107,264,l),
(81,264,o),
(53,293,o),
(53,312,q),
(53,325,o),
(66,349,o),
(81,359,q),
(111,369,o),
(189,377,o),
(234,377,q),
(252,377,l),
(252,381,l),
(250,413,o),
(240,474,o),
(238,506,q)
);
}
);
width = 595;
}
);
unicode = 43;
}
{
glyphname = comma;
layers = (
{
hints = (
{
horizontal = 1;
origin = (0,8);
type = TTSnap;
},
{
horizontal = 1;
origin = (0,8);
stem = -1;
target = (0,20);
type = TTStem;
}
);
layerId = master01;
shapes = (
{
closed = 1;
nodes = (
(86,-235,o),
(107,-218,o),
(127,-201,cs),
(179,-157,o),
(236,-79,o),
(258,-13,cs),
(273,31,o),
(252,68,o),
(215,68,cs),
(188,68,o),
(170,53,o),
(155,19,cs),
(134,-28,o),
(99,-93,o),
(63,-137,cs),
(45,-159,o),
(28,-175,o),
(28,-199,cs),
(28,-217,o),
(42,-235,o),
(63,-235,cs)
);
}
);
userData = {
com.typemytype.robofont.mark = (
0.619,
1,
0.6,
1
);
};
width = 359;
},
{
layerId = "8E39700C-2F6D-4A17-B4B3-161F49A69C4C";
shapes = (
{
closed = 1;
nodes = (
(216,65,o),
(238,65,q),
(258,65,o),
(283,36,o),
(283,16,q),
(283,2,o),
(272,-19,o),
(262,-36,q),
(221,-106,l),
(211,-123,o),
(186,-170,o),
(154,-212,o),
(117,-242,o),
(95,-242,q),
(73,-242,o),
(46,-214,o),
(46,-196,q),
(46,-185,o),
(57,-162,o),
(70,-152,q),
(78,-146,o),
(83,-137,q),
(93,-123,o),
(109,-99,o),
(118,-84,q),
(126,-71,o),
(145,-33,o),
(166,7,o),
(190,42,o),
(202,53,q)
);
}
);
width = 359;
}
);
unicode = 44;
}
{
glyphname = hyphen;
layers = (
{
layerId = master01;
shapes = (
{
closed = 1;
nodes = (
(187,224,o),
(288,229,o),
(392,237,cs),
(426,240,o),
(444,260,o),
(444,286,cs),
(444,306,o),
(427,328,o),
(385,329,cs),
(307,331,o),
(190,329,o),
(98,326,cs),
(58,325,o),
(39,304,o),
(39,276,cs),
(39,247,o),
(56,224,o),
(103,224,cs)
);
}
);
userData = {
com.typemytype.robofont.mark = (
0.619,
1,
0.6,
1
);
};
width = 473;
},
{
layerId = "8E39700C-2F6D-4A17-B4B3-161F49A69C4C";
shapes = (
{
closed = 1;
nodes = (
(64,226,o),
(39,255,o),
(39,276,q),
(39,297,o),
(65,326,o),
(87,326,q),
(164,326,o),
(313,329,o),
(390,329,q),
(418,329,o),
(444,296,o),
(444,279,q),
(444,262,o),
(417,229,o),
(390,229,q),
(313,229,o),
(164,226,o),
(87,226,q)
);
}
);
width = 473;
},
{
hints = (
{
horizontal = 1;
origin = (0,18);
type = TTSnap;
},
{
horizontal = 1;
options = 4;
origin = (0,18);
target = (0,4);
type = TTStem;
}
);
layerId = "92936CB7-D294-4857-B41D-63B9425360A1";
shapes = (
{
closed = 1;
nodes = (
(68,224,o),
(39,254,o),
(39,297,o),
(68,325,o),
(98,326,q),
(132,327,o),
(209,329,o),
(285,330,o),
(356,330,o),
(385,329,q),
(417,328,o),
(444,301,o),
(444,286,q),
(444,266,o),
(418,239,o),
(392,237,q),
(314,231,o),
(166,224,o),
(103,224,q)
);
}
);
userData = {
com.typemytype.robofont.mark = (
0.656,
1,
0.6,
1
);
};
width = 473;
}
);
unicode = 45;
}
{
glyphname = period;
layers = (
{
layerId = master01;
shapes = (
{
closed = 1;
nodes = (
(147,138,o),
(104,96,o),
(101,51,cs),
(98,13,o),
(121,-21,o),
(168,-21,cs),
(224,-21,o),
(249,31,o),
(252,70,cs),
(255,116,o),
(226,138,o),
(198,138,cs)
);
}
);
userData = {
com.typemytype.robofont.mark = (
0.619,
1,
0.6,
1
);
};
width = 363;
},
{
layerId = "8E39700C-2F6D-4A17-B4B3-161F49A69C4C";
shapes = (
{
closed = 1;
nodes = (
(219,138,o),
(254,108,o),
(254,86,q),
(254,64,o),
(235,50,q),
(233,23,o),
(197,-21,o),
(168,-21,q,{
name = ab01;
}),
(150,-21,o),
(124,-9,o),
(107,9,o),
(98,30,o),
(98,40,q),
(98,57,o),
(115,92,o),
(143,120,o),
(179,138,o),
(199,138,q,{
name = sv01;
})
);
}
);
width = 363;
},
{
hints = (
{
horizontal = 1;
options = 8;
origin = (0,11);
stem = -1;
target = (0,5);
type = TTStem;
}
);
layerId = "92936CB7-D294-4857-B41D-63B9425360A1";
shapes = (
{
closed = 1;
nodes = (
(134,-21,o),
(99,21,o),
(101,51,qs),
(103,85,o),
(160,138,o),
(198,138,qs),
(221,138,o),
(255,102,o),
(252,70,qs),
(249,35,o),
(206,-21,o),
(168,-21,qs)
);
}
);
userData = {
com.typemytype.robofont.mark = (
0.656,
1,
0.6,
1
);
};
width = 363;
}
);
unicode = 46;
}
{
glyphname = slash;
layers = (
{
hints = (
{
horizontal = 1;
origin = (0,8);
type = TTSnap;
},
{
horizontal = 1;
origin = (0,20);
type = TTSnap;
}
);
layerId = master01;
shapes = (
{
closed = 1;
nodes = (
(69,-15,o),
(89,-1,o),
(100,27,cs),
(179,236,o),
(299,441,o),
(427,631,cs),
(455,672,o),
(430,710,o),
(394,710,cs),
(376,710,o),
(355,701,o),
(337,676,cs),
(201,486,o),
(80,278,o),
(10,55,cs),
(7,46,o),
(6,37,o),
(6,30,cs),
(6,1,o),
(25,-15,o),
(47,-15,cs)
);
}
);
userData = {
com.typemytype.robofont.mark = (
0.619,
1,
0.6,
1
);
};
width = 441;
},
{
layerId = "8E39700C-2F6D-4A17-B4B3-161F49A69C4C";
shapes = (
{
closed = 1;
nodes = (
(342,689,o),
(372,709,o),
(387,709,q),
(405,709,o),
(434,682,o),
(434,656,q),
(434,633,o),
(412,589,o),
(381,545,o),
(347,504,o),
(335,485,q),
(302,431,o),
(230,320,o),
(167,205,o),
(119,86,o),
(108,24,q),
(103,1,o),
(70,-20,o),
(56,-20,q),
(38,-20,o),
(9,6,o),
(9,38,q),
(18,93,o),
(56,200,o),
(108,304,o),
(169,405,o),
(199,454,q),
(220,487,o),
(264,552,o),
(303,608,o),
(332,653,o),
(336,667,q)
);
}
);
width = 441;
}
);
unicode = 47;
}
{
glyphname = zero;
kernLeft = zero;
kernRight = zero;
layers = (
{
background = {
shapes = (
{
closed = 1;
nodes = (
(422,565,o),
(390,581,o),
(345,581,cs),
(199,581,o),
(97,454,o),
(76,296,cs),
(50,97,o),
(130,-19,o),
(276,-19,cs),
(444,-19,o),
(541,138,o),
(551,276,cs),
(559,392,o),
(519,502,o),
(432,539,c)
);
},
{
closed = 1;
nodes = (
(358,449,o),
(396,457,o),
(420,424,cs),
(442,394,o),
(453,360,o),
(447,288,cs),
(438,178,o),
(377,77,o),
(273,77,cs),
(202,77,o),
(164,131,o),
(181,282,cs),
(190,365,o),
(219,474,o),
(353,490,c)
);
}
);
};
hints = (
{
horizontal = 1;
options = 4;
origin = (0,8);
target = (1,8);
type = TTStem;
},
{
horizontal = 1;
options = 4;
origin = (0,2);
target = (1,14);
type = TTStem;
},
{
horizontal = 1;
origin = (0,2);
type = TTSnap;
}
);
layerId = master01;
shapes = (
{
closed = 1;
nodes = (
(422,565,o),
(390,581,o),
(345,581,cs),
(182,581,o),
(71,423,o),
(71,225,cs),
(71,70,o),
(148,-19,o),
(276,-19,cs),
(444,-19,o),
(541,138,o),
(551,276,cs),
(559,392,o),
(519,502,o),
(432,539,c)
);
},
{
closed = 1;
nodes = (
(358,449,o),
(396,457,o),
(420,424,cs),
(442,394,o),
(453,360,o),
(447,288,cs),
(438,178,o),
(377,77,o),
(273,77,cs),
(202,77,o),
(164,131,o),
(181,282,cs),
(190,365,o),
(219,474,o),
(353,490,c)
);
}
);
width = 624;
},
{
layerId = "8E39700C-2F6D-4A17-B4B3-161F49A69C4C";
shapes = (
{
closed = 1;
nodes = (
(428,551,o),
(432,539,q),
(465,525,o),
(510,473,o),
(539,410,o),
(552,341,o),
(552,310,q),
(552,251,o),
(518,133,o),
(447,39,o),
(337,-19,o),
(260,-19,q),
(205,-19,o),
(132,18,o),
(89,84,o),
(71,173,o),
(71,226,q),
(71,242,o),
(73,272,o),
(75,287,q),
(82,350,o),
(122,457,o),
(191,536,o),
(289,581,o),
(355,581,q),
(370,581,o),
(402,576,o),
(416,563,q)
);
},
{
closed = 1;
nodes = (
(355,472,o),
(353,481,q),
(299,479,o),
(229,436,o),
(187,362,o),
(171,261,o),
(171,202,q),
(171,166,o),
(189,104,o),
(211,87,q),
(239,81,o),
(268,81,q),
(318,81,o),
(388,121,o),
(433,185,o),
(454,268,o),
(454,312,q),
(454,347,o),
(435,409,o),
(414,431,q),
(403,442,o),
(374,454,o),
(363,465,q)
);
}
);
width = 624;
}
);
unicode = 48;
}
{
glyphname = one;
layers = (
{
layerId = master01;
shapes = (
{
closed = 1;
nodes = (
(348,572,l),
(334,342,o),
(328,144,o),
(330,26,cs),
(331,-13,o),
(356,-32,o),
(381,-32,cs),
(404,-32,o),
(431,-16,o),
(432,23,cs),
(435,197,o),
(440,389,o),
(440,590,cs),
(440,632,o),
(422,667,o),
(381,667,cs),
(348,667,o),
(329,647,o),
(309,614,c),
(225,499,o),
(133,402,o),
(52,312,cs),
(1,255,o),
(65,186,o),
(125,242,cs),
(169,283,o),
(206,330,o),
(244,379,cs),
(299,450,o),
(336,509,o),
(379,575,c)
);
}
);
userData = {
com.typemytype.robofont.mark = (
1,
0.976,
0.6,
1
);
};
width = 574;
},
{
layerId = "8E39700C-2F6D-4A17-B4B3-161F49A69C4C";
shapes = (
{
closed = 1;
nodes = (
(108,121,o),
(85,121,q,{
name = av02;
}),
(66,121,o),
(35,145,o),
(35,173,q),
(35,184,o),
(50,211,o),
(58,219,q),
(103,269,o),
(184,373,o),
(263,478,o),
(343,585,o),
(385,639,q),
(393,650,o),
(426,667,o),
(441,667,q,{
name = av01;
}),
(483,667,o),
(510,613,o),
(510,546,q),
(510,487,o),
(507,358,o),
(504,224,o),
(502,88,o),
(502,23,q),
(502,-6,o),
(468,-32,o),
(451,-32,q,{
name = ab01;
}),
(432,-32,o),
(402,-3,o),
(402,26,q),
(402,115,o),
(410,292,o),
(410,385,q),
(410,445,o),
(407,505,q,{
name = sv01;
}),
(344,416,o),
(206,240,o),
(131,149,q)
);
}
);
width = 574;
},
{
hints = (
{
horizontal = 1;
origin = (0,29);
type = TTSnap;
},
{
horizontal = 1;
origin = (0,20);
type = TTSnap;
},
{
horizontal = 1;
options = 4;
origin = (0,29);
other1 = (0,4);
target = (0,20);
type = TTInterpolate;
},
{
horizontal = 1;
origin = (0,29);
other1 = (0,10);
target = (0,20);
type = TTInterpolate;
}
);
layerId = "92936CB7-D294-4857-B41D-63B9425360A1";
shapes = (
{
closed = 1;
nodes = (
(360,-32,o),
(331,-1,o),
(330,26,qs),
(327,205,o),
(345,523,q),
(297,448,o),
(244,379,qs),
(201,323,o),
(150,265,o),
(125,242,qs),
(98,217,o),
(42,228,o),
(28,285,o),
(52,312,qs),
(92,356,ls),
(172,445,o),
(262,550,o),
(309,614,q),
(327,643,o),
(359,667,o),
(381,667,qs),
(409,667,o),
(440,625,o),
(440,590,qs),
(440,428,o),
(434,152,q),
(434,107,o),
(432,23,qs),
(431,-2,o),
(402,-32,o)
);
}
);
userData = {
com.typemytype.robofont.mark = (
0.656,
1,
0.6,
1
);
};
width = 574;
}
);
unicode = 49;
}
{
glyphname = two;
kernLeft = two;
kernRight = two;
layers = (
{
hints = (
{
horizontal = 1;
options = 4;
origin = (0,20);
target = (0,26);
type = TTStem;
},
{
horizontal = 1;
origin = (0,36);
type = TTSnap;
},
{
horizontal = 1;
options = 4;
origin = (0,36);
target = (0,2);
type = TTStem;
},
{
horizontal = 1;
options = 4;
origin = (0,26);
target = (0,8);
type = TTShift;
}
);
layerId = master01;
shapes = (
{
closed = 1;
nodes = (
(189,572,o),
(219,600,o),
(265,600,cs),
(313,600,o),
(335,563,o),
(329,513,cs),
(312,372,o),
(171,221,o),
(53,85,c),
(39,68,o),
(29,55,o),
(29,32,cs),
(29,4,o),
(50,-14,o),
(74,-14,cs),
(86,-14,o),
(91,-12,o),
(103,-12,cs),
(216,-12,o),
(335,-6,o),
(455,1,cs),
(491,3,o),
(509,27,o),
(509,51,cs),
(509,79,o),
(488,98,o),
(452,98,cs),
(360,98,o),
(205,87,o),
(104,72,c),
(121,37,l),
(260,179,o),
(432,353,o),
(439,518,cs),
(443,614,o),
(387,695,o),
(270,695,cs),
(169,695,o),
(100,624,o),
(88,538,cs),
(83,501,o),
(103,484,o),
(125,484,cs),
(142,484,o),
(160,495,o),
(168,515,cs)
);
}
);
userData = {
com.typemytype.robofont.mark = (
0.619,
1,
0.6,
1
);
};
width = 546;
},
{
layerId = "8E39700C-2F6D-4A17-B4B3-161F49A69C4C";
shapes = (
{
closed = 1;
nodes = (
(210,551,o),
(191,526,o),
(171,526,q),
(153,526,o),
(127,560,o),
(127,584,q),
(127,607,o),
(148,648,o),
(184,678,o),
(234,695,o),
(263,695,q),
(305,695,o),
(367,666,o),
(408,619,o),
(428,558,o),
(428,525,q),
(428,492,o),
(407,430,o),
(389,399,q),
(367,361,o),
(316,281,o),
(263,201,o),
(208,123,o),
(182,88,q),
(250,92,o),
(383,101,o),
(452,101,q),
(479,101,o),
(509,68,o),
(509,51,q),
(509,34,o),
(482,1,o),
(455,1,q),
(376,1,o),
(218,-14,o),
(139,-14,q),
(130,-14,o),
(112,-13,o),
(103,-12,q),
(94,-14,o),
(83,-14,o),
(74,-14,q),
(56,-14,o),
(29,12,o),
(29,37,q),
(29,52,o),
(43,79,o),
(64,105,o),
(88,129,o),
(97,141,q),
(157,218,o),
(259,364,o),
(305,450,q),
(307,454,o),
(316,469,o),
(325,487,o),
(331,506,o),
(331,515,q),
(331,551,o),
(301,600,o),
(265,600,q),
(253,600,o),
(224,584,o),
(219,573,q)
);
}
);
width = 546;
}
);
unicode = 50;
}
{
glyphname = three;
layers = (
{
layerId = master01;
shapes = (
{
closed = 1;
nodes = (
(187,605,o),
(221,617,o),
(270,617,cs),
(342,617,o),
(379,592,o),
(374,548,cs),
(369,504,o),
(322,471,o),
(232,448,cs),
(172,433,o),
(183,360,o),
(239,358,c),
(343,340,o),
(403,290,o),
(392,200,cs),
(381,113,o),
(319,59,o),
(212,59,cs),
(159,59,o),
(120,74,o),
(91,79,cs),
(36,89,o),
(29,27,o),
(69,1,cs),
(106,-23,o),
(163,-33,o),
(227,-33,cs),
(378,-33,o),
(488,61,o),
(500,188,cs),
(513,325,o),
(435,409,o),
(250,426,c),
(257,389,l),
(399,417,o),
(476,463,o),
(482,551,cs),
(489,649,o),
(409,711,o),
(278,711,cs),
(217,711,o),
(174,699,o),
(144,687,cs),
(78,661,o),
(100,592,o),
(154,600,cs)
);
}
);
userData = {
com.typemytype.robofont.mark = (
0.619,
1,
0.6,
1
);
};
width = 562;
},
{
layerId = "8E39700C-2F6D-4A17-B4B3-161F49A69C4C";
shapes = (
{
closed = 1;
nodes = (
(138,605,o),
(111,635,o),
(111,655,q),
(111,671,o),
(132,701,o),
(155,705,q),
(178,709,o),
(225,711,o),
(248,711,q,{
name = av01;
}),
(280,711,o),
(361,699,o),
(433,669,o),
(482,618,o),
(482,579,q),
(482,553,o),
(455,504,o),
(416,462,o),
(374,430,o),
(359,423,q,{
name = iv03;
}),
(384,409,o),
(434,380,o),
(473,341,o),
(498,291,o),
(498,257,q),
(498,198,o),
(453,91,o),
(374,11,o),
(267,-36,o),
(205,-36,q,{
name = ab01;
}),
(187,-36,o),
(131,-30,o),
(78,-13,o),
(39,17,o),
(39,40,q),
(39,59,o),
(62,88,o),
(94,88,q),
(107,88,o),
(126,80,o),
(150,71,o),
(184,64,o),
(212,64,q,{
name = sv01;
}),
(252,64,o),
(321,98,o),
(371,152,o),
(399,221,o),
(399,257,q),
(399,270,o),
(375,299,o),
(339,326,o),
(299,347,o),
(284,352,q,{
name = iv02;
}),
(246,365,o),
(210,399,o),
(210,426,q),
(210,457,o),
(252,487,o,{
name = iv01;
}),
(308,511,o),
(364,544,o),
(378,578,q),
(370,585,o),
(340,598,o),
(304,606,o),
(266,611,o),
(251,611,q,{
name = sv02;
}),
(222,611,o),
(183,605,o),
(161,605,q)
);
}
);
width = 562;
},
{
hints = (
{
horizontal = 1;
origin = (0,37);
type = TTSnap;
},
{
horizontal = 1;
options = 4;
origin = (0,37);
target = (0,26);
type = TTStem;
},
{
horizontal = 1;
options = 4;
origin = (0,50);
target = (0,10);
type = TTStem;
},
{
horizontal = 1;
options = 8;
origin = (0,37);
other1 = (0,16);
target = (0,50);
type = TTInterpolate;
},
{
horizontal = 1;
options = 4;
origin = (0,16);
target = (0,21);
type = TTStem;
},
{
horizontal = 1;
options = 4;
origin = (0,16);
other1 = (0,43);
target = (0,21);
type = TTInterpolate;
}
);
layerId = "92936CB7-D294-4857-B41D-63B9425360A1";
shapes = (
{
closed = 1;
nodes = (
(175,-33,o),
(95,-16,o),
(69,1,q),
(55,10,o),
(41,40,o),
(48,69,o),
(73,82,o),
(91,79,q),
(99,78,o),
(174,59,o),
(212,59,q,{
name = sv01;
}),
(290,59,o),
(384,133,o),
(392,200,q),
(400,264,o),
(322,344,o),
(239,358,q,{
name = dv01;
}),
(219,359,o),
(194,382,o),
(190,415,o),
(211,443,o),
(232,448,q,{
name = dv02;
}),
(367,482,o),
(374,548,q),
(378,581,o),
(324,617,o),
(270,617,q,{
name = sv02;
}),
(236,617,o),
(164,602,o),
(154,600,q),
(135,597,o),
(107,615,o),
(101,648,o),
(122,678,o),
(144,687,q),
(174,699,o),
(241,711,o),
(278,711,q,{
name = av01;
}),
(377,711,o),
(487,624,o),
(482,551,q),
(478,501,o),
(409,432,o),
(341,410,q,{
name = iv01;
}),
(428,386,o),
(508,274,o),
(500,188,q),
(494,124,o),
(419,22,o),
(299,-33,o),
(227,-33,q,{
name = ab01;
})
);
}
);
userData = {
com.typemytype.robofont.mark = (
0.656,
1,
0.6,
1
);
};
width = 562;
}
);
unicode = 51;
}
{
glyphname = four;
layers = (
{
layerId = master01;
shapes = (
{
closed = 1;
nodes = (
(325,341,o),
(314,180,o),
(302,21,cs),
(299,-17,o),
(317,-40,o),
(346,-40,cs),
(370,-40,o),
(395,-25,o),
(398,10,c),
(417,171,o),
(430,335,o),
(435,497,cs),
(436,532,o),
(418,555,o),
(386,555,cs),
(362,555,o),
(336,540,o),
(334,501,cs)
);
},
{
closed = 1;
nodes = (
(620,276,o),
(638,296,o),
(638,319,cs),
(638,342,o),
(623,365,o),
(584,365,cs),
(475,364,o),
(256,356,o),
(147,356,c),
(165,319,l),
(181,456,o),
(204,556,o),
(220,644,cs),
(229,693,o),
(196,711,o),
(173,711,cs),
(153,711,o),
(128,700,o),
(121,664,cs),
(104,574,o),
(84,467,o),
(71,349,cs),
(65,297,o),
(84,254,o),
(154,261,c),
(276,261,o),
(478,269,o),
(584,274,cs)
);
}
);
userData = {
com.typemytype.robofont.mark = (
1,
0.976,
0.6,
1
);
};
width = 664;
},
{
layerId = "8E39700C-2F6D-4A17-B4B3-161F49A69C4C";
shapes = (
{
closed = 1;
nodes = (
(356,527,o),
(386,556,o),
(405,556,q),
(422,556,o),
(455,528,o),
(455,502,q),
(455,364,l),
(495,365,o),
(574,365,o),
(614,365,q),
(643,365,o),
(668,332,o),
(668,315,q),
(668,298,o),
(641,265,o),
(614,265,q),
(457,265,l),
(460,209,o),
(460,156,q),
(460,133,o),
(459,101,o),
(459,70,o),
(458,36,o),
(458,13,q),
(458,-13,o),
(425,-41,o),
(408,-41,q),
(389,-41,o),
(359,-12,o),
(359,17,q),
(359,43,o),
(360,81,o),
(361,116,o),
(362,154,o),
(362,179,q),
(362,201,o),
(362,243,o),
(360,265,q),
(211,265,l),
(198,265,o),
(174,263,o),
(161,263,q),
(132,263,o),
(93,275,o),
(70,297,o),
(61,329,o),
(61,349,q),
(61,365,o),
(66,403,o),
(72,441,o),
(79,477,o),
(82,491,q),
(90,536,o),
(106,624,o),
(112,669,q),
(115,692,o),
(148,711,o),
(163,711,q),
(180,711,o),
(212,686,o),
(212,661,q),
(212,653,o),
(205,605,o),
(200,577,q),
(198,565,o),
(186,505,o),
(174,437,o),
(164,376,o),
(164,363,q),
(213,363,o),
(309,363,o),
(357,364,q),
(356,397,o),
(356,464,o),
(356,498,q)
);
}
);
width = 664;
},
{
hints = (
{
horizontal = 1;
origin = (0,43);
type = TTSnap;
},
{
horizontal = 1;
origin = (0,14);
type = TTSnap;
},
{
horizontal = 1;
origin = (0,43);
other1 = (0,4);
target = (0,14);
type = TTInterpolate;
},
{
horizontal = 1;
options = 4;
origin = (0,4);
target = (0,22);
type = TTStem;
},
{
horizontal = 1;
options = 4;
origin = (0,4);
target = (0,39);
type = TTShift;
},
{
horizontal = 1;
options = 4;
origin = (0,22);
target = (0,31);
type = TTShift;
},
{
horizontal = 1;
options = 4;
origin = (0,22);
target = (0,9);
type = TTShift;
},
{
horizontal = 1;
origin = (0,14);
other1 = (0,26);
target = (0,22);
type = TTInterpolate;
}
);
layerId = "92936CB7-D294-4857-B41D-63B9425360A1";
shapes = (
{
closed = 1;
nodes = (
(324,-40,o),
(300,-7,o),
(302,21,qs),
(314,183,o),
(319,264,q),
(229,261,o),
(154,261,q),
(108,256,o),
(66,302,o),
(71,349,qs),
(87,484,o),
(121,664,qs),
(125,686,o),
(153,711,o),
(173,711,qs),
(197,711,o),
(226,674,o),
(220,644,qs),
(217,626,o),
(182,447,o),
(170,356,q),
(244,357,o),
(326,359,q),
(332,451,o),
(334,501,qs),
(335,526,o),
(364,555,o),
(409,555,o),
(436,524,o),
(435,497,qs),
(434,430,o),
(429,362,q),
(563,365,o),
(584,365,qs),
(609,365,o),
(638,340,o),
(638,300,o),
(609,275,o),
(584,274,qs),
(423,267,l),
(416,177,o),
(398,10,qs),
(395,-13,o),
(367,-40,o)
);
}
);
userData = {
com.typemytype.robofont.mark = (
0.656,
1,
0.6,
1
);
};
width = 664;
}
);
unicode = 52;
}
{
glyphname = five;
layers = (
{
layerId = master01;
shapes = (
{
closed = 1;
nodes = (
(220,628,o),
(373,639,o),
(451,644,cs),
(487,646,o),
(504,667,o),
(504,691,cs),
(504,714,o),
(487,735,o),
(450,735,cs),
(322,735,o),
(212,725,o),
(83,709,cs),
(42,704,o),
(22,686,o),
(22,655,cs),
(22,626,o),
(41,600,o),
(88,607,cs)
);
},
{
closed = 1;
nodes = (
(118,612,o),
(92,519,o),
(83,461,cs),
(75,408,o),
(76,363,o),
(138,353,c),
(167,341,o),
(200,326,o),
(229,312,cs),
(304,275,o),
(333,237,o),
(328,160,cs),
(322,73,o),
(282,45,o),
(231,45,cs),
(195,45,o),
(169,55,o),
(134,63,cs),
(97,72,o),
(74,51,o),
(74,24,cs),
(74,3,o),
(84,-12,o),
(111,-24,cs),
(144,-38,o),
(189,-50,o),
(238,-50,cs),
(357,-50,o),
(427,48,o),
(435,145,cs),
(446,270,o),
(394,353,o),
(256,407,cs),
(221,421,o),
(186,432,o),
(158,440,c),
(170,404,l),
(187,487,o),
(217,572,o),
(248,663,c),
(141,674,l)
);
}
);
userData = {
com.typemytype.robofont.mark = (
0.619,
1,
0.6,
1
);
};
width = 475;
},
{
layerId = "8E39700C-2F6D-4A17-B4B3-161F49A69C4C";
shapes = (
{
closed = 1;
nodes = (
(131,364,o),
(91,418,o),
(91,447,q),
(91,465,o),
(101,504,o),
(116,546,o),
(131,591,o),
(136,615,q,{
name = sv02;
}),
(117,613,o),
(78,605,o),
(60,605,q),
(38,605,o),
(12,632,o),
(12,651,q),
(12,703,o),
(73,709,q),
(123,714,o),
(216,724,o),
(308,731,o),
(400,735,o),
(450,735,q,{
name = at01;
}),
(478,735,o),
(504,702,o),
(504,685,q),
(504,668,o),
(477,635,o),
(450,635,q,{
name = sv01;
}),
(396,635,o),
(291,630,o),
(238,625,q),
(236,599,o),
(218,539,o),
(206,510,q),
(201,499,o),
(191,466,o),
(191,452,q),
(191,448,o),
(209,435,o),
(233,422,o),
(259,410,o),
(267,407,q,{
name = iv01;
}),
(348,372,o),
(436,256,o),
(436,181,q),
(436,136,o),
(412,53,o),
(364,-11,o),
(291,-50,o),
(242,-50,q,{
name = av01;
}),
(227,-50,o),
(191,-46,o),
(156,-39,o),
(123,-29,o),
(111,-24,q),
(91,-15,o),
(74,9,o),
(74,27,q),
(74,45,o),
(102,74,o),
(128,74,q),
(144,74,o),
(177,66,o),
(207,56,o),
(236,48,o),
(250,48,q,{
name = sv03;
}),
(263,48,o),
(293,61,o),
(319,92,o),
(336,142,o),
(336,180,q),
(336,219,o),
(305,269,o),
(259,304,o,{
name = iv02;
}),
(204,328,o),
(179,340,q)
);
}
);
width = 475;
},
{
hints = (
{
horizontal = 1;
options = 4;
origin = (0,58);
target = (0,11);
type = TTStem;
},
{
horizontal = 1;
origin = (0,58);
stem = 6;
type = TTSnap;
},
{
horizontal = 1;
options = 4;
origin = (0,36);
target = (0,42);
type = TTStem;
},
{
horizontal = 1;
options = 4;
origin = (0,42);
target = (0,27);
type = TTShift;
},
{
horizontal = 1;
options = 8;
origin = (0,58);
other1 = (0,20);
target = (0,36);
type = TTInterpolate;
},
{
horizontal = 1;
options = 4;
origin = (0,20);
target = (0,48);
type = TTStem;
}
);
layerId = "92936CB7-D294-4857-B41D-63B9425360A1";
shapes = (
{
closed = 1;
nodes = (
(206,-50,o),
(140,-36,o),
(111,-24,q),
(91,-15,o),
(74,8,o),
(74,24,q),
(74,46,o),
(108,69,o),
(134,63,q),
(143,61,o),
(204,45,o),
(261,45,o),
(302,70,o),
(325,121,o),
(328,160,q),
(332,215,o),
(288,283,o),
(229,312,q,{
name = iv02;
}),
(206,323,o),
(159,344,o),
(138,353,q),
(118,356,o),
(92,373,o),
(80,399,o),
(79,434,o),
(87,489,o),
(107,569,o),
(120,612,q,{
name = sv04;
}),
(88,607,l),
(57,602,o),
(22,629,o),
(22,655,q),
(22,702,o),
(83,709,q),
(197,723,o),
(366,735,o),
(450,735,q,{
name = at01;
}),
(475,735,o),
(504,710,o),
(504,691,q),
(504,671,o),
(476,645,o),
(451,644,q,{
name = sv01;
}),
(403,641,o),
(289,632,o),
(235,626,q,{
name = sv02;
}),
(210,552,o),
(185,469,o),
(177,434,q),
(196,428,o),
(236,415,o),
(256,407,q,{
name = iv01;
}),
(357,367,o),
(443,241,o),
(435,145,q),
(430,90,o),
(375,-1,o),
(290,-50,o),
(238,-50,q,{
name = ab01;
})
);
}
);
userData = {
com.typemytype.robofont.mark = (
0.656,
1,
0.6,
1
);
};
width = 475;
}
);
unicode = 53;
}
{
glyphname = six;
layers = (
{
hints = (
{
horizontal = 1;
options = 4;
origin = (0,39);
target = (0,18);
type = TTStem;
},
{
horizontal = 1;
origin = (0,30);
type = TTSnap;
},
{
horizontal = 1;
origin = (0,39);
other1 = (0,5);
target = (0,30);
type = TTInterpolate;
},
{
horizontal = 1;
options = 4;
origin = (0,5);
target = (0,12);
type = TTStem;
}
);
layerId = master01;
shapes = (
{
closed = 1;
nodes = (
(436,-21,o),
(562,48,o),
(573,179,cs),
(583,292,o),
(504,370,o),
(365,370,cs),
(280,370,o),
(194,333,o),
(98,242,c),
(139,182,l),
(209,246,o),
(281,272,o),
(356,272,cs),
(426,272,o),
(469,239,o),
(463,178,cs),
(457,120,o),
(406,75,o),
(312,75,cs),
(206,75,o),
(144,160,o),
(157,314,cs),
(170,464,o),
(229,577,o),
(366,653,cs),
(391,667,o),
(405,678,o),
(405,698,cs),
(405,722,o),
(380,734,o),
(348,734,cs),
(330,734,o),
(309,730,o),
(290,721,cs),
(129,644,o),
(52,439,o),
(52,274,cs),
(52,66,o),
(177,-21,o),
(321,-21,cs)
);
}
);
width = 599;
},
{
layerId = "8E39700C-2F6D-4A17-B4B3-161F49A69C4C";
shapes = (
{
closed = 1;
nodes = (
(195,658,o),
(234,691,o),
(279,718,o),
(328,735,o),
(354,735,q),
(377,735,o),
(405,707,o),
(405,688,q),
(405,674,o),
(387,645,o),
(367,638,q),
(351,633,o),
(318,627,o),
(304,619,q),
(266,597,o),
(208,519,o),
(169,421,o),
(149,308,o),
(149,250,q),
(149,224,o),
(155,182,o),
(167,146,o),
(186,112,o),
(200,93,q),
(217,81,o),
(273,68,o),
(302,68,q),
(341,68,o),
(403,94,o),
(446,132,o),
(469,176,o),
(469,193,q),
(469,222,o),
(425,267,o),
(393,267,q),
(371,267,o),
(327,246,o),
(307,220,q),
(305,197,o),
(271,174,o),
(253,174,q),
(234,174,o),
(207,201,o),
(207,221,q),
(207,251,o),
(240,304,o),
(292,345,o),
(355,368,o),
(385,368,q),
(430,368,o),
(501,338,o),
(550,288,o),
(577,225,o),
(577,191,q),
(577,145,o),
(528,67,o),
(453,11,o),
(365,-21,o),
(326,-21,q),
(251,-21,o),
(147,12,o),
(81,82,o),
(51,192,o),
(51,269,q),
(51,321,o),
(69,426,o),
(103,523,o),
(151,608,o),
(180,641,q)
);
}
);
width = 599;
}
);
unicode = 54;
}
{
glyphname = seven;
layers = (
{
layerId = master01;
shapes = (
{
closed = 1;
nodes = (
(395,484,o),
(397,600,o),
(313,665,cs),
(256,710,o),
(131,723,o),
(73,723,cs),
(40,723,o),
(22,703,o),
(22,675,cs),
(22,648,o),
(44,634,o),
(71,631,cs),
(145,622,o),
(212,615,o),
(249,586,cs),
(294,551,o),
(294,486,o),
(272,389,cs),
(251,295,o),
(195,142,o),
(153,43,cs),
(133,-4,o),
(165,-27,o),
(192,-27,cs),
(223,-27,o),
(234,-3,o),
(246,23,cs),
(298,134,o),
(343,264,o),
(374,394,cs)
);
},
{
closed = 1;
nodes = (
(543,309,o),
(543,389,o),
(473,389,cs),
(381,389,o),
(200,384,o),
(106,377,cs),
(43,372,o),
(43,283,o),
(104,284,cs),
(223,286,o),
(423,297,o),
(473,302,cs)
);
}
);
userData = {
com.typemytype.robofont.mark = (
0.619,
1,
0.6,
1
);
};
width = 509;
},
{
layerId = "8E39700C-2F6D-4A17-B4B3-161F49A69C4C";
shapes = (
{
closed = 1;
nodes = (
(82,284,o),
(58,313,o),
(58,334,q),
(58,355,o),
(85,384,o),
(106,384,q),
(149,384,o),
(230,387,o),
(272,389,q,{
name = sv01;
}),
(281,429,l),
(284,444,o),
(288,474,o),
(288,488,q),
(288,529,o),
(252,592,o),
(205,608,q),
(169,620,o),
(110,625,o),
(71,625,q,{
name = sv02;
}),
(51,625,o),
(22,652,o),
(22,675,q),
(22,696,o),
(50,723,o),
(68,723,q,{
name = at01;
}),
(95,723,o),
(135,722,o),
(172,717,o),
(211,709,o),
(236,703,q),
(280,692,o),
(339,644,o),
(374,585,o),
(389,522,o),
(389,496,q),
(389,471,o),
(381,421,o),
(374,394,q,{
name = dv02;
}),
(400,395,o),
(450,396,o),
(473,396,q),
(499,396,o),
(527,367,o),
(527,346,q),
(527,325,o),
(499,296,o),
(473,296,q),
(443,296,o),
(380,294,o),
(348,293,q,{
name = dv01;
}),
(339,258,o),
(312,187,o),
(285,117,o),
(261,52,o),
(256,23,q),
(252,2,o),
(228,-27,o),
(205,-27,q,{
name = ab01;
}),
(185,-27,o),
(156,2,o),
(156,31,q),
(156,52,o),
(172,102,o),
(195,155,o),
(220,209,o),
(230,235,q),
(235,248,o),
(244,274,o),
(246,288,q,{
name = sv03;
}),
(210,287,o),
(140,284,o),
(102,284,q)
);
}
);
width = 509;
},
{
hints = (
{
horizontal = 1;
origin = (0,50);
type = TTSnap;
},
{
horizontal = 1;
options = 4;
origin = (0,27);
target = (0,22);
type = TTStem;
},
{
horizontal = 1;
origin = (0,50);
other1 = (0,5);
target = (0,27);
type = TTInterpolate;
},
{
horizontal = 1;
options = 4;
origin = (0,5);
target = (0,45);
type = TTShift;
},
{
horizontal = 1;
options = 4;
origin = (0,5);
target = (0,16);
type = TTStem;
},
{
horizontal = 1;
options = 4;
origin = (0,16);
target = (0,35);
type = TTShift;
}
);
layerId = "92936CB7-D294-4857-B41D-63B9425360A1";
shapes = (
{
closed = 1;
nodes = (
(176,-27,o),
(150,-8,o),
(145,24,o),
(153,43,q),
(207,170,o),
(244,289,q,{
name = sv01;
}),
(199,286,o),
(109,284,o),
(104,284,q),
(83,284,o),
(58,310,o),
(59,348,o),
(85,375,o),
(106,377,q),
(140,379,o),
(226,384,o),
(271,385,q,{
name = sv02;
}),
(290,469,o),
(281,561,o),
(249,586,q),
(227,603,o),
(145,623,o),
(71,631,q,{
name = sv03;
}),
(49,633,o),
(22,656,o),
(22,697,o),
(49,723,o),
(73,723,q,{
name = at01;
}),
(117,723,o),
(217,708,o),
(291,682,o),
(313,665,q),
(348,638,o),
(384,557,o),
(388,453,o),
(373,388,q,{
name = dv02;
}),
(428,389,o),
(473,389,q),
(497,389,o),
(526,365,o),
(525,330,o),
(496,304,o),
(473,302,q),
(450,300,o),
(390,296,o),
(347,294,q,{
name = dv01;
}),
(306,152,o),
(246,23,q),
(232,-6,o),
(209,-27,o),
(192,-27,q,{
name = ab01;
})
);
}
);
userData = {
com.typemytype.robofont.mark = (
0.656,
1,
0.6,
1
);
};
width = 509;
}
);
unicode = 55;
}
{
glyphname = eight;
layers = (
{
layerId = master01;
shapes = (
{
closed = 1;
nodes = (
(357,-15,o),
(447,63,o),
(459,160,cs),
(471,256,o),
(424,327,o),
(354,404,cs),
(293,471,o),
(211,500,o),
(211,569,cs),
(211,615,o),
(238,637,o),
(288,637,cs),
(318,637,o),
(349,625,o),
(371,615,cs),
(396,604,o),
(410,629,o),
(410,654,cs),
(410,691,o),
(358,731,o),
(271,731,cs),
(173,731,o),
(110,653,o),
(110,563,cs),
(110,476,o),
(157,442,o),
(253,361,cs),
(328,297,o),
(356,251,o),
(349,182,cs),
(343,119,o),
(294,81,o),
(242,81,cs),
(170,81,o),
(134,130,o),
(148,196,cs),
(161,256,o),
(197,297,o),
(314,334,c),
(327,346,l),
(476,389,o),
(512,460,o),
(516,517,cs),
(521,589,o),
(466,647,o),
(425,667,cs),
(368,695,o),
(348,637,o),
(381,604,cs),
(400,585,o),
(419,564,o),
(414,527,cs),
(408,475,o),
(345,442,o),
(277,419,c),
(260,408,l),
(124,363,o),
(58,298,o),
(42,207,cs),
(21,91,o),
(80,-15,o),
(241,-15,cs)
);
}
);
userData = {
com.typemytype.robofont.mark = (
1,
0.976,
0.6,
1
);
};
width = 532;
},
{
layerId = "8E39700C-2F6D-4A17-B4B3-161F49A69C4C";
shapes = (
{
closed = 1;
nodes = (
(379,686,o),
(379,663,q),
(379,644,o),
(352,617,o),
(332,617,q),
(315,617,o),
(296,629,q),
(291,633,o),
(282,633,q,{
name = sv01;
}),
(210,633,o),
(210,569,q),
(210,545,o),
(232,509,o),
(267,478,o),
(309,449,o),
(329,434,q,{
name = iv01;
}),
(358,448,o),
(407,492,o),
(414,527,q),
(394,545,o),
(394,567,q),
(394,587,o),
(423,615,o),
(448,615,q,{
name = sv03;
}),
(464,615,o),
(491,597,o),
(509,568,o),
(519,535,o),
(519,520,q),
(519,491,o),
(494,442,o),
(455,400,o),
(410,368,o),
(390,358,q),
(422,305,o),
(461,215,o),
(461,173,q),
(461,132,o),
(422,63,o),
(359,13,o),
(278,-15,o),
(235,-15,q,{
name = ab01;
}),
(215,-15,o),
(171,-10,o),
(129,0,o),
(92,16,o),
(79,28,q),
(58,47,o),
(44,116,o),
(44,151,q),
(44,191,o),
(54,250,o),
(76,298,o),
(113,338,o),
(140,358,q),
(157,372,o),
(197,390,o),
(218,397,q),
(196,413,o),
(158,443,o),
(129,480,o),
(112,529,o),
(112,563,q),
(112,639,o),
(191,731,o),
(271,731,q,{
name = at01;
}),
(293,731,o),
(340,724,o),
(357,708,q)
);
},
{
closed = 1;
nodes = (
(359,188,o),
(348,226,o),
(330,265,o),
(309,302,o),
(299,318,q,{
name = iv02;
}),
(240,299,o),
(178,263,o),
(150,221,o),
(145,169,o),
(145,134,q),
(145,131,o),
(147,111,o),
(148,103,q),
(171,95,o),
(219,86,o),
(242,86,q,{
name = sv02;
}),
(266,86,o),
(308,96,o),
(340,117,o),
(359,149,o),
(359,172,q)
);
}
);
width = 532;
},
{
hints = (
{
horizontal = 1;
options = 4;
origin = (0,26);
target = (1,10);
type = TTStem;
},
{
horizontal = 1;
options = 4;
origin = (0,26);
other1 = (1,4);
target = (2,6);
type = TTInterpolate;
},
{
horizontal = 1;
options = 4;
origin = (1,4);
other1 = (0,20);
target = (2,12);
type = TTInterpolate;
},
{
horizontal = 1;
options = 4;
origin = (1,4);
other1 = (0,5);
target = (2,12);
type = TTInterpolate;
},
{
horizontal = 1;
options = 4;
origin = (0,11);
target = (2,6);
type = TTStem;
},
{
horizontal = 1;
options = 4;
origin = (1,10);
other1 = (2,12);
target = (0,11);
type = TTInterpolate;
}
);
layerId = "92936CB7-D294-4857-B41D-63B9425360A1";
shapes = (
{
closed = 1;
nodes = (
(132,-15,o),
(25,108,o),
(42,207,qs),
(53,269,o),
(138,360,o),
(216,392,q,{
name = iv03;
}),
(152,445,o),
(110,515,o),
(110,563,qs),
(110,634,o),
(201,731,o),
(271,731,qs),
(320,731,o),
(392,699,o),
(405,674,q),
(422,672,o),
(474,634,o),
(519,560,o),
(516,517,qs),
(509,420,o),
(386,367,q,{
name = iv04;
}),
(431,311,o),
(466,213,o),
(459,160,qs),
(450,85,o),
(326,-15,o),
(241,-15,qs)
);
},
{
closed = 1;
nodes = (
(283,81,o),
(344,137,o),
(353,223,o),
(326,290,o),
(291,326,q,{
name = iv02;
}),
(224,302,o),
(158,243,o),
(148,196,qs),
(137,145,o),
(189,81,o),
(242,81,qs)
);
},
{
closed = 1;
nodes = (
(407,475,o),
(414,527,qs),
(417,548,o),
(403,582,o),
(373,614,q),
(323,637,o),
(288,637,qs),
(211,637,o),
(211,569,qs),
(211,540,o),
(248,494,o),
(291,460,o),
(321,436,q,{
name = iv01;
})
);
}
);
userData = {
com.typemytype.robofont.mark = (
0.656,
1,
0.6,
1
);
};
width = 532;
}
);
unicode = 56;
}
{
glyphname = nine;
layers = (
{
background = {
shapes = (
{
closed = 1;
nodes = (
(404,695,o),
(345,720,o),
(260,720,cs),
(173,720,o),
(63,670,o),
(50,554,cs),
(36,426,o),
(131,368,o),
(236,368,cs),
(311,368,o),
(367,404,o),
(409,474,c),
(365,461,l),
(351,355,o),
(334,227,o),
(294,133,cs),
(264,63,o),
(226,26,o),
(168,26,cs),
(117,26,o),
(95,53,o),
(69,65,cs),
(17,89,o),
(-29,27,o),
(34,-26,cs),
(66,-53,o),
(111,-70,o),
(170,-70,cs),
(251,-70,o),
(337,-34,o),
(389,93,cs),
(439,215,o),
(449,337,o),
(462,431,c),
(497,532,o),
(471,566,o),
(433,566,cs),
(409,566,o),
(396,553,o),
(374,527,cs),
(334,480,o),
(300,464,o),
(237,464,cs),
(185,464,o),
(149,496,o),
(154,544,cs),
(160,598,o),
(210,624,o),
(272,624,cs),
(311,624,o),
(344,616,o),
(366,602,c),
(385,575,o),
(412,567,o),
(435,580,cs),
(463,596,o),
(462,635,o),
(437,661,cs)
);
}
);
};
hints = (
{
horizontal = 1;
options = 4;
origin = (0,30);
target = (0,18);
type = TTStem;
},
{
horizontal = 1;
origin = (0,30);
type = TTSnap;
},
{
horizontal = 1;
options = 4;
origin = (0,2);
target = (0,51);
type = TTStem;
},
{
horizontal = 1;
origin = (0,30);
other1 = (0,8);
target = (0,2);
type = TTInterpolate;
},
{
horizontal = 1;
options = 4;
origin = (0,8);
target = (0,45);
type = TTStem;
},
{
horizontal = 1;
options = 4;
origin = (0,2);
other1 = (0,39);
target = (0,8);
type = TTInterpolate;
},
{
horizontal = 1;
options = 4;
origin = (0,2);
other1 = (0,57);
target = (0,8);
type = TTInterpolate;
}
);
layerId = master01;
shapes = (
{
closed = 1;
nodes = (
(404,695,o),
(345,720,o),
(260,720,cs),
(173,720,o),
(63,670,o),
(50,554,cs),
(36,426,o),
(131,368,o),
(236,368,cs),
(311,368,o),
(367,404,o),
(409,474,c),
(365,461,l),
(351,355,o),
(334,227,o),
(294,133,cs),
(264,63,o),
(226,26,o),
(168,26,cs),
(117,26,o),
(95,53,o),
(69,65,cs),
(35,81,o),
(3,60,o),
(3,28,cs),
(3,12,o),
(12,-8,o),
(34,-26,cs),
(66,-53,o),
(111,-70,o),
(170,-70,cs),
(251,-70,o),
(337,-34,o),
(389,93,cs),
(439,215,o),
(449,337,o),
(462,431,c),
(497,532,o),
(471,566,o),
(433,566,cs),
(409,566,o),
(396,553,o),
(374,527,cs),
(334,480,o),
(300,464,o),
(237,464,cs),
(185,464,o),
(149,496,o),
(154,544,cs),
(160,598,o),
(210,624,o),
(272,624,cs),
(311,624,o),
(344,616,o),
(366,602,c),
(385,575,o),
(412,567,o),
(435,580,cs),
(463,596,o),
(462,635,o),
(437,661,cs)
);
}
);
width = 514;
},
{
layerId = "8E39700C-2F6D-4A17-B4B3-161F49A69C4C";
shapes = (
{
closed = 1;
nodes = (
(444,649,o),
(444,635,q),
(444,614,o),
(417,588,o),
(398,588,q),
(388,588,o),
(367,596,o),
(357,607,q),
(340,615,o),
(319,619,o),
(305,619,q),
(285,619,o),
(232,612,o),
(182,591,o),
(148,554,o),
(148,525,q),
(148,509,o),
(163,488,o),
(188,475,o),
(220,470,o),
(237,470,q),
(261,470,o),
(295,475,o),
(327,489,o),
(359,514,o),
(380,534,q),
(391,552,o),
(417,566,o),
(431,566,q),
(449,566,o),
(480,541,o),
(480,518,q),
(480,510,o),
(473,479,o),
(464,443,o),
(455,405,o),
(452,392,q),
(443,322,o),
(419,167,o),
(368,25,o),
(278,-92,o),
(204,-123,q),
(190,-129,o),
(166,-138,o),
(155,-138,q),
(144,-138,o),
(115,-127,o),
(102,-117,q),
(79,-97,o),
(54,-63,o),
(54,-44,q),
(54,-25,o),
(81,3,o),
(103,3,q),
(119,3,o),
(147,-13,o),
(163,-32,q),
(171,-28,o),
(188,-25,o),
(196,-19,q),
(236,12,o),
(289,100,o),
(323,203,o),
(342,315,o),
(348,370,q),
(350,388,l),
(330,378,o),
(276,368,o),
(247,368,q),
(213,368,o),
(142,384,o),
(84,420,o),
(47,476,o),
(47,516,q),
(47,568,o),
(87,644,o),
(158,695,o),
(255,720,o),
(311,720,q),
(356,720,o),
(415,698,o),
(435,667,q)
);
}
);
width = 514;
}
);
unicode = 57;
}
{
glyphname = colon;
layers = (
{
layerId = master01;
shapes = (
{
closed = 1;
nodes = (
(129,447,o),
(106,416,o),
(106,382,cs),
(106,344,o),
(136,303,o),
(178,303,cs),
(211,303,o),
(257,334,o),
(257,376,cs),
(257,422,o),
(222,447,o),
(189,447,cs)
);
},
{
closed = 1;
nodes = (
(138,127,o),
(109,85,o),
(109,46,cs),
(109,1,o),
(149,-26,o),
(188,-26,cs),
(214,-26,o),
(261,-7,o),
(261,44,cs),
(261,84,o),
(229,127,o),
(184,127,cs)
);
}
);
userData = {
com.typemytype.robofont.mark = (
0.619,
1,
0.6,
1
);
};
width = 362;
},
{
layerId = "8E39700C-2F6D-4A17-B4B3-161F49A69C4C";
shapes = (
{
closed = 1;
nodes = (
(208,429,o),
(245,397,o),
(245,368,q),
(245,354,o),
(232,331,o),
(211,315,o),
(187,305,o),
(177,305,q),
(150,305,o),
(115,348,o),
(115,373,q),
(115,395,o),
(148,429,o),
(186,429,q)
);
},
{
closed = 1;
nodes = (
(198,94,o),
(220,82,o),
(236,64,o),
(245,41,o),
(245,29,q),
(245,14,o),
(233,-7,o),
(215,-20,o),
(195,-26,o),
(188,-26,q),
(165,-26,o),
(126,4,o),
(126,30,q),
(126,53,o),
(158,94,o),
(185,94,q)
);
}
);
width = 362;
},
{
hints = (
{
horizontal = 1;
origin = (0,19);
stem = -1;
target = (0,9);
type = TTStem;
},
{
horizontal = 1;
origin = (1,7);
type = TTSnap;
},
{
horizontal = 1;
origin = (1,7);
stem = -1;
target = (1,15);
type = TTStem;
}
);
layerId = "92936CB7-D294-4857-B41D-63B9425360A1";
shapes = (
{
closed = 1;
nodes = (
(173,-26,o),
(145,-16,o),
(123,2,o),
(109,29,o),
(109,46,q),
(109,61,o),
(119,90,o),
(139,113,o),
(167,127,o),
(184,127,q),
(201,127,o),
(229,112,o),
(250,89,o),
(261,59,o),
(261,44,q),
(261,25,o),
(245,-2,o),
(223,-18,o),
(198,-26,o),
(188,-26,q)
);
},
{
closed = 1;
nodes = (
(162,303,o),
(136,317,o),
(117,339,o),
(106,368,o),
(106,382,q),
(106,408,o),
(144,447,o),
(189,447,q),
(214,447,o),
(257,411,o),
(257,376,q),
(257,360,o),
(242,333,o),
(218,314,o),
(190,303,o),
(178,303,q)
);
}
);
userData = {
com.typemytype.robofont.mark = (
0.656,
1,
0.6,
1
);
};
width = 362;
}
);
unicode = 58;
}
{
glyphname = semicolon;
layers = (
{
layerId = master01;
shapes = (
{
closed = 1;
nodes = (
(100,-11,o),
(63,-88,o),
(39,-136,cs),
(13,-189,o),
(48,-211,o),
(72,-211,cs),
(97,-211,o),
(116,-195,o),
(146,-151,cs),
(178,-105,o),
(224,-23,o),
(230,37,cs),
(234,75,o),
(211,97,o),
(180,97,cs),
(152,97,o),
(131,81,o),
(120,49,cs)
);
},
{
closed = 1;
nodes = (
(106,359,o),
(132,328,o),
(181,328,cs),
(231,328,o),
(257,368,o),
(257,395,cs),
(257,413,o),
(250,427,o),
(236,438,c),
(225,465,o),
(201,484,o),
(171,484,cs),
(133,484,o),
(106,452,o),
(106,411,cs)
);
}
);
userData = {
com.typemytype.robofont.mark = (
0.619,
1,
0.6,
1
);
};
width = 360;
},
{
layerId = "8E39700C-2F6D-4A17-B4B3-161F49A69C4C";
shapes = (
{
closed = 1;
nodes = (
(166,97,o),
(184,97,q,{
name = av02;
}),
(204,97,o),
(231,70,o),
(231,50,q),
(231,33,o),
(215,-7,o),
(191,-49,o),
(161,-89,o),
(147,-107,q),
(135,-123,o),
(118,-147,o),
(104,-163,o),
(87,-171,o),
(75,-171,q,{
name = av01;
}),
(57,-171,o),
(29,-145,o),
(29,-122,q),
(29,-104,o),
(46,-71,o),
(71,-41,o),
(97,-11,o),
(106,4,q),
(118,24,o),
(135,67,o),
(150,86,q)
);
},
{
closed = 1;
nodes = (
(116,429,o),
(147,465,o),
(171,465,q,{
name = av03;
}),
(190,465,o),
(219,443,o),
(226,426,q),
(244,412,o),
(244,390,q),
(244,381,o),
(236,362,o),
(221,346,o),
(200,335,o),
(187,335,q,{
name = sv01;
}),
(183,335,o),
(175,337,q),
(173,337,o),
(170,336,o),
(168,336,q),
(146,336,o),
(116,373,o),
(116,403,q)
);
}
);
width = 360;
},
{
hints = (
{
horizontal = 1;
origin = (0,11);
type = TTSnap;
},
{
horizontal = 1;
origin = (0,11);
stem = -1;
target = (0,22);
type = TTStem;
},
{
horizontal = 1;
origin = (1,5);
type = TTSnap;
},
{
horizontal = 1;
origin = (1,5);
stem = -1;
target = (1,15);
type = TTStem;
}
);
layerId = "92936CB7-D294-4857-B41D-63B9425360A1";
shapes = (
{
closed = 1;
nodes = (
(63,-211,o),
(43,-202,o),
(30,-184,o),
(29,-156,o),
(39,-136,q),
(48,-118,o),
(70,-73,o),
(92,-23,o),
(112,26,o),
(120,49,q),
(136,97,o),
(180,97,q,{
name = av01;
}),
(203,97,o),
(233,66,o),
(230,37,q),
(228,14,o),
(210,-37,o),
(186,-88,o),
(158,-134,o),
(146,-151,q),
(123,-184,o),
(91,-211,o),
(72,-211,q,{
name = sv01;
})
);
},
{
closed = 1;
nodes = (
(144,328,o),
(106,372,o),
(106,411,q),
(106,442,o),
(142,484,o),
(171,484,q,{
name = sv03;
}),
(194,484,o),
(228,458,o),
(236,438,q),
(257,421,o),
(257,395,q),
(257,385,o),
(247,361,o),
(228,341,o),
(200,328,o),
(181,328,q,{
name = sv02;
})
);
}
);
userData = {
com.typemytype.robofont.mark = (
0.656,
1,
0.6,
1
);
};
width = 360;
}
);
unicode = 59;
}
{
glyphname = less;
layers = (
{
hints = (
{
horizontal = 1;
origin = (0,30);
type = TTSnap;
},
{
horizontal = 1;
origin = (0,30);
stem = -1;
target = (0,12);
type = TTStem;
}
);
layerId = master01;
shapes = (
{
closed = 1;
nodes = (
(402,89,o),
(438,132,o),
(389,174,cs),
(336,220,o),
(283,262,o),
(218,322,c),
(219,266,l),
(277,346,o),
(375,416,o),
(427,451,cs),
(478,485,o),
(454,546,o),
(406,546,cs),
(395,546,o),
(384,543,o),
(373,537,cs),
(311,503,o),
(201,399,o),
(169,356,cs),
(154,335,o),
(144,319,o),
(144,297,cs),
(144,266,o),
(164,243,o),
(184,220,cs),
(228,171,o),
(281,126,o),
(335,96,cs),
(344,91,o),
(353,89,o),
(362,89,cs)
);
}
);
width = 595;
},
{
layerId = "8E39700C-2F6D-4A17-B4B3-161F49A69C4C";
shapes = (
{
closed = 1;
nodes = (
(395,543,o),
(408,545,o),
(414,545,q),
(438,545,o),
(466,516,o),
(466,498,q),
(466,487,o),
(449,459,o),
(437,451,q),
(418,438,o),
(368,401,o),
(318,359,o),
(273,314,o),
(258,295,q),
(269,287,l),
(284,276,o),
(333,238,o),
(356,213,q),
(369,199,o),
(379,177,o),
(379,163,q),
(379,143,o),
(351,119,o),
(331,119,q),
(321,119,o),
(301,124,o),
(292,135,q),
(276,153,o),
(230,188,o),
(187,226,o),
(156,268,o),
(156,292,q),
(156,324,o),
(179,356,q),
(191,372,o),
(244,426,o),
(306,482,o),
(367,529,o),
(387,539,q)
);
}
);
width = 595;
}
);
unicode = 60;
}
{
glyphname = equal;
layers = (
{
hints = (
{
horizontal = 1;
origin = (0,11);
type = TTSnap;
},
{
horizontal = 1;
origin = (0,11);
target = (1,17);
type = TTStem;
},
{
horizontal = 1;
options = 4;
origin = (1,17);
target = (1,11);
type = TTStem;
},
{
horizontal = 1;
options = 4;
origin = (0,11);
target = (0,17);
type = TTStem;
}
);
layerId = master01;
shapes = (
{
closed = 1;
nodes = (
(226,174,o),
(346,178,o),
(482,188,cs),
(518,191,o),
(537,207,o),
(537,231,cs),
(537,255,o),
(519,277,o),
(474,277,cs),
(387,277,o),
(213,272,o),
(90,265,cs),
(49,263,o),
(37,238,o),
(37,217,cs),
(37,189,o),
(57,169,o),
(95,170,cs)
);
},
{
closed = 1;
nodes = (
(212,354,o),
(377,366,o),
(475,374,cs),
(511,377,o),
(530,398,o),
(530,420,cs),
(530,442,o),
(512,468,o),
(467,468,cs),
(390,468,o),
(186,463,o),
(85,451,cs),
(44,446,o),
(32,422,o),
(32,402,cs),
(32,382,o),
(44,354,o),
(91,354,cs)
);
}
);
width = 595;
},
{
layerId = "8E39700C-2F6D-4A17-B4B3-161F49A69C4C";
shapes = (
{
closed = 1;
nodes = (
(58,174,o),
(37,203,o),
(37,219,q),
(37,235,o),
(58,263,o),
(81,269,q),
(182,270,o),
(382,279,o),
(483,280,q),
(510,277,o),
(537,247,o),
(537,230,q),
(537,213,o),
(510,182,o),
(483,180,q),
(382,179,o),
(182,170,o),
(81,169,q)
);
},
{
closed = 1;
nodes = (
(53,358,o),
(32,387,o),
(32,403,q),
(32,419,o),
(53,447,o),
(76,453,q),
(177,455,o),
(375,469,o),
(476,471,q),
(503,468,o),
(530,438,o),
(530,421,q),
(530,404,o),
(503,373,o),
(476,371,q),
(375,369,o),
(177,355,o),
(76,353,q)
);
}
);
width = 595;
}
);
unicode = 61;
}
{
glyphname = greater;
layers = (
{
hints = (
{
horizontal = 1;
origin = (0,33);
type = TTSnap;
},
{
horizontal = 1;
origin = (0,33);
stem = -1;
target = (0,17);
type = TTStem;
}
);
layerId = master01;
shapes = (
{
closed = 1;
nodes = (
(226,100,o),
(235,103,o),
(244,108,cs),
(295,137,o),
(375,212,o),
(413,260,cs),
(437,290,o),
(452,314,o),
(452,335,cs),
(452,358,o),
(439,381,o),
(393,419,cs),
(347,457,o),
(266,520,o),
(198,562,cs),
(187,569,o),
(175,572,o),
(165,572,cs),
(135,572,o),
(114,551,o),
(114,524,cs),
(114,509,o),
(121,493,o),
(140,480,cs),
(216,426,o),
(296,368,o),
(370,306,c),
(371,369,l),
(305,274,o),
(271,257,o),
(189,180,cs),
(158,151,o),
(180,100,o),
(218,100,cs)
);
}
);
width = 595;
},
{
layerId = "8E39700C-2F6D-4A17-B4B3-161F49A69C4C";
shapes = (
{
closed = 1;
nodes = (
(113,454,o),
(106,475,o),
(106,486,q),
(106,507,o),
(133,533,o),
(154,533,q),
(161,533,o),
(178,530,o),
(184,525,q),
(224,495,o),
(320,425,o),
(380,379,q),
(416,352,o),
(442,312,o),
(442,295,q),
(442,263,o),
(397,218,q),
(389,210,o),
(358,171,o),
(320,131,o),
(279,100,o),
(262,100,q),
(236,100,o),
(208,129,o),
(208,148,q),
(208,162,o),
(221,187,o),
(236,193,q),
(245,196,o),
(267,218,o),
(289,244,o),
(310,269,o),
(316,277,q),
(328,291,l),
(307,309,l),
(261,345,o),
(171,408,o),
(124,445,q)
);
}
);
width = 595;
}
);
unicode = 62;
}
{
glyphname = question;
layers = (
{
background = {
shapes = (
{
closed = 1;
nodes = (
(257,138,o),
(214,96,o),
(211,51,cs),
(208,13,o),
(231,-21,o),
(278,-21,cs),
(334,-21,o),
(359,31,o),
(362,70,cs),
(365,116,o),
(336,138,o),
(308,138,cs)
);
}
);
};
layerId = master01;
shapes = (
{
closed = 1;
nodes = (
(360,220,o),
(376,237,o),
(376,261,cs),
(376,292,o),
(348,310,o),
(350,347,cs),
(354,419,o),
(454,464,o),
(466,563,cs),
(477,653,o),
(429,706,o),
(329,705,cs),
(237,704,o),
(155,659,o),
(101,603,cs),
(52,553,o),
(41,484,o),
(54,441,cs),
(75,378,o),
(144,395,o),
(141,450,cs),
(139,494,o),
(144,515,o),
(167,542,cs),
(205,586,o),
(270,612,o),
(313,612,cs),
(347,612,o),
(366,595,o),
(358,551,cs),
(345,481,o),
(254,437,o),
(250,346,cs),
(248,298,o),
(267,262,o),
(286,242,cs),
(300,227,o),
(317,220,o),
(334,220,cs)
);
},
{
closed = 1;
nodes = (
(339,-19,o),
(367,19,o),
(367,59,cs),
(367,107,o),
(321,137,o),
(281,137,cs),
(248,137,o),
(218,118,o),
(218,73,cs),
(218,33,o),
(249,-19,o),
(294,-19,cs)
);
}
);
width = 538;
},
{
layerId = "8E39700C-2F6D-4A17-B4B3-161F49A69C4C";
shapes = (
{
closed = 1;
nodes = (
(157,422,o),
(125,397,o),
(108,397,q),
(93,397,o),
(62,416,o),
(57,439,q),
(52,459,o),
(47,499,o),
(47,519,q),
(47,540,o),
(61,578,o),
(82,595,q),
(112,621,o),
(151,641,q),
(167,649,o),
(217,672,o),
(275,693,o),
(336,707,o),
(363,707,q),
(378,707,o),
(405,701,o),
(415,694,q),
(436,680,o),
(464,627,o),
(464,600,q),
(464,550,o),
(428,467,o),
(386,393,o),
(350,326,o),
(350,292,q),
(350,281,o),
(358,262,o),
(368,245,o),
(376,227,o),
(376,217,q),
(376,196,o),
(349,169,o),
(330,169,q),
(304,169,o),
(284,195,q),
(271,212,o),
(250,256,o),
(250,285,q),
(250,309,o),
(262,356,o),
(280,401,o),
(302,443,o),
(312,461,q),
(318,472,o),
(335,500,o),
(350,531,o),
(361,564,o),
(361,579,q),
(361,594,o),
(355,606,q),
(315,598,o),
(225,572,o),
(190,548,q),
(179,540,o),
(155,523,o),
(146,512,q),
(148,495,o),
(157,465,o),
(157,447,q)
);
},
{
closed = 1;
nodes = (
(357,37,o),
(323,-5,o),
(294,-5,q),
(279,-5,o),
(255,10,o),
(238,33,o),
(228,61,o),
(228,75,q),
(228,104,o),
(261,130,o),
(282,130,q),
(295,130,o),
(322,121,o),
(343,103,o),
(357,78,o),
(357,63,q)
);
}
);
width = 538;
},
{
hints = (
{
horizontal = 1;
origin = (1,11);
stem = -1;
target = (1,5);
type = TTStem;
},
{
horizontal = 1;
origin = (1,5);
stem = -1;
target = (0,47);
type = TTStem;
},
{
horizontal = 1;
origin = (0,16);
type = TTSnap;
},
{
horizontal = 1;
options = 4;
origin = (1,11);
other1 = (0,10);
target = (0,34);
type = TTInterpolate;
},
{
horizontal = 1;
options = 4;
origin = (1,5);
other1 = (0,39);
target = (0,16);
type = TTInterpolate;
},
{
horizontal = 1;
origin = (0,47);
other1 = (0,25);
target = (0,16);
type = TTInterpolate;
},
{
horizontal = 1;
options = 4;
origin = (0,16);
target = (0,34);
type = TTStem;
}
);
layerId = "92936CB7-D294-4857-B41D-63B9425360A1";
shapes = (
{
closed = 1;
nodes = (
(353,220,o),
(376,243,o),
(376,261,qs),
(376,275,o),
(364,299,qs),
(357,312,o),
(349,333,o),
(350,347,qs),
(351,370,o),
(376,410,o),
(400,439,qs),
(429,473,o),
(462,528,o),
(466,563,qs),
(474,631,o),
(403,706,o),
(329,705,qs),
(263,704,o),
(144,648,o),
(101,603,qs),
(66,568,o),
(43,476,o),
(54,441,qs),
(61,421,o),
(86,401,o),
(101,401,qs),
(118,401,o),
(142,428,o),
(141,450,qs),
(139,484,o),
(150,522,o),
(167,542,qs),
(194,574,o),
(279,612,o),
(313,612,qs),
(369,612,o),
(358,551,qs),
(354,530,o),
(331,493,o),
(309,467,qs),
(280,431,o),
(251,380,o),
(250,346,qs),
(249,313,o),
(270,259,o),
(286,242,qs),
(307,220,o),
(334,220,qs)
);
},
{
closed = 1;
nodes = (
(326,-19,o),
(367,28,o),
(367,59,qs),
(367,93,o),
(313,137,o),
(281,137,qs),
(254,137,o),
(218,105,o),
(218,73,qs),
(218,40,o),
(262,-19,o),
(294,-19,qs)
);
}
);
width = 538;
}
);
unicode = 63;
}
{
glyphname = at;
layers = (
{
background = {
shapes = (
{
closed = 1;
nodes = (
(272,505,o),
(219,413,o),
(219,336,cs),
(219,275,o),
(249,226,o),
(324,226,cs),
(335,226,o),
(347,227,o),
(359,229,c),
(375,186,o),
(408,157,o),
(455,157,cs),
(482,157,o),
(539,173,o),
(570,194,cs),
(661,254,o),
(709,339,o),
(709,432,cs),
(709,546,o),
(638,677,o),
(460,677,cs),
(292,677,o),
(191,622,o),
(128,538,cs),
(78,472,o),
(55,405,o),
(55,291,cs),
(55,172,o),
(80,72,o),
(163,11,cs),
(228,-38,o),
(308,-73,o),
(388,-73,cs),
(446,-73,o),
(622,-73,o),
(622,15,cs),
(622,38,o),
(603,60,o),
(568,64,c),
(547,60,o),
(530,51,o),
(513,36,c),
(480,31,o),
(446,27,o),
(413,27,cs),
(355,27,o),
(270,54,o),
(228,88,cs),
(174,131,o),
(156,207,o),
(156,289,cs),
(156,385,o),
(167,440,o),
(220,496,cs),
(278,559,o),
(369,578,o),
(450,578,cs),
(561,578,o),
(610,515,o),
(610,439,cs),
(610,390,o),
(589,339,o),
(550,304,cs),
(526,281,o),
(493,268,o),
(458,257,c),
(455,257,o),
(454,258,o),
(447,277,c),
(447,321,o),
(427,338,o),
(396,338,cs),
(375,338,o),
(353,326,o),
(320,326,c),
(317,331,o),
(318,336,o),
(318,343,cs),
(318,370,o),
(332,405,o),
(354,405,cs),
(383,405,o),
(397,375,o),
(422,375,cs),
(447,375,o),
(470,395,o),
(470,427,cs),
(470,478,o),
(399,505,o),
(357,505,cs)
);
}
);
};
layerId = master01;
shapes = (
{
closed = 1;
nodes = (
(272,505,o),
(219,413,o),
(219,336,cs),
(219,275,o),
(249,226,o),
(324,226,cs),
(335,226,o),
(347,227,o),
(359,229,c),
(370,169,o),
(408,159,o),
(455,159,cs),
(551,159,o),
(690,247,o),
(709,391,cs),
(731,556,o),
(625,677,o),
(433,677,cs),
(249,677,o),
(76,552,o),
(53,323,cs),
(27,61,o),
(189,-71,o),
(411,-71,cs),
(530,-71,o),
(622,-29,o),
(622,15,cs),
(622,44,o),
(599,50,o),
(551,38,cs),
(520,30,o),
(472,23,o),
(422,23,cs),
(283,23,o),
(136,86,o),
(159,316,cs),
(176,481,o),
(268,582,o),
(422,582,cs),
(554,582,o),
(618,515,o),
(607,403,cs),
(600,331,o),
(563,252,o),
(441,235,c),
(447,218,l),
(461,273,o),
(467,338,o),
(402,338,cs),
(375,338,o),
(362,326,o),
(335,326,cs),
(313,326,o),
(313,350,o),
(317,368,cs),
(321,384,o),
(332,405,o),
(363,405,cs),
(383,405,o),
(401,397,o),
(420,377,cs),
(450,346,o),
(492,386,o),
(477,427,cs),
(461,472,o),
(408,505,o),
(357,505,cs)
);
}
);
width = 764;
},
{
layerId = "8E39700C-2F6D-4A17-B4B3-161F49A69C4C";
shapes = (
{
closed = 1;
nodes = (
(373,505,o),
(412,495,o),
(446,475,o),
(470,446,o),
(470,427,q),
(470,403,o),
(441,375,o),
(422,375,q),
(413,375,o),
(397,384,o),
(382,396,o),
(365,405,o),
(354,405,q),
(346,405,o),
(332,393,o),
(323,375,o),
(318,353,o),
(318,343,q),
(318,338,o),
(318,330,o),
(320,326,q),
(345,326,o),
(380,338,o),
(396,338,q),
(419,338,o),
(447,310,o),
(447,277,q),
(452,263,o),
(456,257,o),
(458,257,q),
(484,265,o),
(532,287,o),
(550,304,q),
(579,330,o),
(610,402,o),
(610,439,q),
(610,467,o),
(591,518,o),
(552,556,o),
(492,578,o),
(450,578,q),
(420,578,o),
(356,570,o),
(296,551,o),
(242,520,o),
(220,496,q),
(200,475,o),
(175,432,o),
(161,383,o),
(156,325,o),
(156,289,q),
(156,258,o),
(163,200,o),
(180,148,o),
(208,104,o),
(228,88,q),
(244,75,o),
(289,53,o),
(340,36,o),
(391,27,o),
(413,27,q),
(438,27,o),
(488,32,o),
(513,36,q),
(526,47,o),
(552,61,o),
(568,64,q),
(594,61,o),
(622,32,o),
(622,15,q),
(622,-18,o),
(565,-54,o),
(488,-70,o),
(410,-73,o),
(388,-73,q),
(328,-73,o),
(212,-26,o),
(163,11,q),
(101,57,o),
(55,202,o),
(55,291,q),
(55,334,o),
(64,403,o),
(82,461,o),
(109,513,o),
(128,538,q),
(152,570,o),
(214,621,o),
(295,657,o),
(397,677,o),
(460,677,q),
(527,677,o),
(621,632,o),
(681,562,o),
(709,475,o),
(709,432,q),
(709,362,o),
(638,239,o),
(570,194,q),
(558,186,o),
(527,173,o),
(495,163,o),
(465,157,o),
(455,157,q),
(420,157,o),
(371,197,o),
(359,229,q),
(341,226,o),
(324,226,q),
(296,226,o),
(256,243,o),
(231,273,o),
(219,313,o),
(219,336,q),
(219,365,o),
(238,425,o),
(274,474,o),
(325,505,o),
(357,505,q)
);
}
);
width = 764;
},
{
hints = (
{
horizontal = 1;
options = 4;
origin = (0,69);
target = (0,60);
type = TTStem;
},
{
horizontal = 1;
options = 4;
origin = (0,7);
target = (0,54);
type = TTStem;
},
{
horizontal = 1;
origin = (0,69);
other1 = (0,15);
target = (0,7);
type = TTInterpolate;
},
{
horizontal = 1;
options = 4;
origin = (0,15);
target = (0,48);
type = TTStem;
},
{
horizontal = 1;
origin = (0,69);
other1 = (0,27);
target = (0,7);
type = TTInterpolate;
},
{
horizontal = 1;
options = 4;
origin = (0,27);
target = (0,36);
type = TTStem;
},
{
horizontal = 1;
options = 4;
origin = (0,15);
other1 = (0,32);
target = (0,27);
type = TTInterpolate;
},
{
horizontal = 1;
options = 8;
origin = (0,15);
other1 = (0,20);
target = (0,27);
type = TTInterpolate;
},
{
horizontal = 1;
options = 4;
origin = (0,20);
target = (0,41);
type = TTStem;
},
{
horizontal = 1;
origin = (0,69);
type = TTSnap;
},
{
horizontal = 1;
origin = (0,7);
type = TTSnap;
}
);
layerId = "92936CB7-D294-4857-B41D-63B9425360A1";
shapes = (
{
closed = 1;
nodes = (
(293,-71,o),
(121,24,o),
(41,202,o),
(53,323,qs),
(63,428,o),
(167,588,o),
(335,677,o),
(433,677,qs),
(526,677,o),
(660,604,o),
(720,473,o),
(709,391,qs),
(701,328,o),
(625,223,o),
(509,159,o),
(455,159,qs),
(409,159,o),
(366,192,o),
(359,229,q),
(341,226,o),
(324,226,qs),
(273,226,o),
(219,284,o),
(219,336,qs),
(219,378,o),
(256,458,o),
(319,505,o),
(357,505,qs),
(396,505,o),
(465,460,o),
(477,427,qs),
(484,408,o),
(467,371,o),
(434,363,o),
(420,377,qs),
(393,405,o),
(363,405,qs),
(326,405,o),
(317,368,qs),
(312,349,o),
(322,326,o),
(335,326,qs),
(349,326,o),
(369,332,qs),
(389,338,o),
(402,338,qs),
(437,338,o),
(461,288,o),
(451,237,q),
(522,249,o),
(601,334,o),
(607,403,qs),
(615,489,o),
(519,582,o),
(422,582,qs),
(309,582,o),
(172,443,o),
(159,316,qs),
(144,173,o),
(284,23,o),
(422,23,qs),
(493,23,o),
(551,38,qs),
(588,47,o),
(622,36,o),
(622,15,qs),
(622,-7,o),
(565,-47,o),
(467,-71,o),
(411,-71,qs)
);
}
);
width = 764;
}
);
unicode = 64;
}
{
glyphname = A;
kernLeft = A;
kernRight = A;
layers = (
{
anchors = (
{
name = bottom;
pos = (321,0);
},
{
name = bottomAttach;
pos = (630,-3);
},
{
name = top;
pos = (365,725);
}
);
layerId = master01;
shapes = (
{
closed = 1;
nodes = (
(-7,-32,o),
(93,-43,o),
(112,21,cs),
(173,230,o),
(257,438,o),
(357,646,c),
(335,644,l),
(376,549,o),
(411,451,o),
(441,348,cs),
(476,229,o),
(511,93,o),
(540,-8,cs),
(556,-65,o),
(643,-45,o),
(632,18,cs),
(617,104,o),
(575,251,o),
(538,374,cs),
(509,471,o),
(470,577,o),
(433,660,c),
(421,698,o),
(397,722,o),
(351,722,cs),
(321,722,o),
(283,706,o),
(268,661,c),
(165,471,o),
(74,255,o),
(15,46,cs)
);
},
{
closed = 1;
nodes = (
(270,208,o),
(402,216,o),
(537,221,c),
(521,311,l),
(395,306,o),
(268,298,o),
(145,283,c),
(139,193,l)
);
}
);
userData = {
com.typemytype.robofont.mark = (
0.619,
1,
0.6,
1
);
};
width = 652;
},
{
layerId = "8E39700C-2F6D-4A17-B4B3-161F49A69C4C";
shapes = (
{
closed = 1;
nodes = (
(154,149,o),
(125,67,o),
(111,19,q),
(104,-2,o),
(77,-22,o),
(62,-22,q,{
name = ab01;
}),
(43,-22,o),
(13,7,o),
(13,34,q),
(13,49,o),
(24,89,o),
(41,136,o),
(59,184,o),
(66,207,q),
(81,256,o),
(120,350,o),
(138,398,q),
(153,439,o),
(181,519,o),
(201,557,q),
(217,588,o),
(245,647,o),
(281,693,o),
(331,721,o),
(368,721,q,{
name = at01;
}),
(394,721,o),
(433,688,o),
(463,639,o),
(484,584,o),
(491,563,q),
(505,519,o),
(526,429,o),
(544,338,o),
(561,246,o),
(572,201,q),
(580,168,o),
(602,112,o),
(619,83,q),
(627,69,o),
(651,28,o),
(651,11,q),
(651,-12,o),
(622,-40,o),
(603,-40,q,{
name = ab02;
}),
(582,-40,o),
(557,-11,o),
(544,14,q),
(533,35,o),
(506,74,o),
(498,96,q),
(487,124,o),
(473,182,o),
(467,211,q),
(439,211,l),
(410,211,o),
(339,208,o),
(267,203,o),
(196,197,o),
(167,194,q,{
name = dv01;
})
);
},
{
closed = 1;
nodes = (
(220,330,o),
(213,311,o),
(208,301,q,{
name = dv02;
}),
(254,301,o),
(313,305,o),
(358,308,o),
(400,311,o),
(430,311,q),
(447,311,l),
(442,343,o),
(430,401,o),
(424,430,q),
(419,451,o),
(408,502,o),
(391,553,o),
(370,600,o),
(355,617,q,{
name = sv01;
}),
(329,590,o),
(291,522,o),
(262,450,o),
(237,375,o),
(224,340,q)
);
}
);
width = 652;
},
{
anchors = (
{
name = bottom;
pos = (321,0);
},
{
name = bottomAttach;
pos = (630,-3);
},
{
name = top;
pos = (365,725);
}
);
background = {
shapes = (
{
closed = 1;
nodes = (
(617,104,o),
(575,251,o),
(538,374,cs),
(509,471,o),
(470,577,o),
(433,660,c),
(421,698,o),
(397,722,o),
(351,722,cs),
(321,722,o),
(283,706,o),
(268,661,c),
(165,471,o),
(74,255,o),
(15,46,cs),
(3,2,o),
(29,-21,o),
(58,-21,cs),
(81,-21,o),
(104,-7,o),
(112,21,cs),
(129,79,o),
(148,138,o),
(168,196,c),
(271,207,o),
(373,214,o),
(478,219,c),
(500,138,o),
(521,58,o),
(540,-8,cs),
(546,-31,o),
(565,-42,o),
(583,-42,cs),
(610,-42,o),
(639,-20,o),
(632,18,cs)
);
},
{
closed = 1;
nodes = (
(245,400,o),
(293,510,o),
(345,621,c),
(382,533,o),
(413,443,o),
(441,348,cs),
(453,308,l),
(369,304,o),
(285,298,o),
(203,290,c)
);
}
);
};
hints = (
{
horizontal = 1;
origin = (0,14);
type = TTSnap;
},
{
horizontal = 1;
origin = (0,36);
type = TTSnap;
},
{
horizontal = 1;
options = 4;
origin = (0,23);
target = (1,5);
type = TTShift;
},
{
horizontal = 1;
options = 8;
origin = (0,36);
other1 = (0,5);
target = (0,23);
type = TTInterpolate;
},
{
horizontal = 1;
options = 4;
origin = (0,5);
target = (1,1);
type = TTStem;
}
);
layerId = "92936CB7-D294-4857-B41D-63B9425360A1";
shapes = (
{
closed = 1;
nodes = (
(568,-42,o),
(544,-24,o),
(540,-8,q),
(527,39,o),
(484,195,o),
(478,219,q,{
name = dv01;
}),
(391,215,o),
(239,204,o),
(168,196,q),
(152,151,o),
(124,63,o),
(112,21,q),
(106,1,o),
(76,-21,o),
(58,-21,q,{
name = ab01;
}),
(33,-21,o),
(7,16,o),
(15,46,q),
(58,197,o),
(188,513,o),
(268,661,q),
(278,690,o),
(323,722,o),
(351,722,q,{
name = at01;
}),
(414,722,o),
(433,660,q),
(461,597,o),
(516,446,o),
(538,374,q),
(557,311,o),
(588,204,o),
(611,115,o),
(627,44,o),
(632,18,q),
(637,-8,o),
(606,-42,o),
(583,-42,q,{
name = ab02;
})
);
},
{
closed = 1;
nodes = (
(325,302,o),
(453,308,q,{
name = dv02;
}),
(441,348,l),
(419,424,o),
(371,559,o),
(345,621,q,{
name = sv01;
}),
(302,530,o),
(232,366,o),
(203,290,q)
);
}
);
userData = {
com.typemytype.robofont.mark = (
0.656,
1,
0.6,
1
);
};
width = 652;
}
);
unicode = 65;
}
{
glyphname = B;
kernLeft = B;
kernRight = B;
layers = (
{
anchors = (
{
name = bottom;
pos = (341,-13);
},
{
name = top;
pos = (337,725);
}
);
background = {
shapes = (
{
closed = 1;
nodes = (
(475,-32,o),
(600,49,o),
(617,172,cs),
(636,310,o),
(530,398,o),
(350,423,c),
(348,397,l),
(502,405,o),
(590,460,o),
(600,548,cs),
(616,695,o),
(481,747,o),
(354,747,cs),
(221,747,o),
(103,707,o),
(55,664,cs),
(20,633,o),
(39,588,o),
(100,607,cs),
(172,630,o),
(249,653,o),
(335,653,cs),
(435,653,o),
(497,627,o),
(493,558,cs),
(489,495,o),
(419,459,o),
(322,446,cs),
(268,439,o),
(261,373,o),
(321,358,cs),
(465,322,o),
(516,277,o),
(506,188,cs),
(497,106,o),
(413,60,o),
(337,60,cs),
(282,60,o),
(242,81,o),
(227,86,cs),
(166,107,o),
(136,56,o),
(178,20,cs),
(212,-9,o),
(276,-32,o),
(348,-32,cs)
);
},
{
closed = 1;
nodes = (
(144,440,o),
(132,236,o),
(122,79,cs),
(118,14,o),
(214,11,o),
(222,84,cs),
(237,222,o),
(252,474,o),
(246,658,c),
(143,634,l)
);
}
);
};
hints = (
{
horizontal = 1;
options = 4;
origin = (0,24);
target = (0,24,1,2);
type = TTShift;
},
{
horizontal = 1;
origin = (0,42);
other1 = (0,36);
target = (0,12);
type = TTInterpolate;
},
{
horizontal = 1;
options = 4;
origin = (0,12);
target = (0,24);
type = TTStem;
},
{
horizontal = 1;
options = 4;
origin = (0,51);
target = (0,42);
type = TTStem;
},
{
horizontal = 1;
options = 4;
origin = (0,36);
target = (0,30);
type = TTStem;
},
{
horizontal = 1;
options = 4;
origin = (0,36);
other1 = (0,5,0,9);
target = (0,30);
type = TTInterpolate;
}
);
layerId = master01;
shapes = (
{
closed = 1;
nodes = (
(475,-32,o),
(600,49,o),
(617,172,cs),
(636,310,o),
(530,398,o),
(350,423,c),
(348,397,l),
(502,405,o),
(590,460,o),
(600,548,cs),
(616,695,o),
(481,747,o),
(354,747,cs),
(221,747,o),
(103,707,o),
(55,664,cs),
(43,654,o),
(38,642,o),
(38,631,cs),
(38,610,o),
(60,594,o),
(100,607,cs),
(172,630,o),
(249,653,o),
(335,653,cs),
(435,653,o),
(497,627,o),
(493,558,cs),
(489,495,o),
(419,454,o),
(291,442,cs),
(230,436,o),
(206,416,o),
(206,388,cs),
(206,358,o),
(235,338,o),
(321,358,c),
(465,322,o),
(516,277,o),
(506,188,cs),
(497,106,o),
(413,60,o),
(337,60,cs),
(282,60,o),
(242,81,o),
(227,86,cs),
(166,107,o),
(136,56,o),
(178,20,cs),
(212,-9,o),
(276,-32,o),
(348,-32,cs)
);
},
{
closed = 1;
nodes = (
(144,440,o),
(132,236,o),
(122,79,cs),
(118,14,o),
(214,11,o),
(222,84,cs),
(237,222,o),
(252,474,o),
(246,658,c),
(143,634,l)
);
}
);
width = 666;
},
{
layerId = "8E39700C-2F6D-4A17-B4B3-161F49A69C4C";
shapes = (
{
closed = 1;
nodes = (
(497,601,o),
(461,626,o),
(408,641,o),
(350,648,o),
(329,648,q),
(289,648,o),
(243,640,q),
(249,601,o),
(249,562,q),
(249,514,o),
(238,420,o),
(238,372,q),
(238,364,o),
(239,336,o),
(239,301,o),
(240,262,o),
(240,243,q),
(240,176,o),
(222,114,o),
(187,114,q),
(163,114,o),
(137,143,o),
(125,183,o),
(120,225,o),
(116,239,q),
(108,268,o),
(86,324,o),
(77,353,q),
(71,372,o),
(52,427,o),
(35,488,o),
(23,551,o),
(23,579,q),
(23,599,o),
(31,635,o),
(40,649,q),
(57,676,o),
(130,713,o),
(217,737,o),
(306,748,o),
(341,748,q),
(395,748,o),
(490,721,o),
(559,674,o),
(599,611,o),
(599,575,q),
(599,533,o),
(538,444,o),
(475,414,q),
(493,404,l),
(544,373,o),
(615,280,o),
(615,220,q),
(615,171,o),
(566,79,o),
(488,7,o),
(390,-36,o),
(341,-36,q),
(323,-36,o),
(261,-30,o),
(202,-11,o),
(158,23,o),
(158,51,q),
(158,74,o),
(186,101,o),
(205,101,q),
(216,101,o),
(241,89,o),
(249,79,q),
(269,71,o),
(310,63,o),
(326,63,q),
(365,63,o),
(435,93,o),
(486,140,o),
(516,197,o),
(516,224,q),
(516,253,o),
(485,292,o),
(438,320,o),
(383,342,o),
(336,366,o),
(305,396,o),
(305,418,q),
(305,437,o),
(333,462,o),
(376,482,o),
(426,501,o),
(469,525,o),
(497,558,o),
(497,583,q)
);
},
{
closed = 1;
nodes = (
(147,484,o),
(151,533,o),
(151,557,q),
(151,582,o),
(148,608,q),
(134,602,o),
(124,588,o),
(124,569,q),
(124,546,o),
(136,489,o),
(145,460,q)
);
}
);
width = 666;
}
);
unicode = 66;
}
{
glyphname = C;
kernLeft = C;
kernRight = C;
layers = (
{
anchors = (
{
name = bottom;
pos = (336,0);
},
{
name = top;
pos = (351,715);
}
);
hints = (
{
horizontal = 1;
options = 4;
origin = (0,2);
target = (0,11);
type = TTStem;
},
{
horizontal = 1;
options = 4;
origin = (0,23);
target = (0,20);
type = TTStem;
},
{
horizontal = 1;
origin = (0,23);
type = TTSnap;
},
{
horizontal = 1;
origin = (0,23);
settings = {
deltaV = {
"{100, 0, 0, 0, 0, 0}" = {
"11" = 8;
"12" = 8;
"15" = 8;
"18" = 8;
};
};
};
type = TTDelta;
}
);
layerId = master01;
shapes = (
{
closed = 1;
nodes = (
(34,102,o),
(209,-27,o),
(404,-27,cs),
(436,-27,o),
(473,-22,o),
(503,-7,cs),
(550,16,o),
(554,76,o),
(492,72,cs),
(467,70,o),
(437,67,o),
(412,67,cs),
(262,67,o),
(145,160,o),
(145,314,cs),
(145,400,o),
(178,473,o),
(234,521,cs),
(286,565,o),
(358,591,o),
(439,609,cs),
(504,623,o),
(495,697,o),
(423,697,cs),
(346,697,o),
(245,666,o),
(166,601,cs),
(88,537,o),
(34,438,o),
(34,317,cs)
);
}
);
width = 576;
},
{
layerId = "8E39700C-2F6D-4A17-B4B3-161F49A69C4C";
shapes = (
{
closed = 1;
nodes = (
(456,702,o),
(484,670,o),
(484,653,q),
(484,639,o),
(468,606,o),
(446,603,q),
(399,597,o),
(328,579,o),
(271,553,o),
(224,517,o),
(202,492,q),
(174,460,o),
(138,368,o),
(138,327,q),
(138,263,o),
(182,167,o),
(257,104,o),
(356,73,o),
(411,73,q),
(483,73,l),
(510,73,o),
(537,40,o),
(537,23,q),
(537,6,o),
(508,-27,o),
(483,-27,q),
(411,-27,l),
(335,-27,o),
(199,20,o),
(97,110,o),
(37,240,o),
(37,322,q),
(37,403,o),
(113,556,o),
(185,613,q),
(242,657,o),
(374,701,o),
(430,702,q)
);
}
);
width = 576;
}
);
unicode = 67;
}
{
glyphname = D;
kernRight = D;
layers = (
{
anchors = (
{
name = bottom;
pos = (316,0);
},
{
name = top;
pos = (389,725);
}
);
layerId = master01;
shapes = (
{
closed = 1;
nodes = (
(544,628,o),
(642,537,o),
(626,363,cs),
(608,172,o),
(435,84,o),
(173,65,cs),
(137,62,o),
(124,46,o),
(124,25,cs),
(124,-2,o),
(145,-24,o),
(184,-24,cs),
(360,-24,o),
(716,63,o),
(739,362,cs),
(756,584,o),
(599,725,o),
(333,725,cs),
(224,725,o),
(130,705,o),
(80,680,cs),
(50,665,o),
(36,650,o),
(36,628,cs),
(36,600,o),
(57,580,o),
(98,593,cs),
(179,618,o),
(259,628,o),
(341,628,cs)
);
},
{
closed = 1;
nodes = (
(154,505,o),
(147,286,o),
(158,116,cs),
(161,65,o),
(181,50,o),
(203,50,cs),
(245,50,o),
(257,85,o),
(259,117,cs),
(262,173,o),
(254,224,o),
(256,335,cs),
(258,426,o),
(261,534,o),
(269,664,c),
(167,654,l)
);
}
);
userData = {
com.typemytype.robofont.mark = (
0.619,
1,
0.6,
1
);
};
width = 782;
},
{
layerId = "8E39700C-2F6D-4A17-B4B3-161F49A69C4C";
shapes = (
{
closed = 1;
nodes = (
(445,619,o),
(376,628,o),
(341,628,q,{
name = sv01;
}),
(328,628,o),
(303,627,o),
(290,626,q),
(291,624,o),
(291,620,q),
(287,547,o),
(281,401,o),
(281,328,q),
(281,312,o),
(283,281,o),
(283,265,q),
(283,246,o),
(277,209,o),
(268,192,q),
(268,161,l),
(268,148,o),
(265,121,o),
(255,99,o),
(237,85,o),
(221,85,q,{
name = sv03;
}),
(188,85,o),
(152,132,o),
(131,187,q),
(114,231,o),
(89,326,o),
(81,361,q),
(73,393,o),
(63,458,o),
(58,491,q),
(52,534,l),
(49,552,o),
(44,577,o),
(39,596,o),
(36,613,o),
(36,624,q),
(36,675,o),
(181,725,o),
(333,725,q,{
name = at01;
}),
(417,725,o),
(574,684,o),
(633,635,q),
(681,595,o),
(741,481,o),
(741,406,q),
(741,331,o),
(685,217,o),
(644,172,q),
(595,118,o),
(474,43,o),
(349,-3,o),
(231,-24,o),
(184,-24,q,{
name = ab01;
}),
(155,-24,o),
(124,5,o),
(124,25,q),
(124,42,o),
(147,74,o),
(173,76,q,{
name = sv02;
}),
(208,78,o),
(271,85,o),
(333,99,o),
(394,120,o),
(427,136,q),
(473,158,o),
(551,218,o),
(607,287,o),
(638,362,o),
(638,400,q),
(638,468,o),
(553,580,o),
(477,608,q)
);
},
{
closed = 1;
nodes = (
(185,421,o),
(186,550,o),
(190,616,q),
(179,614,o),
(152,608,o),
(142,605,q),
(153,542,o),
(168,419,o),
(184,355,q)
);
}
);
width = 782;
},
{
anchors = (
{
name = bottom;
pos = (316,0);
},
{
name = top;
pos = (389,725);
}
);
hints = (
{
horizontal = 1;
options = 4;
origin = (0,28);
target = (0,4);
type = TTStem;
},
{
horizontal = 1;
options = 4;
origin = (0,20);
target = (1,5);
type = TTStem;
},
{
horizontal = 1;
options = 4;
origin = (1,5);
target = (0,9);
type = TTShift;
},
{
horizontal = 1;
options = 4;
origin = (0,4);
target = (1,14);
type = TTShift;
}
);
layerId = "92936CB7-D294-4857-B41D-63B9425360A1";
shapes = (
{
closed = 1;
nodes = (
(157,-24,o),
(124,3,o),
(124,25,qs),
(124,61,o),
(173,65,q),
(160,82,o),
(158,116,qs),
(151,218,o),
(154,482,o),
(163,610,q,{
name = sv03;
}),
(125,601,o),
(70,585,o),
(36,604,o),
(36,628,qs),
(36,644,o),
(57,669,o),
(80,680,qs),
(121,700,o),
(257,725,o),
(333,725,qs),
(464,725,o),
(654,637,o),
(748,472,o),
(739,362,qs),
(730,247,o),
(581,75,o),
(316,-24,o),
(184,-24,qs)
);
},
{
closed = 1;
nodes = (
(424,96,o),
(615,242,o),
(626,363,qs),
(638,493,o),
(493,628,o),
(341,628,qs),
(303,628,o),
(267,625,q),
(259,520,o),
(256,335,qs),
(255,277,o),
(260,144,o),
(258,88,o),
(247,73,q,{
name = sv04;
})
);
}
);
userData = {
com.typemytype.robofont.mark = (
0.656,
1,
0.6,
1
);
};
width = 782;
}
);
unicode = 68;
}
{
glyphname = E;
kernLeft = E;
kernRight = E;
layers = (
{
anchors = (
{
name = bottom;
pos = (291,0);
},
{
name = bottomAttach;
pos = (512,32);
},
{
name = top;
pos = (300,743);
}
);
layerId = master01;
shapes = (
{
closed = 1;
nodes = (
(121,649,l),
(224,648,o),
(370,641,o),
(475,641,cs),
(512,641,o),
(529,661,o),
(529,687,cs),
(529,715,o),
(507,735,o),
(475,737,cs),
(395,743,o),
(216,743,o),
(151,743,cs),
(106,743,o),
(73,727,o),
(70,678,cs),
(60,491,o),
(56,223,o),
(59,75,cs),
(60,33,o),
(67,-8,o),
(134,-8,cs),
(245,-8,o),
(383,-6,o),
(458,-2,cs),
(495,0,o),
(518,20,o),
(518,50,cs),
(518,80,o),
(495,96,o),
(457,96,cs),
(391,96,o),
(254,92,o),
(118,85,c),
(164,32,l),
(153,224,o),
(167,486,o),
(172,684,c)
);
},
{
closed = 1;
nodes = (
(393,338,o),
(416,357,o),
(416,385,cs),
(416,411,o),
(396,429,o),
(362,431,cs),
(296,435,o),
(187,436,o),
(117,432,c),
(117,341,l),
(199,339,o),
(286,335,o),
(362,337,cs)
);
}
);
userData = {
com.typemytype.robofont.mark = (
0.619,
1,
0.6,
1
);
};
width = 566;
},
{
layerId = "8E39700C-2F6D-4A17-B4B3-161F49A69C4C";
shapes = (
{
closed = 1;
nodes = (
(70,715,o),
(136,744,o),
(208,744,q,{
name = at01;
}),
(274,744,o),
(407,737,o),
(475,737,q,{
name = at02;
}),
(499,737,o),
(529,704,o),
(529,687,q),
(529,670,o),
(499,637,o),
(475,637,q,{
name = sv01;
}),
(396,637,o),
(247,643,o),
(170,644,q,{
name = sv02;
}),
(168,592,o),
(163,489,o),
(161,437,q,{
name = dv02;
}),
(211,436,o),
(311,435,o),
(362,435,q),
(385,435,o),
(416,406,o),
(416,385,q),
(416,364,o),
(385,335,o),
(362,335,q),
(311,335,o),
(209,336,o),
(158,337,q,{
name = dv01;
}),
(156,296,o),
(156,216,o),
(156,175,q),
(156,154,o),
(158,112,o),
(160,91,q,{
name = sv03;
}),
(198,91,o),
(280,93,o),
(360,96,o),
(434,98,o),
(464,98,q,{
name = sv04;
}),
(487,98,o),
(518,69,o),
(518,48,q),
(518,27,o),
(487,-2,o),
(464,-2,q,{
name = ab01;
}),
(433,-2,o),
(353,-4,o),
(262,-6,o),
(165,-8,o),
(117,-8,q,{
name = ab02;
}),
(78,-8,o),
(56,85,o),
(56,170,q),
(56,232,o),
(60,365,o),
(66,497,o),
(70,623,o),
(70,678,q)
);
}
);
width = 566;
},
{
anchors = (
{
name = bottom;
pos = (291,0);
},
{
name = bottomAttach;
pos = (512,32);
},
{
name = top;
pos = (300,743);
}
);
background = {
shapes = (
{
closed = 1;
nodes = (
(245,-8,o),
(383,-6,o),
(458,-2,cs),
(495,0,o),
(518,20,o),
(518,50,cs),
(518,80,o),
(495,96,o),
(457,96,cs),
(398,96,o),
(282,93,o),
(162,87,c,{
name = sv02;
}),
(159,165,o),
(160,252,o),
(162,340,c),
(230,338,o),
(300,335,o),
(362,337,cs),
(393,338,o),
(416,357,o),
(416,385,cs),
(416,411,o),
(396,429,o),
(362,431,cs),
(309,434,o),
(230,435,o),
(164,434,c),
(166,508,o),
(169,581,o),
(171,648,c,{
name = sv01;
}),
(268,646,o),
(386,641,o),
(475,641,cs),
(512,641,o),
(529,661,o),
(529,687,cs),
(529,715,o),
(507,735,o),
(475,737,cs),
(395,743,o),
(216,743,o),
(151,743,cs),
(106,743,o),
(73,727,o),
(70,678,cs),
(60,491,o),
(56,223,o),
(59,75,cs),
(60,33,o),
(67,-8,o),
(134,-8,cs)
);
}
);
};
hints = (
{
horizontal = 1;
options = 4;
origin = (0,38);
target = (0,32);
type = TTStem;
},
{
horizontal = 1;
options = 4;
origin = (0,7);
target = (0,17);
type = TTStem;
},
{
horizontal = 1;
options = 8;
origin = (0,38);
other1 = (0,26);
target = (0,7);
type = TTInterpolate;
},
{
horizontal = 1;
options = 4;
origin = (0,26);
target = (0,20);
type = TTStem;
}
);
layerId = "92936CB7-D294-4857-B41D-63B9425360A1";
shapes = (
{
closed = 1;
nodes = (
(96,-8,o),
(60,28,o),
(59,75,qs),
(57,193,o),
(63,545,o),
(70,678,qs),
(73,743,o),
(151,743,qs),
(395,743,o),
(475,737,qs),
(499,735,o),
(529,708,o),
(529,687,qs),
(529,666,o),
(501,641,o),
(475,641,qs),
(387,641,o),
(171,648,q,{
name = sv01;
}),
(164,434,l),
(278,437,o),
(362,431,qs),
(387,429,o),
(416,405,o),
(416,385,qs),
(416,364,o),
(385,338,o),
(362,337,qs),
(264,334,o),
(162,340,q),
(158,181,o),
(162,87,q,{
name = sv02;
}),
(342,96,o),
(457,96,qs),
(486,96,o),
(518,72,o),
(518,50,qs),
(518,27,o),
(486,-1,o),
(458,-2,qs),
(346,-8,o),
(134,-8,qs)
);
}
);
userData = {
com.typemytype.robofont.mark = (
0.656,
1,
0.6,
1
);
};
width = 566;
}
);
unicode = 69;
}
{
glyphname = F;
kernLeft = F;
kernRight = F;
layers = (
{
anchors = (
{
name = bottom;
pos = (162,5);
},
{
name = top;
pos = (338,725);
}
);
layerId = master01;
shapes = (
{
closed = 1;
nodes = (
(190,635,o),
(432,633,o),
(544,638,cs),
(580,640,o),
(597,659,o),
(597,684,cs),
(597,714,o),
(579,735,o),
(527,734,cs),
(389,730,o),
(258,727,o),
(112,734,cs),
(39,737,o),
(34,650,o),
(100,644,cs)
);
},
{
closed = 1;
nodes = (
(466,309,o),
(487,328,o),
(487,359,cs),
(487,392,o),
(466,407,o),
(425,409,cs),
(376,411,o),
(258,408,o),
(174,403,c),
(174,311,l),
(259,313,o),
(396,309,o),
(425,309,cs)
);
},
{
closed = 1;
nodes = (
(192,-14,o),
(211,11,o),
(210,51,cs),
(208,173,o),
(214,428,o),
(229,665,c),
(127,676,l),
(113,435,o),
(103,171,o),
(106,44,cs),
(107,8,o),
(128,-14,o),
(159,-14,cs)
);
}
);
userData = {
com.typemytype.robofont.mark = (
0.619,
1,
0.6,
1
);
};
width = 625;
},
{
layerId = "8E39700C-2F6D-4A17-B4B3-161F49A69C4C";
shapes = (
{
closed = 1;
nodes = (
(74,304,o),
(45,333,o),
(45,354,q),
(45,375,o),
(74,404,o),
(94,404,q),
(126,404,l,{
name = sv01;
}),
(125,434,o),
(121,495,o),
(121,526,q),
(121,555,o),
(128,610,o),
(131,639,q),
(123,640,o),
(107,640,o),
(100,640,q,{
name = sv02;
}),
(80,640,o),
(52,667,o),
(52,687,q),
(52,710,o),
(83,741,o),
(105,741,q,{
name = at02;
}),
(165,741,o),
(282,730,o),
(342,730,q,{
name = at01;
}),
(396,730,o),
(513,734,o),
(559,734,q),
(584,734,o),
(613,701,o),
(613,684,q),
(613,667,o),
(584,634,o),
(559,634,q),
(506,634,o),
(402,630,o),
(349,630,q,{
name = sv03;
}),
(320,630,o),
(262,632,o),
(231,634,q),
(226,603,o),
(221,544,o),
(221,515,q),
(221,487,o),
(224,433,o),
(225,405,q,{
name = dv02;
}),
(277,407,o),
(380,409,o),
(433,409,q),
(458,409,o),
(487,380,o),
(487,359,q),
(487,338,o),
(458,309,o),
(433,309,q),
(380,309,o),
(276,307,o),
(223,305,q,{
name = dv01;
}),
(221,237,o),
(212,108,o),
(212,40,q),
(212,18,o),
(185,-14,o),
(161,-14,q,{
name = ab01;
}),
(141,-14,o),
(112,17,o),
(112,44,q),
(112,110,o),
(120,238,o),
(124,304,q,{
name = sv04;
}),
(94,304,l)
);
}
);
width = 625;
},
{
anchors = (
{
name = bottom;
pos = (162,5);
},
{
name = top;
pos = (338,725);
}
);
background = {
shapes = (
{
closed = 1;
nodes = (
(192,-14,o),
(211,11,o),
(210,51,cs),
(209,111,o),
(210,204,o),
(213,312,c),
(296,312,o),
(400,309,o),
(425,309,cs),
(466,309,o),
(487,328,o),
(487,359,cs),
(487,392,o),
(466,407,o),
(425,409,cs),
(384,411,o),
(294,409,o),
(216,405,c),
(219,480,o),
(223,560,o),
(227,637,c),
(334,634,o),
(469,636,o),
(544,638,cs),
(580,639,o),
(597,659,o),
(597,684,cs),
(597,714,o),
(579,735,o),
(527,734,cs),
(389,731,o),
(258,728,o),
(112,734,cs),
(39,737,o),
(34,650,o),
(100,644,c),
(107,643,o),
(116,643,o),
(125,642,c,{
name = sv02;
}),
(112,411,o),
(103,165,o),
(106,44,cs),
(107,8,o),
(128,-14,o),
(159,-14,cs)
);
}
);
};
hints = (
{
horizontal = 1;
origin = (0,40);
type = TTSnap;
},
{
horizontal = 1;
options = 4;
origin = (0,14);
target = (0,20);
type = TTStem;
},
{
horizontal = 1;
options = 4;
origin = (0,20);
target = (0,5);
type = TTShift;
},
{
horizontal = 1;
options = 8;
origin = (0,40);
other1 = (0,31);
target = (0,14);
type = TTInterpolate;
},
{
horizontal = 1;
options = 4;
origin = (0,31);
target = (0,26);
type = TTStem;
}
);
layerId = "92936CB7-D294-4857-B41D-63B9425360A1";
shapes = (
{
closed = 1;
nodes = (
(136,-14,o),
(107,17,o),
(106,44,qs),
(104,128,o),
(114,452,o),
(125,642,q,{
name = sv02;
}),
(100,644,l),
(76,646,o),
(51,676,o),
(57,713,o),
(89,735,o),
(112,734,qs),
(256,730,o),
(388,731,o),
(527,734,qs),
(562,735,o),
(597,710,o),
(597,684,qs),
(597,664,o),
(569,639,o),
(544,638,qs),
(363,633,o),
(227,637,q),
(220,493,o),
(216,405,q),
(358,412,o),
(425,409,qs),
(457,407,o),
(487,383,o),
(487,335,o),
(455,309,o),
(425,309,qs),
(397,309,o),
(373,310,qs),
(285,312,o),
(213,312,q),
(208,147,o),
(210,51,qs),
(211,21,o),
(184,-14,o),
(159,-14,qs)
);
}
);
userData = {
com.typemytype.robofont.mark = (
0.656,
1,
0.6,
1
);
};
width = 625;
}
);
unicode = 70;
}
{
glyphname = G;
kernLeft = G;
kernRight = G;
layers = (
{
anchors = (
{
name = bottom;
pos = (248,-5);
},
{
name = top;
pos = (452,738);
}
);
layerId = master01;
shapes = (
{
closed = 1;
nodes = (
(352,-25,o),
(437,33,o),
(501,128,c),
(511,41,o),
(578,-37,o),
(646,-37,cs),
(707,-37,o),
(709,22,o),
(673,46,cs),
(598,96,o),
(582,138,o),
(590,268,cs),
(592,306,o),
(576,328,o),
(538,335,cs),
(499,342,o),
(421,349,o),
(347,346,cs),
(314,345,o),
(292,325,o),
(292,298,cs),
(292,272,o),
(308,253,o),
(345,252,cs),
(413,250,o),
(477,250,o),
(545,249,c),
(482,277,l),
(453,176,o),
(359,69,o),
(246,69,cs),
(149,69,o),
(130,203,o),
(187,374,cs),
(238,526,o),
(341,655,o),
(448,655,cs),
(496,655,o),
(538,630,o),
(575,609,cs),
(622,582,o),
(658,651,o),
(618,687,cs),
(573,727,o),
(512,749,o),
(451,749,cs),
(271,749,o),
(142,572,o),
(83,394,cs),
(-7,123,o),
(78,-25,o),
(246,-25,cs)
);
}
);
userData = {
com.typemytype.robofont.mark = (
0.619,
1,
0.6,
1
);
};
width = 728;
},
{
layerId = "8E39700C-2F6D-4A17-B4B3-161F49A69C4C";
shapes = (
{
closed = 1;
nodes = (
(639,677,o),
(639,650,q),
(639,632,o),
(611,603,o),
(588,603,q),
(574,603,o),
(545,617,o),
(511,633,o),
(472,647,o),
(448,647,q,{
name = sv01;
}),
(410,647,o),
(346,615,o),
(293,564,o),
(250,501,o),
(232,470,q),
(217,444,o),
(189,376,o),
(167,300,o),
(154,221,o),
(154,184,q),
(154,158,o),
(169,118,o),
(195,89,o),
(226,74,o),
(243,74,q,{
name = sv02;
}),
(287,74,o),
(364,109,o),
(426,166,o),
(471,239,o),
(482,277,q),
(482,300,o),
(513,333,o),
(536,333,q),
(559,333,o),
(591,302,o),
(591,279,q),
(591,272,o),
(590,268,q),
(590,235,o),
(589,197,o),
(589,180,q),
(589,139,o),
(625,79,o),
(655,58,q,{
name = sv03;
}),
(671,56,o),
(698,29,o),
(698,8,q),
(698,-10,o),
(674,-40,o),
(651,-40,q,{
name = ab02;
}),
(625,-40,o),
(577,-13,o),
(536,29,o),
(506,81,o),
(499,107,q),
(477,80,o),
(423,32,o),
(358,-4,o),
(286,-25,o),
(246,-25,q,{
name = ab01;
}),
(206,-25,o),
(135,1,o),
(81,52,o),
(50,126,o),
(50,173,q),
(50,246,o),
(82,390,o),
(140,521,o),
(221,634,o),
(270,678,q),
(306,710,o),
(400,749,o),
(451,749,q,{
name = at01;
}),
(497,749,o),
(574,717,o),
(601,700,q)
);
}
);
width = 728;
},
{
anchors = (
{
name = bottom;
pos = (248,-5);
},
{
name = top;
pos = (452,738);
}
);
background = {
shapes = (
{
closed = 1;
nodes = (
(707,-37,o),
(709,22,o),
(673,46,cs),
(598,96,o),
(583,138,o),
(590,268,cs),
(592,306,o),
(576,328,o),
(538,335,cs),
(499,342,o),
(421,348,o),
(347,346,cs),
(314,345,o),
(292,325,o),
(292,298,cs),
(292,272,o),
(308,253,o),
(345,252,cs),
(389,251,o),
(430,250,o),
(473,250,c),
(436,158,o),
(349,69,o),
(246,69,cs),
(149,69,o),
(130,203,o),
(187,374,cs),
(238,526,o),
(341,655,o),
(448,655,cs),
(496,655,o),
(538,630,o),
(575,609,cs),
(622,582,o),
(658,651,o),
(618,687,cs),
(573,727,o),
(512,749,o),
(451,749,cs),
(271,749,o),
(142,572,o),
(83,394,cs),
(-7,123,o),
(78,-25,o),
(246,-25,cs),
(352,-25,o),
(437,33,o),
(501,128,c),
(511,41,o),
(578,-37,o),
(646,-37,cs)
);
}
);
};
hints = (
{
horizontal = 1;
options = 4;
origin = (0,5);
target = (0,27);
type = TTStem;
},
{
horizontal = 1;
origin = (0,51);
type = TTSnap;
},
{
horizontal = 1;
options = 4;
origin = (0,11);
target = (0,21);
type = TTStem;
},
{
horizontal = 1;
origin = (0,5);
other1 = (0,37);
target = (0,11);
type = TTInterpolate;
},
{
horizontal = 1;
options = 4;
origin = (0,37);
target = (0,32);
type = TTStem;
}
);
layerId = "92936CB7-D294-4857-B41D-63B9425360A1";
shapes = (
{
closed = 1;
nodes = (
(596,-37,o),
(509,62,o),
(501,128,q),
(450,53,o),
(322,-25,o),
(246,-25,qs,{
name = ab01;
}),
(111,-25,o),
(20,203,o),
(83,394,qs),
(136,554,o),
(333,749,o),
(451,749,qs,{
name = at01;
}),
(497,749,o),
(584,717,o),
(618,687,qs),
(637,670,o),
(634,621,o),
(597,596,o),
(575,609,qs),
(535,633,o),
(476,655,o),
(448,655,qs,{
name = sv01;
}),
(373,655,o),
(228,497,o),
(187,374,qs),
(143,242,o),
(175,69,o),
(246,69,qs,{
name = sv02;
}),
(316,69,o),
(442,172,o),
(473,250,q),
(433,250,o),
(345,252,qs,{
name = dv02;
}),
(319,253,o),
(292,277,o),
(292,318,o),
(322,345,o),
(347,346,qs,{
name = dv01;
}),
(397,347,o),
(505,341,o),
(538,335,qs),
(593,325,o),
(590,268,qs,{
name = sv03;
}),
(586,199,o),
(598,124,o),
(634,72,o),
(673,46,qs),
(687,37,o),
(699,6,o),
(691,-22,o),
(665,-37,o),
(646,-37,qs,{
name = ab02;
})
);
}
);
userData = {
com.typemytype.robofont.mark = (
0.656,
1,
0.6,
1
);
};
width = 728;
}
);
unicode = 71;
}
{
glyphname = H;
layers = (
{
anchors = (
{
name = bottom;
pos = (284,0);
},
{
name = top;
pos = (309,735);
}
);
hints = (
{
horizontal = 1;
origin = (1,11);
type = TTSnap;
},
{
horizontal = 1;
origin = (0,2);
type = TTSnap;
},
{
horizontal = 1;
origin = (1,2);
type = TTSnap;
},
{
horizontal = 1;
origin = (0,11);
type = TTSnap;
},
{
horizontal = 1;
origin = (1,11);
other1 = (2,2);
target = (1,2);
type = TTInterpolate;
},
{
horizontal = 1;
options = 4;
origin = (2,2);
target = (2,3);
type = TTStem;
}
);
layerId = master01;
shapes = (
{
closed = 1;
nodes = (
(410,-16,o),
(432,-35,o),
(459,-35,cs),
(487,-35,o),
(508,-18,o),
(510,17,cs),
(522,240,o),
(531,464,o),
(534,687,cs),
(535,719,o),
(510,737,o),
(484,737,cs),
(455,737,o),
(432,719,o),
(431,686,cs),
(428,469,o),
(425,245,o),
(412,23,cs)
);
},
{
closed = 1;
nodes = (
(181,707,o),
(160,728,o),
(129,728,cs),
(101,728,o),
(79,707,o),
(79,676,cs),
(79,460,o),
(71,243,o),
(67,27,cs),
(66,-4,o),
(89,-25,o),
(117,-25,cs),
(145,-25,o),
(164,-5,o),
(165,26,cs),
(174,242,o),
(180,460,o),
(181,668,cs)
);
},
{
closed = 1;
nodes = (
(233,323,o),
(348,328,o),
(462,330,c),
(462,423,l),
(350,423,o),
(237,420,o),
(125,414,c),
(119,317,l)
);
}
);
width = 604;
},
{
layerId = "8E39700C-2F6D-4A17-B4B3-161F49A69C4C";
shapes = (
{
closed = 1;
nodes = (
(434,712,o),
(466,737,o),
(485,737,q),
(504,737,o),
(534,711,o),
(534,687,q),
(534,518,o),
(513,180,o),
(513,17,q),
(513,-9,o),
(483,-35,o),
(462,-35,q),
(442,-35,o),
(413,-6,o),
(413,23,q),
(413,99,o),
(419,251,o),
(422,328,q),
(359,327,o),
(235,320,o),
(172,319,q),
(170,245,o),
(167,101,o),
(167,27,q),
(167,4,o),
(138,-25,o),
(117,-25,q),
(96,-25,o),
(67,4,o),
(67,27,q),
(67,192,o),
(79,511,o),
(79,676,q),
(79,699,o),
(108,728,o),
(129,728,q),
(150,728,o),
(179,699,o),
(179,676,q),
(179,611,o),
(177,484,o),
(175,419,q),
(238,421,o),
(364,427,o),
(427,428,q),
(429,495,o),
(434,624,o),
(434,691,q)
);
}
);
width = 604;
}
);
unicode = 72;
}
{
glyphname = I;
kernLeft = I;
kernRight = I;
layers = (
{
anchors = (
{
name = bottom;
pos = (131,0);
},
{
name = bottomAttach;
pos = (173,5);
},
{
name = top;
pos = (173,725);
}
);
hints = (
{
horizontal = 1;
origin = (0,8);
type = TTSnap;
},
{
horizontal = 1;
origin = (0,16);
type = TTSnap;
}
);
layerId = master01;
shapes = (
{
closed = 1;
nodes = (
(98,470,o),
(84,289,o),
(84,87,cs),
(84,71,o),
(84,56,o),
(86,41,cs),
(90,2,o),
(107,-17,o),
(132,-17,cs),
(160,-17,o),
(182,2,o),
(183,41,cs),
(189,264,o),
(201,451,o),
(209,667,cs),
(210,700,o),
(187,722,o),
(160,722,cs),
(128,722,o),
(110,699,o),
(109,673,cs)
);
}
);
width = 297;
},
{
layerId = "8E39700C-2F6D-4A17-B4B3-161F49A69C4C";
shapes = (
{
closed = 1;
nodes = (
(109,693,o),
(139,722,o),
(160,722,q),
(180,722,o),
(209,693,o),
(209,672,q),
(209,589,o),
(201,431,o),
(191,275,o),
(183,118,o),
(183,35,q),
(183,9,o),
(153,-17,o),
(132,-17,q),
(112,-17,o),
(83,12,o),
(83,41,q),
(83,124,o),
(91,281,o),
(101,436,o),
(109,593,o),
(109,676,q)
);
}
);
width = 297;
}
);
unicode = 73;
}
{
glyphname = J;
kernLeft = J;
kernRight = J;
layers = (
{
anchors = (
{
name = bottom;
pos = (283,-16);
},
{
name = top;
pos = (290,729);
}
);
hints = (
{
horizontal = 1;
options = 4;
origin = (0,14);
target = (0,20);
type = TTStem;
},
{
horizontal = 1;
options = 4;
origin = (0,42);
target = (0,30);
type = TTStem;
},
{
horizontal = 1;
origin = (0,14);
other1 = (0,36);
target = (0,42);
type = TTInterpolate;
}
);
layerId = master01;
shapes = (
{
closed = 1;
nodes = (
(406,-35,o),
(484,51,o),
(505,221,cs),
(522,360,o),
(513,535,o),
(498,663,cs),
(494,697,o),
(477,720,o),
(430,723,cs),
(382,726,o),
(328,727,o),
(273,727,cs),
(225,727,o),
(177,726,o),
(135,725,cs),
(96,724,o),
(79,703,o),
(79,676,cs),
(79,650,o),
(98,630,o),
(134,630,cs),
(225,630,o),
(355,632,o),
(453,631,c),
(399,649,l),
(412,533,o),
(423,360,o),
(407,228,cs),
(393,112,o),
(342,59,o),
(266,59,cs),
(174,59,o),
(126,127,o),
(129,223,cs),
(130,262,o),
(107,275,o),
(85,275,cs),
(50,275,o),
(36,243,o),
(36,196,cs),
(36,60,o),
(124,-35,o),
(275,-35,cs)
);
}
);
width = 578;
},
{
layerId = "8E39700C-2F6D-4A17-B4B3-161F49A69C4C";
shapes = (
{
closed = 1;
nodes = (
(105,628,o),
(79,662,o),
(79,678,q),
(79,694,o),
(105,728,o),
(128,728,q),
(208,728,o),
(360,725,o),
(440,725,q),
(463,725,o),
(488,700,o),
(500,661,o),
(502,615,o),
(502,594,q),
(502,556,o),
(496,478,o),
(496,443,q),
(496,386,o),
(507,289,o),
(507,241,q),
(507,198,o),
(484,100,o),
(434,16,o),
(356,-40,o),
(301,-40,q),
(251,-40,o),
(155,1,o),
(79,67,o),
(32,151,o),
(32,194,q),
(32,211,o),
(34,253,o),
(40,270,q),
(45,283,o),
(72,301,o),
(86,301,q),
(103,301,o),
(135,273,o),
(135,247,q),
(135,235,o),
(132,212,o),
(132,199,q),
(132,185,o),
(137,160,o),
(145,149,q),
(155,135,o),
(192,104,o),
(236,77,o),
(284,59,o),
(305,59,q),
(329,59,o),
(357,86,o),
(368,103,q),
(392,140,o),
(409,218,o),
(409,260,q),
(409,308,o),
(397,403,o),
(397,449,q),
(397,481,o),
(402,552,o),
(402,587,q),
(402,596,o),
(402,614,o),
(401,623,q),
(387,622,o),
(357,622,o),
(343,622,q),
(287,622,o),
(186,628,o),
(131,628,q)
);
}
);
width = 578;
}
);
unicode = 74;
}
{
glyphname = K;
kernRight = K;
layers = (
{
anchors = (
{
name = bottom;
pos = (293,0);
},
{
name = top;
pos = (294,725);
}
);
background = {
shapes = (
{
closed = 1;
nodes = (
(76,505,o),
(51,304,o),
(51,101,cs),
(51,74,o),
(54,51,o),
(54,24,cs),
(54,1,o),
(76,-17,o),
(103,-17,cs),
(130,-17,o),
(153,3,o),
(165,36,c),
(184,56,o),
(194,78,o),
(207,110,cs),
(229,162,o),
(256,237,o),
(285,290,c),
(341,165,o),
(427,30,o),
(478,-16,cs),
(488,-24,o),
(500,-28,o),
(514,-28,cs),
(541,-28,o),
(561,-7,o),
(561,18,cs),
(561,33,o),
(554,48,o),
(539,63,c),
(490,106,o),
(393,271,o),
(353,389,c),
(426,493,o),
(478,575,o),
(537,651,cs),
(544,660,o),
(548,675,o),
(548,684,cs),
(548,712,o),
(527,732,o),
(500,732,cs),
(475,732,o),
(459,720,o),
(443,699,cs),
(400,640,o),
(362,579,o),
(318,519,cs),
(257,434,o),
(185,330,o),
(155,247,c),
(162,400,o),
(177,550,o),
(177,703,cs),
(177,731,o),
(155,753,o),
(128,753,cs),
(100,753,o),
(76,734,o),
(76,707,cs)
);
}
);
};
hints = (
{
horizontal = 1;
origin = (0,36);
type = TTSnap;
},
{
horizontal = 1;
origin = (1,2);
type = TTSnap;
},
{
horizontal = 1;
origin = (0,23);
type = TTSnap;
},
{
horizontal = 1;
origin = (0,9);
type = TTSnap;
},
{
horizontal = 1;
options = 4;
origin = (0,36);
other1 = (0,14,0,18);
target = (0,23);
type = TTInterpolate;
},
{
horizontal = 1;
options = 4;
origin = (0,36);
other1 = (0,5,1,12);
target = (0,9);
type = TTInterpolate;
},
{
horizontal = 1;
options = 4;
origin = (0,36);
other1 = (0,5,1,8);
target = (0,9);
type = TTInterpolate;
}
);
layerId = master01;
shapes = (
{
closed = 1;
nodes = (
(114,-24,o),
(132,-10,o),
(142,12,c),
(231,132,o),
(425,454,o),
(548,651,cs),
(575,694,o),
(546,730,o),
(510,730,cs),
(491,730,o),
(470,720,o),
(454,694,cs),
(333,495,o),
(201,271,o),
(81,65,c),
(110,56,l),
(127,110,o),
(145,237,o),
(159,393,cs),
(170,516,o),
(180,636,o),
(182,687,cs),
(183,721,o),
(160,743,o),
(133,743,cs),
(105,743,o),
(83,724,o),
(81,697,cs),
(61,456,o),
(39,213,o),
(39,79,cs),
(39,58,o),
(40,39,o),
(41,24,cs),
(43,-7,o),
(60,-24,o),
(91,-24,cs)
);
},
{
closed = 1;
nodes = (
(490,-22,o),
(502,-26,o),
(513,-26,cs),
(553,-26,o),
(582,24,o),
(545,61,cs),
(495,113,o),
(374,256,o),
(340,394,c),
(278,307,l),
(319,169,o),
(428,27,o),
(478,-13,cs)
);
}
);
width = 582;
},
{
layerId = "8E39700C-2F6D-4A17-B4B3-161F49A69C4C";
shapes = (
{
closed = 1;
nodes = (
(76,727,o),
(107,753,o),
(128,753,q),
(148,753,o),
(177,724,o),
(177,703,q),
(177,588,o),
(160,362,o),
(155,247,q),
(166,278,o),
(202,347,o),
(246,418,o),
(295,487,o),
(318,519,q),
(351,564,o),
(411,655,o),
(443,699,q),
(455,715,o),
(481,732,o),
(500,732,q),
(520,732,o),
(548,705,o),
(548,684,q),
(548,677,o),
(542,658,o),
(537,651,q),
(493,594,o),
(408,467,o),
(353,389,q),
(368,345,o),
(416,244,o),
(469,152,o),
(521,79,o),
(539,63,q),
(550,52,o),
(561,29,o),
(561,18,q),
(561,-1,o),
(534,-28,o),
(514,-28,q),
(493,-28,o),
(478,-16,q),
(459,1,o),
(409,66,o),
(357,149,o),
(306,243,o),
(285,290,q),
(274,270,o),
(252,224,o),
(233,176,o),
(215,129,o),
(207,110,q),
(197,86,o),
(179,51,o),
(165,36,q),
(156,11,o),
(123,-17,o),
(103,-17,q),
(83,-17,o),
(54,7,o),
(54,24,q),
(54,44,o),
(51,81,o),
(51,101,q),
(51,177,o),
(59,329,o),
(68,480,o),
(76,631,o),
(76,707,q)
);
}
);
width = 582;
}
);
unicode = 75;
}
{
glyphname = L;
kernLeft = L;
kernRight = L;
layers = (
{
anchors = (
{
name = bottom;
pos = (288,-3);
},
{
name = top;
pos = (175,725);
}
);
layerId = master01;
shapes = (
{
closed = 1;
nodes = (
(101,472,o),
(64,252,o),
(64,81,cs),
(64,22,o),
(72,-3,o),
(113,-12,cs),
(146,-19,o),
(179,-20,o),
(212,-20,cs),
(284,-20,o),
(404,-12,o),
(463,-6,cs),
(496,-3,o),
(517,14,o),
(517,44,cs),
(517,73,o),
(496,92,o),
(463,90,cs),
(397,86,o),
(289,76,o),
(203,76,cs),
(190,76,o),
(178,76,o),
(166,77,c),
(174,276,o),
(202,471,o),
(206,671,cs),
(207,704,o),
(180,721,o),
(157,721,cs),
(130,721,o),
(107,704,o),
(106,673,cs)
);
}
);
userData = {
com.typemytype.robofont.mark = (
1,
0.976,
0.6,
1
);
};
width = 529;
},
{
layerId = "8E39700C-2F6D-4A17-B4B3-161F49A69C4C";
shapes = (
{
closed = 1;
nodes = (
(106,696,o),
(137,721,o),
(157,721,q,{
name = at01;
}),
(174,721,o),
(206,696,o),
(206,671,q),
(206,597,o),
(195,450,o),
(181,303,o),
(168,155,o),
(166,81,q),
(175,80,o),
(193,80,o),
(203,80,q,{
name = sv01;
}),
(235,80,o),
(306,84,o),
(375,90,o),
(438,94,o),
(463,94,q),
(488,94,o),
(517,65,o),
(517,44,q),
(517,23,o),
(488,-6,o),
(463,-6,q),
(440,-6,o),
(376,-10,o),
(307,-16,o),
(239,-20,o),
(212,-20,q,{
name = ab01;
}),
(187,-20,o),
(138,-17,o),
(113,-13,q),
(82,-5,o),
(64,37,o),
(64,81,q),
(64,156,o),
(77,303,o),
(93,450,o),
(106,598,o),
(106,673,q)
);
}
);
width = 529;
},
{
anchors = (
{
name = bottom;
pos = (288,-3);
},
{
name = top;
pos = (175,725);
}
);
background = {
shapes = (
{
closed = 1;
nodes = (
(101,472,o),
(64,252,o),
(64,81,cs),
(64,22,o),
(72,-3,o),
(113,-12,cs),
(146,-19,o),
(179,-20,o),
(212,-20,cs),
(284,-20,o),
(404,-12,o),
(463,-6,cs),
(496,-3,o),
(517,14,o),
(517,44,cs),
(517,73,o),
(496,92,o),
(463,90,cs),
(397,86,o),
(289,76,o),
(203,76,cs),
(190,76,o),
(178,76,o),
(166,77,c),
(174,276,o),
(202,471,o),
(206,671,cs),
(207,704,o),
(180,721,o),
(157,721,cs),
(130,721,o),
(107,704,o),
(106,673,cs)
);
}
);
};
hints = (
{
horizontal = 1;
options = 4;
origin = (0,34);
target = (0,21);
type = TTStem;
},
{
horizontal = 1;
origin = (0,12);
type = TTSnap;
}
);
layerId = "92936CB7-D294-4857-B41D-63B9425360A1";
shapes = (
{
closed = 1;
nodes = (
(151,-20,o),
(113,-12,qs),
(85,-6,o),
(64,32,o),
(64,81,q),
(64,128,o),
(72,248,o),
(96,499,o),
(105,622,o),
(106,673,qs),
(106,695,o),
(136,721,o),
(178,721,o),
(206,693,o),
(206,671,qs),
(205,613,o),
(197,479,o),
(176,235,o),
(168,124,o),
(166,77,q),
(178,76,o),
(203,76,qs,{
name = sv01;
}),
(236,76,o),
(322,80,o),
(446,89,o),
(463,90,qs,{
name = sv03;
}),
(488,91,o),
(517,66,o),
(517,22,o),
(488,-3,o),
(438,-9,o),
(368,-14,o),
(296,-18,o),
(235,-20,o),
(212,-20,qs,{
name = ab01;
})
);
}
);
userData = {
com.typemytype.robofont.mark = (
0.656,
1,
0.6,
1
);
};
width = 529;
}
);
unicode = 76;
}
{
glyphname = M;
kernLeft = M;
kernRight = M;
layers = (
{
anchors = (
{
name = bottom;
pos = (336,0);
},
{
name = top;
pos = (369,725);
}
);
background = {
shapes = (
{
closed = 1;
nodes = (
(517,232,o),
(526,400,o),
(544,568,c),
(562,568,l),
(519,480,o),
(477,392,o),
(417,303,c),
(404,282,o),
(384,259,o),
(351,258,cs),
(315,256,o),
(295,282,o),
(281,318,c),
(231,407,o),
(187,503,o),
(151,595,c),
(176,596,l),
(186,425,o),
(181,228,o),
(173,46,cs),
(171,-5,o),
(153,-27,o),
(121,-29,cs),
(89,-30,o),
(70,-5,o),
(70,31,cs),
(79,266,o),
(83,455,o),
(81,671,cs),
(81,698,o),
(96,729,o),
(138,731,cs),
(176,732,o),
(193,706,o),
(208,675,c),
(256,566,o),
(315,451,o),
(379,344,c),
(336,342,l),
(404,448,o),
(473,579,o),
(536,698,c),
(549,726,o),
(567,740,o),
(591,741,cs),
(630,743,o),
(649,715,o),
(645,669,cs),
(630,435,o),
(624,233,o),
(620,30,cs),
(620,-2,o),
(607,-27,o),
(573,-28,cs),
(542,-29,o),
(517,-8,o),
(517,31,cs)
);
}
);
};
layerId = master01;
shapes = (
{
closed = 1;
nodes = (
(105,-29,o),
(120,-5,o),
(128,46,cs),
(157,223,o),
(177,415,o),
(178,596,c),
(155,595,l),
(191,503,o),
(235,407,o),
(285,318,c),
(299,282,o),
(319,258,o),
(352,258,cs),
(389,258,o),
(408,282,o),
(421,303,c),
(481,392,o),
(523,480,o),
(566,568,c),
(551,568,l),
(551,400,o),
(544,231,o),
(559,31,cs),
(562,-8,o),
(584,-28,o),
(613,-28,cs),
(649,-28,o),
(664,-2,o),
(662,35,cs),
(649,232,o),
(641,436,o),
(649,669,cs),
(651,715,o),
(634,741,o),
(598,741,cs),
(571,741,o),
(553,726,o),
(540,698,c),
(477,579,o),
(408,448,o),
(340,342,c),
(383,344,l),
(319,451,o),
(260,566,o),
(212,675,c),
(197,706,o),
(180,731,o),
(142,731,cs),
(103,731,o),
(88,698,o),
(87,671,cs),
(77,450,o),
(62,267,o),
(27,31,cs),
(22,-5,o),
(40,-29,o),
(71,-29,cs)
);
}
);
userData = {
com.typemytype.robofont.mark = (
0.619,
1,
0.6,
1
);
};
width = 727;
},
{
layerId = "8E39700C-2F6D-4A17-B4B3-161F49A69C4C";
shapes = (
{
closed = 1;
nodes = (
(124,-28,o),
(91,-52,o),
(74,-52,q),
(55,-52,o),
(25,-23,o),
(25,6,q),
(25,99,o),
(73,276,o),
(134,444,o),
(191,605,o),
(200,682,q),
(202,699,o),
(230,724,o),
(251,724,q),
(272,724,o),
(296,695,o),
(299,674,q),
(305,627,o),
(313,524,o),
(324,419,o),
(340,315,o),
(354,268,q),
(387,334,o),
(434,472,o),
(449,542,q),
(457,577,o),
(469,644,o),
(487,696,o),
(516,728,o),
(542,728,q),
(560,728,o),
(596,699,o),
(598,668,q),
(603,538,o),
(622,281,o),
(642,150,q),
(649,104,o),
(667,34,o),
(667,12,q),
(667,-9,o),
(638,-38,o),
(618,-38,q),
(603,-38,o),
(574,-17,o),
(567,4,q),
(559,31,o),
(542,118,o),
(527,222,o),
(515,333,o),
(511,384,q),
(488,321,o),
(439,208,o),
(415,169,q),
(395,135,o),
(365,108,o),
(345,108,q),
(334,108,o),
(315,116,o),
(304,129,q),
(280,156,o),
(240,296,o),
(229,394,q),
(217,359,o),
(184,279,o),
(152,184,o),
(128,69,o),
(125,-2,q)
);
}
);
width = 727;
},
{
anchors = (
{
name = bottom;
pos = (336,0);
},
{
name = top;
pos = (369,725);
}
);
hints = (
{
horizontal = 1;
origin = (0,24);
type = TTSnap;
},
{
horizontal = 1;
origin = (0,47);
type = TTSnap;
},
{
horizontal = 1;
origin = (0,8);
type = TTSnap;
},
{
horizontal = 1;
origin = (0,16);
type = TTSnap;
},
{
horizontal = 1;
origin = (0,24);
other1 = (0,38);
target = (0,16);
type = TTInterpolate;
},
{
horizontal = 1;
options = 4;
origin = (0,24);
other1 = (0,32);
target = (0,16);
type = TTInterpolate;
},
{
horizontal = 1;
options = 4;
origin = (0,32);
target = (0,42);
type = TTShift;
},
{
horizontal = 1;
options = 4;
origin = (0,16);
other1 = (0,12);
target = (0,38);
type = TTInterpolate;
}
);
layerId = "92936CB7-D294-4857-B41D-63B9425360A1";
shapes = (
{
closed = 1;
nodes = (
(48,-29,o),
(23,4,o),
(27,31,qs),
(52,201,o),
(79,496,o),
(87,671,qs),
(88,695,o),
(115,731,o),
(168,731,o),
(199,702,o),
(212,675,qs),
(280,522,o),
(363,378,q),
(428,479,o),
(540,698,qs),
(562,741,o),
(598,741,qs),
(625,741,o),
(651,704,o),
(649,669,qs),
(639,382,o),
(662,35,qs),
(664,6,o),
(639,-28,o),
(613,-28,qs),
(591,-28,o),
(561,3,o),
(559,31,qs),
(551,134,o),
(549,310,o),
(550,456,qs),
(551,483,o),
(551,537,q),
(516,466,o),
(457,357,o),
(421,303,qs),
(409,283,o),
(377,258,o),
(352,258,qs),
(308,258,o),
(285,318,q),
(231,415,o),
(177,540,q),
(171,312,o),
(128,46,qs),
(122,7,o),
(96,-29,o),
(71,-29,qs)
);
}
);
userData = {
com.typemytype.robofont.mark = (
0.656,
1,
0.6,
1
);
};
width = 727;
},
{
anchors = (
{
name = bottom;
pos = (336,0);
},
{
name = top;
pos = (383,725);
}
);
associatedMasterId = master01;
background = {
shapes = (
{
closed = 1;
nodes = (
(150,177,o),
(191,306,o),
(242,517,c),
(223,517,l),
(234,335,o),
(254,239,o),
(281,170,cs),
(296,131,o),
(313,108,o),
(345,108,cs),
(372,108,o),
(390,118,o),
(412,172,c),
(467,278,o),
(508,406,o),
(547,637,c),
(511,567,l),
(519,262,o),
(538,117,o),
(569,4,cs),
(577,-24,o),
(598,-38,o),
(618,-38,cs),
(645,-38,o),
(674,-16,o),
(664,33,cs),
(636,170,o),
(606,412,o),
(594,668,cs),
(592,709,o),
(571,726,o),
(542,726,cs),
(513,726,o),
(496,707,o),
(489,678,cs),
(453,521,o),
(399,372,o),
(331,208,c),
(370,208,l),
(324,377,o),
(316,484,o),
(299,668,cs),
(296,702,o),
(279,724,o),
(251,724,cs),
(223,724,o),
(208,710,o),
(204,679,c),
(136,465,o),
(59,258,o),
(26,9,cs),
(20,-33,o),
(49,-52,o),
(74,-52,cs),
(97,-52,o),
(117,-37,o),
(122,-2,cs)
);
}
);
};
layerId = "BCFBBD25-E6AE-4464-A18B-1ABD0BF3BE39";
name = "Aug 3 20, 22:57";
shapes = (
{
closed = 1;
nodes = (
(150,177,o),
(191,306,o),
(242,517,c),
(223,517,l),
(234,335,o),
(254,239,o),
(281,170,cs),
(296,131,o),
(313,108,o),
(345,108,cs),
(372,108,o),
(390,118,o),
(412,172,c),
(467,278,o),
(508,406,o),
(547,637,c),
(511,567,l),
(519,262,o),
(538,117,o),
(569,4,cs),
(577,-24,o),
(598,-38,o),
(618,-38,cs),
(645,-38,o),
(674,-16,o),
(664,33,cs),
(636,170,o),
(606,412,o),
(594,668,cs),
(592,709,o),
(571,726,o),
(542,726,cs),
(513,726,o),
(496,707,o),
(489,678,cs),
(453,521,o),
(399,372,o),
(331,208,c),
(370,208,l),
(324,377,o),
(316,484,o),
(299,668,cs),
(296,702,o),
(279,724,o),
(251,724,cs),
(223,724,o),
(208,710,o),
(204,679,c),
(136,465,o),
(59,258,o),
(26,9,cs),
(20,-33,o),
(49,-52,o),
(74,-52,cs),
(97,-52,o),
(117,-37,o),
(122,-2,cs)
);
}
);
userData = {
com.typemytype.robofont.mark = (
0.619,
1,
0.6,
1
);
};
width = 727;
},
{
anchors = (
{
name = bottom;
pos = (336,0);
},
{
name = top;
pos = (383,725);
}
);
associatedMasterId = "92936CB7-D294-4857-B41D-63B9425360A1";
background = {
shapes = (
{
closed = 1;
nodes = (
(97,-52,o),
(117,-37,o),
(122,-2,cs),
(147,159,o),
(183,280,o),
(227,457,c,{
name = sv03;
}),
(239,313,o),
(257,231,o),
(281,170,cs),
(296,131,o),
(313,108,o),
(345,108,cs),
(372,108,o),
(390,118,o),
(412,172,c),
(452,249,o),
(484,337,o),
(514,468,c,{
name = sv02;
}),
(524,229,o),
(542,104,o),
(569,4,cs),
(577,-24,o),
(598,-38,o),
(618,-38,cs),
(645,-38,o),
(674,-16,o),
(664,33,cs),
(636,170,o),
(606,412,o),
(594,668,cs),
(592,709,o),
(571,726,o),
(542,726,cs),
(513,726,o),
(496,707,o),
(489,678,cs),
(457,540,o),
(412,408,o),
(355,267,c,{
name = sv01;
}),
(322,404,o),
(314,506,o),
(299,668,cs),
(296,702,o),
(279,724,o),
(251,724,cs),
(223,724,o),
(208,710,o),
(204,679,c),
(136,465,o),
(59,258,o),
(26,9,cs),
(20,-33,o),
(49,-52,o),
(74,-52,cs)
);
}
);
};
hints = (
{
horizontal = 1;
origin = (0,51);
stem = 6;
type = TTSnap;
},
{
horizontal = 1;
origin = (0,27);
type = TTSnap;
},
{
horizontal = 1;
origin = (0,8);
type = TTSnap;
},
{
horizontal = 1;
origin = (0,18);
type = TTSnap;
},
{
horizontal = 1;
origin = (0,39);
type = TTSnap;
},
{
horizontal = 1;
options = 4;
origin = (0,39);
target = (0,14);
type = TTShift;
},
{
horizontal = 1;
options = 4;
origin = (0,8);
target = (0,45);
type = TTShift;
},
{
horizontal = 1;
options = 4;
origin = (0,18);
target = (0,33);
type = TTShift;
}
);
layerId = "26E05087-9BBB-44CB-8299-586A57C878B0";
name = "Aug 3 20, 23:09";
shapes = (
{
closed = 1;
nodes = (
(51,-52,o),
(22,-18,o),
(26,9,qs),
(41,119,o),
(98,354,o),
(193,644,o),
(204,679,q),
(210,724,o),
(251,724,qs),
(271,724,o),
(297,694,o),
(299,668,qs),
(300,659,o),
(324,395,o),
(355,267,q),
(446,491,o),
(489,678,qs),
(500,726,o),
(542,726,qs),
(566,726,o),
(593,696,o),
(594,668,qs),
(602,493,o),
(641,148,o),
(664,33,qs),
(670,1,o),
(643,-38,o),
(618,-38,qs),
(602,-38,o),
(575,-16,o),
(569,4,qs),
(546,88,o),
(521,305,o),
(514,468,q),
(493,375,o),
(444,233,o),
(412,172,q),
(397,136,o),
(368,108,o),
(345,108,qs),
(324,108,o),
(294,136,o),
(281,170,qs),
(261,221,o),
(235,358,o),
(227,457,q),
(217,416,o),
(141,122,o),
(122,-2,qs),
(118,-26,o),
(93,-52,o),
(74,-52,qs)
);
}
);
userData = {
com.typemytype.robofont.mark = (
0.656,
1,
0.6,
1
);
};
width = 727;
}
);
unicode = 77;
}
{
glyphname = N;
layers = (
{
anchors = (
{
name = bottom;
pos = (318,0);
},
{
name = top;
pos = (335,725);
}
);
layerId = master01;
shapes = (
{
closed = 1;
nodes = (
(153,-26,o),
(177,-8,o),
(178,28,cs),
(182,237,o),
(180,394,o),
(185,579,c),
(118,662,l),
(208,375,o),
(331,156,o),
(454,1,cs),
(472,-22,o),
(490,-32,o),
(513,-32,cs),
(544,-32,o),
(562,-12,o),
(568,25,cs),
(593,187,o),
(597,461,o),
(586,668,cs),
(584,704,o),
(561,720,o),
(536,720,cs),
(511,720,o),
(485,702,o),
(486,668,cs),
(491,464,o),
(494,289,o),
(485,50,c),
(507,91,l),
(388,258,o),
(281,455,o),
(200,685,cs),
(188,718,o),
(170,728,o),
(147,728,cs),
(121,728,o),
(100,715,o),
(97,660,cs),
(87,449,o),
(76,238,o),
(76,32,cs),
(76,-9,o),
(101,-26,o),
(126,-26,cs)
);
}
);
userData = {
com.typemytype.robofont.mark = (
0.619,
1,
0.6,
1
);
};
width = 678;
},
{
layerId = "8E39700C-2F6D-4A17-B4B3-161F49A69C4C";
shapes = (
{
closed = 1;
nodes = (
(67,707,o),
(95,733,o),
(114,733,q),
(125,733,o),
(134,729,q),
(141,732,o),
(150,732,q),
(167,732,o),
(200,707,o),
(200,682,q),
(200,671,o),
(200,648,o),
(199,639,q),
(234,594,o),
(287,490,o),
(333,380,o),
(381,270,o),
(411,218,q),
(428,190,o),
(464,140,o),
(483,114,q),
(491,152,o),
(495,233,o),
(495,273,q),
(495,336,o),
(494,431,o),
(492,518,o),
(488,607,o),
(485,662,q),
(485,688,o),
(515,721,o),
(535,721,q),
(555,721,o),
(583,695,o),
(585,674,q),
(586,667,o),
(586,654,o),
(586,647,q),
(589,576,o),
(594,455,o),
(594,385,q),
(594,330,o),
(594,258,o),
(592,201,o),
(587,148,o),
(583,113,q),
(579,79,o),
(569,24,o),
(554,-14,o),
(530,-34,o),
(512,-34,q),
(498,-34,o),
(470,-18,o),
(443,6,o),
(417,37,o),
(406,52,q),
(367,96,o),
(309,192,o),
(260,292,o),
(216,396,o),
(193,449,q),
(188,342,o),
(177,131,o),
(177,25,q),
(177,-1,o),
(146,-25,o),
(126,-25,q),
(107,-25,o),
(77,4,o),
(77,33,q),
(79,178,o),
(94,465,o),
(98,610,q),
(89,625,o),
(67,663,o),
(67,677,q)
);
}
);
width = 678;
},
{
anchors = (
{
name = bottom;
pos = (318,0);
},
{
name = top;
pos = (335,725);
}
);
hints = (
{
horizontal = 1;
origin = (0,11);
type = TTSnap;
},
{
horizontal = 1;
origin = (0,41);
type = TTSnap;
},
{
horizontal = 1;
origin = (0,20);
type = TTSnap;
},
{
horizontal = 1;
origin = (0,33);
type = TTSnap;
},
{
horizontal = 1;
options = 4;
origin = (0,11);
other1 = (0,4);
target = (0,20);
type = TTInterpolate;
},
{
horizontal = 1;
options = 4;
origin = (0,11);
other1 = (0,26);
target = (0,33);
type = TTInterpolate;
}
);
layerId = "92936CB7-D294-4857-B41D-63B9425360A1";
shapes = (
{
closed = 1;
nodes = (
(480,-32,o),
(454,1,q),
(375,100,o),
(238,342,o),
(183,480,q),
(183,448,o),
(182,374,o),
(180,194,o),
(179,80,o),
(178,28,q),
(177,3,o),
(148,-26,o),
(104,-26,o),
(76,5,o),
(76,32,q),
(76,220,o),
(96,642,o),
(97,660,q),
(99,695,o),
(123,728,o),
(147,728,q),
(167,728,o),
(192,707,o),
(200,685,q),
(255,531,o),
(399,247,o),
(487,119,q),
(490,207,o),
(491,375,o),
(489,552,o),
(486,668,q),
(485,691,o),
(515,720,o),
(558,720,o),
(585,692,o),
(586,668,q),
(592,556,o),
(592,310,o),
(579,98,o),
(568,25,q),
(559,-32,o),
(513,-32,q)
);
}
);
userData = {
com.typemytype.robofont.mark = (
0.656,
1,
0.6,
1
);
};
width = 678;
}
);
unicode = 78;
}
{
glyphname = O;
kernLeft = O;
kernRight = O;
layers = (
{
anchors = (
{
name = bottom;
pos = (330,10);
},
{
name = top;
pos = (371,715);
}
);
hints = (
{
horizontal = 1;
options = 4;
origin = (0,14);
target = (1,20);
type = TTStem;
},
{
horizontal = 1;
origin = (0,8);
type = TTSnap;
},
{
horizontal = 1;
options = 4;
origin = (0,8);
target = (1,5);
type = TTStem;
},
{
horizontal = 1;
origin = (0,8);
settings = {
deltaV = {
"{100, 0, 0, 0, 0, 0}" = {
"12" = 8;
"15" = 8;
};
};
};
type = TTDelta;
}
);
layerId = master01;
shapes = (
{
closed = 1;
nodes = (
(547,-7,o),
(697,162,o),
(697,353.5,cs),
(697,478,o),
(630.667,594.333,o),
(532,637,c),
(503,680,o),
(434,715,o),
(349,715,cs),
(180,715,o),
(35,556,o),
(35,339,cs),
(35,124.255,o),
(159.893,-7,o),
(347,-7,cs)
);
},
{
closed = 1;
nodes = (
(225,89,o),
(145,176,o),
(145,353,cs),
(145,492,o),
(234,620,o),
(361,620,cs),
(385,620,o),
(410,613,o),
(431,601,cs),
(447,592,o),
(464,586,o),
(476,584,c),
(481,553,o),
(527,528,o),
(553,486,cs),
(579,444,o),
(588,405,o),
(588,361,cs),
(588,218,o),
(495,89,o),
(341,89,cs)
);
}
);
width = 730;
},
{
layerId = "8E39700C-2F6D-4A17-B4B3-161F49A69C4C";
shapes = (
{
closed = 1;
nodes = (
(508,672,o),
(526,655,o),
(529,644,q),
(534,642,o),
(545,638,o),
(547,636,q),
(571,619,o),
(625,571,o),
(651,527,q),
(672,491,o),
(697,403,o),
(697,349,q),
(657,187,o),
(605,118,q),
(583,88,o),
(560,58,o),
(425,-7,o),
(329,-7,q),
(288,-7,o),
(232,-1,o),
(187,18,o),
(148,52,o),
(124,80,q),
(73,140,o),
(35,283,o),
(35,352,q),
(35,388,o),
(51,468,o),
(86,546,o),
(140,618,o),
(179,647,q),
(193,657,o),
(234,682,o),
(285,703,o),
(344,717,o),
(374,717,q),
(411,717,o),
(473,695,o),
(493,682,q)
);
},
{
closed = 1;
nodes = (
(472,564,o),
(464,582,o),
(463,587,q),
(453,588,o),
(432,594,o),
(422,599,q),
(403,608,o),
(379,614,o),
(361,614,q),
(345,614,o),
(275,594,o),
(234,562,q),
(191,528,o),
(138,420,o),
(138,350,q),
(138,315,o),
(150,243,o),
(177,177,o),
(218,120,o),
(247,102,q),
(251,99,o),
(273,95,o),
(299,93,o),
(325,92,o),
(333,92,q),
(389,92,o),
(495,137,o),
(533,190,q),
(558,225,o),
(594,314,o),
(594,359,q),
(594,391,o),
(569,467,o),
(546,502,q),
(541,510,o),
(529,522,o),
(513,534,o),
(493,548,o),
(480,559,q)
);
}
);
width = 730;
}
);
unicode = 79;
}
{
glyphname = P;
kernLeft = P;
kernRight = P;
layers = (
{
anchors = (
{
name = bottom;
pos = (98,-5);
},
{
name = top;
pos = (326,725);
}
);
layerId = master01;
shapes = (
{
closed = 1;
nodes = (
(42,-47,o),
(140,-42,o),
(147,21,cs),
(171,242,o),
(187,463,o),
(193,684,cs),
(195,750,o),
(97,747,o),
(94,692,cs),
(83,472,o),
(66,251,o),
(48,31,cs)
);
},
{
closed = 1;
nodes = (
(361,274,o),
(556,337,o),
(571,512,cs),
(585,672,o),
(466,736,o),
(348,736,cs),
(257,736,o),
(187,712,o),
(123,671,c),
(152,605,l),
(207,629,o),
(265,641,o),
(317,641,cs),
(417,641,o),
(471,604,o),
(464,520,cs),
(455,417,o),
(344,358,o),
(132,384,c),
(120,301,l)
);
}
);
userData = {
com.typemytype.robofont.mark = (
1,
0.976,
0.6,
1
);
};
width = 597;
},
{
layerId = "8E39700C-2F6D-4A17-B4B3-161F49A69C4C";
shapes = (
{
closed = 1;
nodes = (
(58,201,o),
(69,517,o),
(77,677,q),
(76,680,o),
(76,687,q),
(76,706,o),
(104,735,o),
(129,735,q),
(149,735,o),
(171,704,o),
(175,690,q),
(203,716,o),
(276,740,o),
(316,740,q),
(356,740,o),
(445,719,o),
(520,673,o),
(569,602,o),
(569,552,q),
(569,482,o),
(507,381,o),
(414,315,o),
(304,284,o),
(256,284,q),
(236,284,o),
(198,286,o),
(179,286,q),
(177,268,o),
(173,234,o),
(171,217,q),
(168,193,o),
(162,136,o),
(156,80,o),
(150,34,o),
(147,21,q),
(143,-5,o),
(113,-29,o),
(96,-29,q),
(77,-29,o),
(47,0,o),
(47,29,q),
(47,36,o),
(48,40,q)
);
},
{
closed = 1;
nodes = (
(197,491,o),
(188,421,o),
(186,386,q),
(204,385,o),
(242,383,o),
(261,383,q),
(296,383,o),
(368,405,o),
(427,448,o),
(465,511,o),
(465,551,q),
(465,576,o),
(440,610,o),
(399,632,o),
(348,642,o),
(321,642,q),
(288,642,o),
(246,621,o),
(222,587,o),
(209,545,o),
(205,524,q)
);
}
);
width = 597;
},
{
anchors = (
{
name = bottom;
pos = (98,-5);
},
{
name = top;
pos = (326,725);
}
);
hints = (
{
horizontal = 1;
options = 4;
origin = (0,14);
target = (1,5);
type = TTStem;
},
{
horizontal = 1;
origin = (0,10);
type = TTSnap;
},
{
horizontal = 1;
options = 4;
origin = (0,22);
target = (1,12);
type = TTStem;
},
{
horizontal = 1;
origin = (0,2);
type = TTSnap;
},
{
horizontal = 1;
origin = (0,2);
other1 = (0,22);
target = (0,14);
type = TTInterpolate;
}
);
layerId = "92936CB7-D294-4857-B41D-63B9425360A1";
shapes = (
{
closed = 1;
nodes = (
(145,-2,o),
(115,-27,o),
(72,-27,o),
(46,5,o),
(48,31,q),
(66,254,o),
(87,560,o),
(94,692,q),
(95,711,o),
(124,733,o),
(143,733,q),
(176,733,o),
(189,706,q),
(263,736,o),
(348,736,q),
(420,736,o),
(528,679,o),
(577,579,o),
(571,512,q),
(565,441,o),
(477,344,o),
(324,295,o),
(222,295,q),
(199,295,o),
(173,297,q),
(168,234,o),
(155,98,o),
(147,21,q)
);
},
{
closed = 1;
nodes = (
(335,377,o),
(458,453,o),
(464,520,q),
(469,581,o),
(395,641,o),
(317,641,q),
(256,641,o),
(191,620,q),
(188,551,o),
(182,432,o),
(178,379,q),
(196,377,o),
(224,377,q)
);
}
);
userData = {
com.typemytype.robofont.mark = (
0.656,
1,
0.6,
1
);
};
width = 597;
}
);
unicode = 80;
}
{
glyphname = Q;
layers = (
{
anchors = (
{
name = bottom;
pos = (239,44);
},
{
name = top;
pos = (385,700);
}
);
layerId = master01;
shapes = (
{
closed = 1;
nodes = (
(381,23,o),
(540,123,o),
(589,343,cs),
(642,581,o),
(562,733,o),
(384,733,cs),
(228,733,o),
(86,595,o),
(45,386,cs),
(-4,140,o),
(106,23,o),
(255,23,cs)
);
},
{
closed = 1;
nodes = (
(158,120,o),
(114,198,o),
(149,371,cs),
(181,532,o),
(277,637,o),
(380,637,cs),
(482,637,o),
(520,534,o),
(488,369,cs),
(451,181,o),
(347,120,o),
(258,120,cs)
);
},
{
closed = 1;
nodes = (
(618,-60,o),
(647,22,o),
(582,49,cs),
(478,92,o),
(410,133,o),
(358,234,cs),
(323,302,o),
(256,273,o),
(275,204,cs),
(308,83,o),
(433,-7,o),
(548,-40,cs)
);
}
);
userData = {
com.typemytype.robofont.mark = (
1,
0.976,
0.6,
1
);
};
width = 638;
},
{
layerId = "8E39700C-2F6D-4A17-B4B3-161F49A69C4C";
shapes = (
{
closed = 1;
nodes = (
(264,251,o),
(293,275,o),
(311,275,q),
(325,275,o),
(350,260,o),
(359,241,q),
(366,227,o),
(384,193,o),
(398,177,q),
(444,211,o),
(495,313,o),
(495,370,q),
(495,394,o),
(487,420,q),
(482,434,o),
(465,455,o),
(447,476,o),
(434,500,o),
(434,517,q),
(434,539,o),
(462,565,o),
(480,565,q),
(503,565,o),
(533,531,o),
(548,513,q),
(573,483,o),
(595,409,o),
(595,369,q),
(595,331,o),
(577,256,o),
(544,188,o),
(500,130,o),
(473,109,q),
(501,89,o),
(559,61,o),
(582,53,q),
(602,46,o),
(620,19,o),
(620,5,q),
(620,-13,o),
(592,-42,o),
(569,-42,q),
(553,-42,o),
(505,-25,o),
(452,3,o),
(400,37,o),
(380,55,q),
(345,40,o),
(270,23,o),
(235,23,q),
(189,23,o),
(116,53,o),
(65,117,o),
(38,218,o),
(38,289,q),
(38,322,o),
(48,400,o),
(74,482,o),
(117,565,o),
(150,603,q),
(172,628,o),
(222,675,o),
(281,711,o),
(352,733,o),
(395,733,q),
(414,733,o),
(444,732,o),
(470,728,o),
(496,720,o),
(510,714,q),
(534,703,o),
(565,666,o),
(565,643,q),
(565,617,o),
(536,590,o),
(518,590,q),
(505,590,o),
(480,604,o),
(472,619,q),
(456,626,o),
(422,635,o),
(404,635,q),
(377,635,o),
(324,618,o),
(274,590,o),
(231,550,o),
(214,528,q),
(172,471,o),
(137,350,o),
(137,289,q),
(137,260,o),
(144,200,o),
(166,152,o),
(207,121,o),
(242,121,q),
(273,121,o),
(308,133,q),
(293,153,o),
(264,202,o),
(264,225,q)
);
}
);
width = 638;
},
{
anchors = (
{
name = bottom;
pos = (239,44);
},
{
name = top;
pos = (385,700);
}
);
hints = (
{
horizontal = 1;
options = 4;
origin = (0,6);
target = (1,20);
type = TTStem;
},
{
horizontal = 1;
options = 4;
origin = (0,12);
target = (1,14);
type = TTStem;
},
{
horizontal = 1;
options = 4;
origin = (0,6);
other1 = (0,17);
target = (0,12);
type = TTInterpolate;
},
{
horizontal = 1;
options = 4;
origin = (0,6);
other1 = (0,4);
target = (0,12);
type = TTInterpolate;
},
{
horizontal = 1;
options = 4;
origin = (1,20);
other1 = (1,1);
target = (1,14);
type = TTInterpolate;
},
{
horizontal = 1;
options = 4;
origin = (1,20);
other1 = (1,9);
target = (1,14);
type = TTInterpolate;
},
{
horizontal = 1;
origin = (0,6);
type = TTSnap;
},
{
horizontal = 1;
origin = (0,23);
stem = -1;
type = TTSnap;
}
);
layerId = "92936CB7-D294-4857-B41D-63B9425360A1";
shapes = (
{
closed = 1;
nodes = (
(559,-43,o),
(548,-40,qs),
(502,-27,o),
(413,21,o),
(377,52,q),
(314,23,o),
(255,23,qs),
(129,23,o),
(12,219,o),
(45,386,qs),
(75,539,o),
(264,733,o),
(384,733,qs),
(518,733,o),
(628,521,o),
(589,343,qs),
(557,198,o),
(463,111,q),
(504,81,o),
(582,49,qs),
(608,38,o),
(623,-6,o),
(595,-43,o),
(569,-43,qs)
);
},
{
closed = 1;
nodes = (
(286,120,o),
(310,127,q),
(285,169,o),
(275,204,qs),
(266,236,o),
(293,276,o),
(342,265,o),
(358,234,qs),
(372,206,o),
(395,176,q),
(463,241,o),
(488,369,qs),
(512,494,o),
(456,637,o),
(380,637,qs),
(301,637,o),
(173,490,o),
(149,371,qs),
(124,247,o),
(179,120,o),
(258,120,qs)
);
}
);
userData = {
com.typemytype.robofont.mark = (
0.656,
1,
0.6,
1
);
};
width = 638;
}
);
unicode = 81;
}
{
glyphname = R;
kernRight = R;
layers = (
{
anchors = (
{
name = bottom;
pos = (318,0);
},
{
name = top;
pos = (361,725);
}
);
layerId = master01;
shapes = (
{
closed = 1;
nodes = (
(165,-19,o),
(186,-1,o),
(188,36,cs),
(198,232,o),
(206,428,o),
(203,624,c),
(102,626,l),
(103,429,o),
(93,231,o),
(89,34,cs),
(88,-1,o),
(113,-19,o),
(138,-19,cs)
);
},
{
closed = 1;
nodes = (
(453,302,o),
(571,395,o),
(588,523,cs),
(604,641,o),
(535,726,o),
(399,726,cs),
(268,726,o),
(140,681,o),
(72,640,cs),
(22,610,o),
(51,542,o),
(103,566,cs),
(196,609,o),
(290,636,o),
(372,636,cs),
(452,636,o),
(491,599,o),
(480,524,cs),
(467,433,o),
(348,374,o),
(136,360,c),
(145,278,l)
);
},
{
closed = 1;
nodes = (
(593,-27,o),
(617,14,o),
(589,54,cs),
(523,146,o),
(407,251,o),
(311,328,c),
(228,295,l),
(334,199,o),
(427,86,o),
(511,-5,cs),
(525,-20,o),
(541,-27,o),
(555,-27,cs)
);
}
);
userData = {
com.typemytype.robofont.mark = (
0.619,
1,
0.6,
1
);
};
width = 645;
},
{
layerId = "8E39700C-2F6D-4A17-B4B3-161F49A69C4C";
shapes = (
{
closed = 1;
nodes = (
(82,705,o),
(112,734,o),
(131,734,q,{
name = at01;
}),
(148,734,o),
(182,710,o),
(182,684,q),
(182,633,l),
(211,677,o),
(311,731,o),
(391,731,q,{
name = at02;
}),
(449,731,o),
(530,707,o),
(581,664,o),
(603,605,o),
(603,571,q),
(603,522,o),
(559,423,o),
(522,388,q),
(510,376,o),
(475,349,o),
(434,326,o),
(388,308,o),
(366,305,q,{
name = sv01;
}),
(388,269,o),
(436,200,o),
(488,137,o),
(546,86,o),
(579,68,q),
(598,59,o),
(617,32,o),
(617,18,q),
(617,0,o),
(589,-29,o),
(566,-29,q,{
name = ab02;
}),
(557,-29,o),
(547,-26,q),
(503,-10,o),
(418,66,o),
(342,159,o),
(279,256,o),
(256,294,q,{
name = dv01;
}),
(242,301,o),
(229,326,o),
(229,343,q),
(229,363,o),
(258,394,o),
(293,394,q,{
name = dv02;
}),
(305,394,o),
(339,398,o),
(377,408,o),
(415,425,o),
(432,438,q),
(464,463,o),
(503,527,o),
(503,569,q),
(503,583,o),
(499,605,o),
(496,608,q),
(483,621,o),
(436,632,o),
(408,632,q,{
name = sv02;
}),
(370,632,o),
(317,622,o),
(280,602,o),
(256,571,o),
(248,551,q),
(234,517,o),
(217,443,o),
(207,367,o),
(199,290,o),
(195,254,q),
(180,158,l),
(177,122,o),
(177,84,q),
(177,32,l),
(177,9,o),
(149,-20,o),
(128,-20,q,{
name = ab01;
}),
(76,-20,o),
(76,40,q),
(76,66,o),
(76,109,o),
(78,136,q),
(80,165,l),
(77,235,o),
(77,308,q),
(77,401,o),
(82,583,o),
(82,676,q)
);
}
);
width = 645;
},
{
anchors = (
{
name = bottom;
pos = (318,0);
},
{
name = top;
pos = (361,725);
}
);
hints = (
{
horizontal = 1;
origin = (0,10);
type = TTSnap;
},
{
horizontal = 1;
origin = (0,39);
type = TTSnap;
},
{
horizontal = 1;
options = 4;
origin = (0,24);
target = (1,5);
type = TTStem;
},
{
horizontal = 1;
options = 4;
origin = (0,10);
other1 = (0,5);
target = (0,24);
type = TTInterpolate;
},
{
horizontal = 1;
options = 4;
origin = (0,5);
target = (1,9);
type = TTStem;
},
{
horizontal = 1;
options = 4;
origin = (0,24);
other1 = (0,30);
target = (0,5);
type = TTInterpolate;
},
{
horizontal = 1;
options = 4;
origin = (0,10);
other1 = (0,21);
target = (0,24);
type = TTInterpolate;
},
{
horizontal = 1;
options = 4;
origin = (0,21);
target = (0,16);
type = TTStem;
}
);
layerId = "92936CB7-D294-4857-B41D-63B9425360A1";
shapes = (
{
closed = 1;
nodes = (
(532,-27,o),
(511,-5,q),
(488,20,o),
(310,219,o),
(236,288,q),
(199,283,l,{
name = dv01;
}),
(197,237,o),
(193,130,o),
(188,36,q),
(187,10,o),
(160,-19,o),
(117,-19,o),
(88,10,o),
(89,34,q),
(90,98,o),
(101,453,o),
(102,566,q,{
name = sv02;
}),
(84,558,o),
(55,569,o),
(43,598,o),
(55,630,o),
(72,640,q),
(135,678,o),
(314,726,o),
(399,726,q,{
name = at01;
}),
(497,726,o),
(600,615,o),
(588,523,q),
(577,443,o),
(452,336,o),
(337,307,q,{
name = sv03;
}),
(392,262,o),
(489,171,o),
(564,89,o),
(589,54,q),
(599,40,o),
(603,11,o),
(591,-13,o),
(569,-27,o),
(555,-27,q,{
name = ab02;
})
);
},
{
closed = 1;
nodes = (
(329,382,o),
(471,463,o),
(480,524,q),
(488,580,o),
(433,636,o),
(372,636,q,{
name = sv01;
}),
(296,636,o),
(203,606,q),
(204,499,o),
(201,366,q,{
name = dv02;
})
);
}
);
userData = {
com.typemytype.robofont.mark = (
0.656,
1,
0.6,
1
);
};
width = 645;
}
);
unicode = 82;
}
{
glyphname = S;
kernLeft = S;
kernRight = S;
layers = (
{
anchors = (
{
name = bottom;
pos = (253,-15);
},
{
name = top;
pos = (295,731);
}
);
hints = (
{
horizontal = 1;
options = 4;
origin = (0,50);
target = (0,35);
type = TTStem;
},
{
horizontal = 1;
options = 4;
origin = (0,23);
target = (0,11);
type = TTStem;
},
{
horizontal = 1;
options = 4;
origin = (0,50);
other1 = (0,29);
target = (0,11);
type = TTInterpolate;
},
{
horizontal = 1;
options = 4;
origin = (0,35);
other1 = (0,5);
target = (0,23);
type = TTInterpolate;
}
);
layerId = master01;
shapes = (
{
closed = 1;
nodes = (
(415,-27,o),
(488,61,o),
(488,168,cs),
(488,297,o),
(394,366,o),
(310,424,cs),
(241,472,o),
(178,512,o),
(178,571,cs),
(178,622,o),
(215,640,o),
(278,640,cs),
(322,640,o),
(358,627,o),
(388,606,cs),
(405,594,o),
(419,589,o),
(432,589,cs),
(463,589,o),
(477,621,o),
(459,653,cs),
(436,694,o),
(367,731,o),
(275,731,cs),
(149,731,o),
(74,672,o),
(74,568,cs),
(74,470,o),
(156,409,o),
(236,352,cs),
(311,299,o),
(384,249,o),
(384,172,cs),
(384,95,o),
(337,65,o),
(270,65,cs),
(191,65,o),
(147,97,o),
(117,162,cs),
(106,185,o),
(89,195,o),
(73,195,cs),
(52,195,o),
(32,177,o),
(32,147,cs),
(32,140,o),
(33,133,o),
(35,125,cs),
(55,44,o),
(137,-27,o),
(271,-27,cs)
);
}
);
width = 541;
},
{
layerId = "8E39700C-2F6D-4A17-B4B3-161F49A69C4C";
shapes = (
{
closed = 1;
nodes = (
(454,672,o),
(470,648,o),
(470,628,q),
(470,606,o),
(443,579,o),
(424,579,q),
(414,579,o),
(391,587,o),
(383,598,q),
(369,618,o),
(322,640,o),
(278,640,q),
(260,640,o),
(224,635,o),
(197,624,o),
(180,608,o),
(180,596,q),
(180,561,o),
(232,505,o),
(268,474,q),
(288,457,o),
(330,421,o),
(369,386,o),
(401,356,o),
(412,344,q),
(452,299,o),
(488,216,o),
(488,168,q),
(488,126,o),
(461,52,o),
(406,-3,o),
(325,-36,o),
(271,-36,q),
(209,-36,o),
(117,0,o),
(57,55,o),
(28,121,o),
(28,151,q),
(28,177,o),
(54,204,o),
(74,204,q),
(111,204,o),
(123,173,q),
(127,163,o),
(130,146,o),
(135,136,q),
(152,98,o),
(223,67,o),
(261,67,q),
(318,67,o),
(380,115,o),
(380,172,q),
(380,215,o),
(313,299,o),
(257,347,q),
(232,368,o),
(169,419,o),
(113,478,o),
(74,548,o),
(74,589,q),
(74,635,o),
(114,691,o),
(177,721,o),
(254,731,o),
(291,731,q),
(335,731,o),
(418,710,o),
(444,683,q)
);
}
);
width = 541;
}
);
unicode = 83;
}
{
glyphname = T;
kernLeft = T;
kernRight = T;
layers = (
{
anchors = (
{
name = bottom;
pos = (266,14);
},
{
name = top;
pos = (290,695);
}
);
layerId = master01;
shapes = (
{
closed = 1;
nodes = (
(219,599,o),
(376,608,o),
(534,613,c),
(569,614,o),
(585,630,o),
(585,654,cs),
(585,683,o),
(566,702,o),
(525,703,cs),
(409,707,o),
(216,701,o),
(62,690,cs),
(22,687,o),
(6,668,o),
(6,639,cs),
(6,612,o),
(23,590,o),
(61,592,cs)
);
},
{
closed = 1;
nodes = (
(292,-9,o),
(314,5,o),
(316,44,cs),
(324,248,o),
(333,441,o),
(338,646,c),
(240,639,l),
(231,440,o),
(222,249,o),
(216,49,cs),
(215,10,o),
(240,-9,o),
(265,-9,cs)
);
}
);
userData = {
com.typemytype.robofont.mark = (
0.619,
1,
0.6,
1
);
};
width = 599;
},
{
layerId = "8E39700C-2F6D-4A17-B4B3-161F49A69C4C";
shapes = (
{
closed = 1;
nodes = (
(28,590,o),
(6,624,o),
(6,640,q),
(6,648,o),
(11,665,o),
(23,680,o),
(43,690,o),
(57,690,q),
(90,690,o),
(163,698,o),
(241,708,o),
(321,716,o),
(360,716,q),
(390,716,o),
(460,713,o),
(491,705,q),
(506,701,o),
(538,693,o),
(542,693,q),
(569,693,o),
(591,660,o),
(591,644,q),
(591,626,o),
(563,594,o),
(537,594,q),
(517,594,o),
(482,606,o),
(463,609,q),
(432,614,o),
(369,617,o),
(337,617,q),
(335,540,o),
(329,399,o),
(321,261,o),
(316,120,o),
(316,44,q),
(316,15,o),
(285,-9,o),
(265,-9,q),
(246,-9,o),
(216,20,o),
(216,49,q),
(217,124,o),
(223,261,o),
(230,397,o),
(236,535,o),
(237,610,q),
(190,604,o),
(99,590,o),
(55,590,q)
);
}
);
width = 599;
},
{
anchors = (
{
name = bottom;
pos = (266,14);
},
{
name = top;
pos = (290,695);
}
);
hints = (
{
horizontal = 1;
origin = (0,2);
type = TTSnap;
},
{
horizontal = 1;
options = 4;
origin = (0,17);
target = (0,7);
type = TTStem;
},
{
horizontal = 1;
options = 4;
origin = (0,7);
target = (0,28);
type = TTShift;
},
{
horizontal = 1;
origin = (0,17);
type = TTSnap;
}
);
layerId = "92936CB7-D294-4857-B41D-63B9425360A1";
shapes = (
{
closed = 1;
nodes = (
(314,15,o),
(285,-9,o),
(246,-9,o),
(215,20,o),
(216,49,q),
(220,190,o),
(232,460,o),
(238,600,q),
(193,598,o),
(106,594,o),
(61,592,q),
(32,590,o),
(6,619,o),
(6,661,o),
(32,688,o),
(62,690,q),
(120,694,o),
(246,700,o),
(369,704,o),
(481,704,o),
(525,703,q),
(556,702,o),
(585,676,o),
(585,637,o),
(560,614,o),
(534,613,q),
(484,611,o),
(386,607,o),
(337,605,q),
(333,462,o),
(321,187,o),
(316,44,q)
);
}
);
userData = {
com.typemytype.robofont.mark = (
0.656,
1,
0.6,
1
);
};
width = 599;
}
);
unicode = 84;
}
{
glyphname = U;
kernLeft = U;
kernRight = U;
layers = (
{
anchors = (
{
name = bottom;
pos = (233,10);
},
{
name = bottomAttach;
pos = (570,14);
},
{
name = top;
pos = (324,715);
}
);
layerId = master01;
shapes = (
{
closed = 1;
nodes = (
(63,575,o),
(48,493,o),
(43,380,cs),
(34,179,o),
(79,-11,o),
(232,-11,cs),
(322,-11,o),
(411,39,o),
(464,347,c),
(424,351,l),
(396,116,o),
(446,-25,o),
(526,-25,cs),
(557,-25,o),
(577,-7,o),
(577,20,cs),
(577,33,o),
(571,44,o),
(561,53,cs),
(547,65,o),
(530,80,o),
(519,99,cs),
(492,145,o),
(493,303,o),
(514,486,c),
(525,548,o),
(535,607,o),
(534,656,cs),
(533,691,o),
(514,709,o),
(487,709,cs),
(461,709,o),
(442,693,o),
(434,661,cs),
(425,626,o),
(416,554,o),
(414,490,c),
(399,375,o),
(379,293,o),
(360,229,cs),
(329,122,o),
(293,85,o),
(241,85,cs),
(176,85,o),
(134,201,o),
(142,359,cs),
(148,468,o),
(164,546,o),
(184,654,cs),
(191,694,o),
(167,717,o),
(138,717,cs),
(116,717,o),
(94,703,o),
(86,672,cs)
);
}
);
userData = {
com.typemytype.robofont.mark = (
1,
0.976,
0.6,
1
);
};
width = 605;
},
{
layerId = "8E39700C-2F6D-4A17-B4B3-161F49A69C4C";
shapes = (
{
closed = 1;
nodes = (
(91,691,o),
(114,718,o),
(137,718,q,{
name = av01;
}),
(159,718,o),
(186,689,o),
(186,668,q),
(186,657,o),
(180,625,o),
(171,589,o),
(162,552,o),
(159,535,q),
(151,489,o),
(139,397,o),
(139,343,q),
(139,308,o),
(150,220,o),
(174,142,o),
(212,89,o),
(239,89,q,{
name = sv01;
}),
(254,89,o),
(279,105,o),
(299,130,o),
(314,158,o),
(320,170,q),
(340,213,o),
(372,342,o),
(396,477,o),
(411,599,o),
(415,635,q),
(415,643,o),
(416,662,o),
(417,667,q),
(419,684,o),
(442,709,o),
(468,709,q,{
name = av02;
}),
(488,709,o),
(516,681,o),
(516,656,q),
(516,626,o),
(508,564,o),
(502,530,q),
(499,499,o),
(495,438,o),
(492,385,o),
(490,346,o),
(490,337,q),
(489,323,o),
(489,295,o),
(489,281,q),
(489,234,o),
(496,146,o),
(502,123,q),
(505,111,o),
(520,84,o),
(528,78,q,{
name = sv02;
}),
(556,74,o),
(577,42,o),
(577,24,q),
(577,1,o),
(549,-25,o),
(526,-25,q,{
name = ab02;
}),
(480,-25,o),
(414,52,o),
(400,124,q),
(371,53,o),
(289,-11,o),
(223,-11,q,{
name = ab01;
}),
(171,-11,o),
(89,74,o),
(68,148,q),
(53,202,o),
(41,298,o),
(41,353,q),
(41,433,o),
(69,599,o),
(86,672,q)
);
}
);
width = 605;
},
{
anchors = (
{
name = bottom;
pos = (233,10);
},
{
name = bottomAttach;
pos = (570,14);
},
{
name = top;
pos = (324,715);
}
);
background = {
shapes = (
{
closed = 1;
nodes = (
(557,-25,o),
(577,-7,o),
(577,20,cs),
(577,33,o),
(571,44,o),
(561,53,cs),
(547,65,o),
(530,80,o),
(519,99,cs),
(492,145,o),
(493,303,o),
(514,486,c),
(525,548,o),
(535,607,o),
(534,656,cs),
(533,691,o),
(514,709,o),
(487,709,cs),
(461,709,o),
(442,693,o),
(434,661,cs),
(425,626,o),
(416,554,o),
(414,490,c),
(399,375,o),
(379,293,o),
(360,229,cs),
(329,122,o),
(293,85,o),
(241,85,cs),
(176,85,o),
(134,201,o),
(142,359,cs),
(148,468,o),
(164,546,o),
(184,654,cs),
(191,694,o),
(167,717,o),
(138,717,cs),
(116,717,o),
(94,703,o),
(86,672,cs),
(63,575,o),
(48,493,o),
(43,380,cs),
(34,179,o),
(79,-11,o),
(232,-11,cs),
(300,-11,o),
(367,17,o),
(419,163,c),
(429,43,o),
(470,-25,o),
(526,-25,cs)
);
}
);
};
hints = (
{
horizontal = 1;
options = 4;
origin = (0,5);
target = (0,25);
type = TTStem;
},
{
horizontal = 1;
origin = (0,35);
type = TTSnap;
},
{
horizontal = 1;
origin = (0,51);
type = TTSnap;
},
{
horizontal = 1;
options = 4;
origin = (0,5);
other1 = (0,2);
target = (0,35);
type = TTInterpolate;
},
{
horizontal = 1;
origin = (0,35);
target = (0,14);
type = TTShift;
}
);
layerId = "92936CB7-D294-4857-B41D-63B9425360A1";
shapes = (
{
closed = 1;
nodes = (
(483,-25,o),
(426,74,o),
(419,163,q),
(387,73,o),
(299,-11,o),
(232,-11,qs),
(133,-11,o),
(35,197,o),
(43,380,qs),
(46,453,o),
(65,585,o),
(86,672,qs),
(91,693,o),
(119,717,o),
(138,717,qs),
(162,717,o),
(190,682,o),
(184,654,qs),
(178,625,ls),
(162,548,o),
(145,426,o),
(142,359,qs),
(138,282,o),
(161,156,o),
(209,85,o),
(241,85,qs),
(282,85,o),
(338,152,o),
(360,229,qs),
(396,349,o),
(414,490,q),
(415,536,o),
(427,634,o),
(434,661,qs),
(446,709,o),
(487,709,qs),
(508,709,o),
(533,682,o),
(534,656,qs),
(535,629,o),
(527,557,o),
(514,486,q),
(497,341,o),
(500,132,o),
(519,99,qs),
(530,79,o),
(561,53,qs),
(577,39,o),
(577,20,qs),
(577,0,o),
(549,-25,o),
(526,-25,qs)
);
}
);
userData = {
com.typemytype.robofont.mark = (
0.656,
1,
0.6,
1
);
};
width = 605;
}
);
unicode = 85;
}
{
glyphname = V;
layers = (
{
anchors = (
{
name = bottom;
pos = (281,-3);
},
{
name = top;
pos = (355,667);
}
);
layerId = master01;
shapes = (
{
closed = 1;
nodes = (
(126,426,o),
(175,220,o),
(236,15,cs),
(244,-12,o),
(262,-24,o),
(282,-24,cs),
(303,-24,o),
(322,-12,o),
(335,9,cs),
(457,208,o),
(570,414,o),
(661,624,cs),
(680,668,o),
(650,697,o),
(615,697,cs),
(597,697,o),
(578,688,o),
(569,667,cs),
(483,474,o),
(389,283,o),
(281,95,c),
(310,97,l),
(267,283,o),
(224,469,o),
(180,657,cs),
(173,688,o),
(152,702,o),
(129,702,cs),
(100,702,o),
(72,677,o),
(81,633,cs)
);
}
);
userData = {
com.typemytype.robofont.mark = (
1,
0.976,
0.6,
1
);
};
width = 716;
},
{
layerId = "8E39700C-2F6D-4A17-B4B3-161F49A69C4C";
shapes = (
{
closed = 1;
nodes = (
(32,641,o),
(30,657,o),
(30,665,q),
(30,688,o),
(58,711,o),
(76,711,q,{
name = av01;
}),
(89,711,o),
(117,695,o),
(126,677,q),
(151,627,o),
(195,509,o),
(233,386,o),
(267,263,o),
(281,209,q),
(285,194,o),
(292,164,o),
(295,149,q),
(331,221,o),
(402,365,o),
(447,434,q),
(490,499,o),
(582,619,o),
(617,691,q,{
name = sv01;
}),
(625,709,o),
(653,721,o),
(665,721,q,{
name = at01;
}),
(684,721,o),
(712,693,o),
(712,669,q),
(712,659,o),
(707,649,q),
(683,601,o),
(627,515,o),
(567,432,o),
(508,347,o),
(483,301,q),
(457,253,o),
(410,157,o),
(386,108,q),
(375,88,o),
(353,40,o),
(336,23,q),
(331,5,o),
(307,-24,o),
(284,-24,q,{
name = ab01;
}),
(257,-24,o),
(223,22,o),
(203,87,o),
(190,159,o),
(184,185,q),
(170,238,o),
(139,354,o),
(103,471,o),
(61,583,o),
(37,633,q)
);
}
);
width = 716;
},
{
anchors = (
{
name = bottom;
pos = (281,-3);
},
{
name = top;
pos = (355,667);
}
);
background = {
shapes = (
{
closed = 1;
nodes = (
(597,697,o),
(578,688,o),
(569,667,cs),
(489,487,o),
(401,308,o),
(302,132,c,{
name = sv01;
}),
(262,306,o),
(221,481,o),
(180,657,cs),
(173,688,o),
(152,702,o),
(129,702,cs),
(100,702,o),
(72,677,o),
(81,633,cs),
(126,426,o),
(175,220,o),
(236,15,cs),
(244,-12,o),
(262,-24,o),
(282,-24,cs),
(303,-24,o),
(322,-12,o),
(335,9,cs),
(457,208,o),
(570,414,o),
(661,624,cs),
(680,668,o),
(650,697,o),
(615,697,cs)
);
}
);
};
hints = (
{
horizontal = 1;
origin = (0,23);
type = TTSnap;
},
{
horizontal = 1;
origin = (0,15);
type = TTSnap;
},
{
horizontal = 1;
origin = (0,15);
target = (0,6);
type = TTShift;
},
{
horizontal = 1;
options = 4;
origin = (0,23);
other1 = (0,11);
target = (0,15);
type = TTInterpolate;
}
);
layerId = "92936CB7-D294-4857-B41D-63B9425360A1";
shapes = (
{
closed = 1;
nodes = (
(315,-24,o),
(335,9,qs),
(538,340,o),
(661,624,qs),
(674,654,o),
(644,697,o),
(615,697,qs),
(600,697,o),
(575,681,o),
(569,667,qs),
(441,380,o),
(302,132,q,{
name = sv01;
}),
(180,657,ls),
(175,679,o),
(148,702,o),
(129,702,qs),
(104,702,o),
(75,663,o),
(81,633,qs),
(159,273,o),
(236,15,qs),
(242,-4,o),
(266,-24,o),
(282,-24,qs)
);
}
);
userData = {
com.typemytype.robofont.mark = (
0.656,
1,
0.6,
1
);
};
width = 716;
}
);
unicode = 86;
}
{
glyphname = W;
kernLeft = W;
kernRight = W;
layers = (
{
anchors = (
{
name = bottom;
pos = (394,0);
},
{
name = top;
pos = (434,715);
}
);
layerId = master01;
shapes = (
{
closed = 1;
nodes = (
(68,446,o),
(107,242,o),
(157,41,cs),
(164,13,o),
(183,0,o),
(207,0,cs),
(228,0,o),
(249,13,o),
(256,36,c),
(315,174,o),
(376,309,o),
(434,443,c),
(407,435,l),
(447,291,o),
(497,144,o),
(556,19,c),
(566,-9,o),
(584,-23,o),
(607,-23,cs),
(636,-23,o),
(655,-5,o),
(665,29,cs),
(724,237,o),
(764,447,o),
(793,656,cs),
(799,697,o),
(773,719,o),
(742,719,cs),
(719,719,o),
(697,705,o),
(693,676,cs),
(668,478,o),
(629,279,o),
(580,83,c),
(632,63,l),
(572,216,o),
(527,373,o),
(482,533,cs),
(474,561,o),
(455,576,o),
(428,576,cs),
(402,576,o),
(382,562,o),
(373,532,c),
(310,396,o),
(247,262,o),
(199,122,c),
(231,121,l),
(196,304,o),
(160,486,o),
(139,670,cs),
(136,700,o),
(116,714,o),
(94,714,cs),
(61,714,o),
(34,690,o),
(40,649,cs)
);
}
);
userData = {
com.typemytype.robofont.mark = (
1,
0.976,
0.6,
1
);
};
width = 839;
},
{
layerId = "8E39700C-2F6D-4A17-B4B3-161F49A69C4C";
shapes = (
{
closed = 1;
nodes = (
(39,573,o),
(69,599,o),
(88,599,q,{
name = av01;
}),
(111,599,o),
(135,570,o),
(140,540,q),
(151,461,o),
(191,303,o),
(218,214,q),
(235,243,o),
(268,301,o),
(282,330,q),
(288,343,o),
(300,376,o),
(316,406,o),
(341,426,o),
(360,426,q,{
name = av04;
}),
(373,426,o),
(394,416,o),
(401,404,q),
(444,347,o),
(509,199,o),
(525,116,q),
(570,178,o),
(635,301,o),
(677,433,o),
(699,579,o),
(703,665,q,{
name = sv01;
}),
(704,686,o),
(733,714,o),
(754,714,q,{
name = av02;
}),
(774,714,o),
(803,687,o),
(803,664,q,{
name = sv02;
}),
(803,568,o),
(764,368,o),
(727,276,q),
(700,208,o),
(629,92,o),
(592,47,q),
(583,36,o),
(564,11,o),
(543,-10,o),
(519,-25,o),
(505,-25,q,{
name = ab01;
}),
(462,-25,o),
(447,41,q),
(441,70,o),
(424,132,o),
(402,191,o),
(376,244,o),
(361,265,q),
(349,242,o),
(321,194,o),
(294,149,o),
(269,110,o),
(260,95,q),
(255,88,o),
(248,71,o),
(236,56,o),
(217,46,o),
(201,46,q,{
name = av03;
}),
(181,46,o),
(161,61,o),
(153,77,q),
(149,85,o),
(137,121,o),
(123,169,o),
(107,226,o),
(100,255,q),
(74,361,o),
(39,505,o),
(39,541,q)
);
}
);
width = 839;
},
{
anchors = (
{
name = bottom;
pos = (394,0);
},
{
name = top;
pos = (434,715);
}
);
hints = (
{
horizontal = 1;
origin = (0,19);
type = TTSnap;
},
{
horizontal = 1;
origin = (0,42);
type = TTSnap;
},
{
horizontal = 1;
origin = (0,10);
type = TTSnap;
},
{
horizontal = 1;
origin = (0,50);
type = TTSnap;
},
{
horizontal = 1;
origin = (0,31);
type = TTSnap;
},
{
horizontal = 1;
options = 4;
origin = (0,19);
other1 = (0,25);
target = (0,10);
type = TTInterpolate;
},
{
horizontal = 1;
options = 4;
origin = (0,42);
other1 = (0,36);
target = (0,50);
type = TTInterpolate;
},
{
horizontal = 1;
options = 4;
origin = (0,10);
other1 = (0,4);
target = (0,31);
type = TTInterpolate;
}
);
layerId = "92936CB7-D294-4857-B41D-63B9425360A1";
shapes = (
{
closed = 1;
nodes = (
(571,-23,o),
(556,19,q),
(519,96,o),
(450,286,o),
(416,402,q,{
name = sv03;
}),
(394,351,o),
(287,107,o),
(256,36,q),
(251,19,o),
(223,0,o),
(207,0,q,{
name = ab01;
}),
(188,0,o),
(162,21,o),
(157,41,q),
(120,191,o),
(61,496,o),
(40,649,q),
(36,678,o),
(67,714,o),
(94,714,q,{
name = at01;
}),
(113,714,o),
(137,690,o),
(139,670,q),
(150,572,o),
(187,346,o),
(220,180,q,{
name = sv01;
}),
(259,286,o),
(367,519,o),
(373,532,q),
(380,554,o),
(408,576,o),
(428,576,q,{
name = av01;
}),
(470,576,o),
(482,533,q),
(523,388,o),
(573,224,o),
(598,155,q,{
name = sv02;
}),
(630,295,o),
(678,554,o),
(693,676,q),
(696,696,o),
(723,719,o),
(742,719,q,{
name = at02;
}),
(768,719,o),
(797,684,o),
(793,656,q),
(769,482,o),
(705,172,o),
(665,29,q),
(650,-23,o),
(607,-23,q,{
name = ab02;
})
);
}
);
userData = {
com.typemytype.robofont.mark = (
0.656,
1,
0.6,
1
);
};
width = 839;
}
);
unicode = 87;
}
{
glyphname = X;
kernLeft = X;
kernRight = X;
layers = (
{
anchors = (
{
name = bottom;
pos = (344,16);
},
{
name = top;
pos = (381,671);
}
);
background = {
shapes = (
{
closed = 1;
nodes = (
(502,230,o),
(313,474,o),
(180,651,cs),
(132,715,o),
(53,654,o),
(101,588,cs),
(236,400,o),
(472,119,o),
(625,16,cs),
(683,-23,o),
(731,52,o),
(672,98,cs)
);
},
{
closed = 1;
nodes = (
(295,380,l),
(202,288,o),
(114,192,o),
(36,94,cs),
(-10,36,o),
(65,-29,o),
(110,28,cs),
(186,124,o),
(271,217,o),
(360,307,c)
);
},
{
closed = 1;
nodes = (
(396,336,l),
(493,432,o),
(595,525,o),
(698,614,cs),
(755,663,o),
(687,730,o),
(636,686,cs),
(534,598,o),
(431,506,o),
(335,412,c)
);
}
);
};
layerId = master01;
shapes = (
{
closed = 1;
nodes = (
(502,230,o),
(313,474,o),
(180,651,cs),
(132,715,o),
(53,654,o),
(101,588,cs),
(236,400,o),
(472,119,o),
(625,16,cs),
(683,-23,o),
(731,52,o),
(672,98,cs)
);
},
{
closed = 1;
nodes = (
(295,380,l),
(202,288,o),
(114,192,o),
(36,94,cs),
(-10,36,o),
(65,-29,o),
(110,28,cs),
(186,124,o),
(270,218,o),
(357,311,c)
);
},
{
closed = 1;
nodes = (
(396,336,l),
(493,432,o),
(595,525,o),
(698,614,cs),
(755,663,o),
(687,730,o),
(636,686,cs),
(534,598,o),
(432,506,o),
(340,409,c)
);
}
);
width = 724;
},
{
layerId = "8E39700C-2F6D-4A17-B4B3-161F49A69C4C";
shapes = (
{
closed = 1;
nodes = (
(95,596,o),
(86,618,o),
(86,629,q),
(86,652,o),
(112,679,o),
(131,679,q,{
name = av01;
}),
(148,679,o),
(168,662,o),
(176,651,q),
(218,597,o),
(319,486,o),
(362,428,q,{
name = iv01;
}),
(433,492,o),
(565,613,o),
(626,685,q),
(634,695,o),
(657,703,o),
(666,703,q,{
name = av02;
}),
(686,703,o),
(714,676,o),
(714,656,q),
(714,634,o),
(701,620,q),
(636,548,o),
(498,418,o),
(426,352,q),
(455,316,o),
(518,244,o),
(582,178,o),
(646,121,o),
(676,101,q),
(691,90,o),
(702,65,o),
(702,52,q),
(702,33,o),
(677,6,o),
(659,6,q,{
name = ab01;
}),
(651,6,o),
(634,9,o),
(628,13,q),
(593,35,o),
(521,98,o),
(450,170,o),
(383,247,o),
(353,285,q,{
name = iv02;
}),
(320,254,o),
(259,198,o),
(200,140,o),
(143,73,o),
(115,30,q),
(107,16,o),
(82,8,o),
(71,8,q,{
name = ab02;
}),
(52,8,o),
(26,35,o),
(26,56,q),
(26,74,o),
(35,88,q),
(57,121,o),
(93,170,o),
(131,212,o),
(174,255,o),
(203,282,q),
(288,361,l),
(262,397,o),
(217,450,o),
(173,500,o),
(128,553,o),
(101,588,q)
);
}
);
width = 724;
},
{
anchors = (
{
name = bottom;
pos = (344,16);
},
{
name = top;
pos = (381,671);
}
);
background = {
shapes = (
{
closed = 1;
nodes = (
(540,603,o),
(443,516,o),
(356,425,c),
(292,504,o),
(232,582,o),
(180,651,cs),
(166,670,o),
(149,678,o),
(133,678,cs),
(96,678,o),
(67,634,o),
(101,588,cs),
(149,520,o),
(211,441,o),
(277,362,c),
(191,276,o),
(109,186,o),
(36,94,cs),
(2,52,o),
(33,6,o),
(70,6,cs),
(84,6,o),
(98,13,o),
(110,28,cs),
(180,117,o),
(258,204,o),
(338,291,c),
(439,176,o),
(544,71,o),
(625,16,cs),
(636,8,o),
(647,5,o),
(657,5,cs),
(698,5,o),
(720,61,o),
(672,98,cs),
(588,163,o),
(499,256,o),
(415,355,c),
(506,444,o),
(602,531,o),
(698,614,cs),
(742,652,o),
(712,700,o),
(672,700,cs),
(660,700,o),
(648,696,o),
(636,686,cs)
);
}
);
};
hints = (
{
horizontal = 1;
origin = (0,7);
type = TTSnap;
},
{
horizontal = 1;
origin = (0,0);
type = TTSnap;
},
{
horizontal = 1;
origin = (0,27);
type = TTSnap;
},
{
horizontal = 1;
origin = (0,27);
target = (0,19);
type = TTShift;
},
{
horizontal = 1;
options = 4;
origin = (0,0);
other1 = (0,3);
target = (0,27);
type = TTInterpolate;
},
{
horizontal = 1;
options = 4;
origin = (0,0);
other1 = (0,23);
target = (0,27);
type = TTInterpolate;
},
{
horizontal = 1;
options = 4;
origin = (0,3);
other1 = (0,33);
target = (0,23);
type = TTInterpolate;
},
{
horizontal = 1;
options = 4;
origin = (0,3);
other1 = (0,13);
target = (0,23);
type = TTInterpolate;
}
);
layerId = "92936CB7-D294-4857-B41D-63B9425360A1";
shapes = (
{
closed = 1;
nodes = (
(640,5,o),
(625,16,qs),
(512,93,o),
(338,291,q),
(192,132,o),
(110,28,qs),
(92,6,o),
(70,6,qs),
(51,6,o),
(22,34,o),
(21,75,o),
(36,94,qs),
(140,225,o),
(277,362,q),
(171,489,o),
(101,588,qs),
(86,609,o),
(86,650,o),
(114,678,o),
(133,678,qs),
(160,678,o),
(180,651,qs),
(275,526,o),
(356,425,q),
(460,534,o),
(636,686,qs),
(653,700,o),
(692,700,o),
(721,671,o),
(718,631,o),
(698,614,qs),
(541,478,o),
(415,355,q),
(559,186,o),
(672,98,qs),
(694,81,o),
(703,38,o),
(678,5,o),
(657,5,qs)
);
}
);
width = 724;
}
);
unicode = 88;
}
{
glyphname = Y;
kernLeft = Y;
kernRight = Y;
layers = (
{
anchors = (
{
name = bottom;
pos = (259,-6);
},
{
name = top;
pos = (343,725);
}
);
background = {
shapes = (
{
closed = 1;
nodes = (
(59,570,o),
(142,396,o),
(242,329,c),
(234,229,o),
(209,113,o),
(209,29,cs),
(209,-10,o),
(233,-29,o),
(258,-29,cs),
(281,-29,o),
(309,-14,o),
(309,21,cs),
(309,108,o),
(335,230,o),
(343,334,c),
(399,369,o),
(463,420,o),
(503,471,cs),
(534,510,o),
(556,551,o),
(583,591,cs),
(604,623,o),
(646,642,o),
(646,678,cs),
(646,702,o),
(630,730,o),
(599,730,cs),
(580,730,o),
(560,715,o),
(544,702,cs),
(491,659,o),
(468,586,o),
(425,533,cs),
(390,490,o),
(347,462,o),
(304,430,c),
(293,430,o),
(287,429,o),
(282,428,c),
(206,508,o),
(157,587,o),
(124,698,cs),
(116,725,o),
(95,739,o),
(72,739,cs),
(45,739,o),
(25,719,o),
(25,694,cs),
(25,687,o),
(24,681,o),
(27,674,c)
);
}
);
};
layerId = master01;
shapes = (
{
closed = 1;
nodes = (
(281,-29,o),
(303,-14,o),
(309,21,cs),
(324,116,o),
(339,254,o),
(345,363,c),
(320,320,l),
(380,355,o),
(451,418,o),
(503,471,cs),
(538,507,o),
(616,610,o),
(634,659,cs),
(648,698,o),
(631,731,o),
(596,731,cs),
(571,731,o),
(552,712,o),
(536,686,cs),
(508,640,o),
(469,585,o),
(425,533,cs),
(377,476,o),
(338,437,o),
(279,393,c),
(313,393,l),
(222,484,o),
(161,572,o),
(126,691,cs),
(116,725,o),
(97,739,o),
(70,739,cs),
(33,739,o),
(19,703,o),
(29,666,cs),
(61,543,o),
(166,379,o),
(264,316,c),
(244,358,l),
(239,252,o),
(216,126,o),
(209,29,cs),
(206,-10,o),
(233,-29,o),
(258,-29,cs)
);
}
);
width = 657;
},
{
layerId = "8E39700C-2F6D-4A17-B4B3-161F49A69C4C";
shapes = (
{
closed = 1;
nodes = (
(25,679,o),
(25,689,o),
(25,694,q),
(25,713,o),
(52,739,o),
(72,739,q,{
name = at01;
}),
(89,739,o),
(118,718,o),
(124,698,q,{
name = sv01;
}),
(149,615,o),
(225,488,o),
(282,428,q,{
name = av01;
}),
(286,429,o),
(296,430,o),
(304,430,q),
(336,454,o),
(399,501,o),
(425,533,q),
(441,553,o),
(467,599,o),
(494,644,o),
(524,686,o),
(544,702,q),
(556,712,o),
(585,730,o),
(599,730,q,{
name = at02;
}),
(622,730,o),
(646,696,o),
(646,678,q),
(646,665,o),
(632,643,o),
(613,623,o),
(591,603,o),
(583,591,q),
(563,561,o),
(526,500,o),
(503,471,q),
(488,452,o),
(450,414,o),
(408,379,o),
(364,347,o),
(343,334,q),
(340,295,o),
(329,212,o),
(317,130,o),
(309,54,o),
(309,21,q,{
name = sv02;
}),
(309,-5,o),
(275,-29,o),
(258,-29,q,{
name = ab01;
}),
(239,-29,o),
(209,0,o),
(209,29,q,{
name = sv03;
}),
(209,60,o),
(217,134,o),
(227,212,o),
(239,291,o),
(242,329,q),
(205,354,o),
(137,439,o),
(81,536,o),
(39,635,o),
(27,674,q)
);
}
);
width = 657;
},
{
anchors = (
{
name = bottom;
pos = (259,-6);
},
{
name = top;
pos = (343,725);
}
);
hints = (
{
horizontal = 1;
origin = (0,37);
type = TTSnap;
},
{
horizontal = 1;
origin = (0,12);
type = TTSnap;
},
{
horizontal = 1;
origin = (0,24);
type = TTSnap;
},
{
horizontal = 1;
options = 4;
origin = (0,37);
other1 = (0,17);
target = (0,12);
type = TTInterpolate;
},
{
horizontal = 1;
options = 4;
origin = (0,37);
other1 = (0,6);
target = (0,12);
type = TTInterpolate;
},
{
horizontal = 1;
options = 4;
origin = (0,6);
target = (0,32);
type = TTShift;
}
);
layerId = "92936CB7-D294-4857-B41D-63B9425360A1";
shapes = (
{
closed = 1;
nodes = (
(236,-29,o),
(207,3,o),
(209,29,qs),
(213,84,o),
(225,173,qs),
(236,259,o),
(242,331,q),
(175,384,o),
(52,578,o),
(29,666,qs),
(21,696,o),
(44,739,o),
(70,739,qs),
(112,739,o),
(126,691,qs),
(149,612,o),
(230,478,o),
(298,408,q),
(332,434,o),
(389,491,o),
(425,533,qs),
(489,608,o),
(536,686,qs),
(564,731,o),
(596,731,qs),
(622,731,o),
(645,688,o),
(634,659,qs),
(622,627,o),
(535,504,o),
(503,471,qs),
(418,384,o),
(343,335,q),
(331,158,o),
(309,21,qs),
(305,-3,o),
(277,-29,o),
(258,-29,qs)
);
}
);
width = 657;
}
);
unicode = 89;
}
{
glyphname = Z;
kernLeft = Z;
kernRight = Z;
layers = (
{
anchors = (
{
name = bottom;
pos = (373,8);
},
{
name = top;
pos = (296,721);
}
);
background = {
shapes = (
{
closed = 1;
nodes = (
(374,555,o),
(316,456,o),
(261,359,cs),
(206,262,o),
(150,171,o),
(87,78,c),
(76,69,o),
(66,53,o),
(66,35,cs),
(66,3,o),
(93,-16,o),
(150,-14,cs),
(247,-11,o),
(531,-4,o),
(623,-2,cs),
(656,-1,o),
(677,21,o),
(677,48,cs),
(677,75,o),
(659,98,o),
(623,98,cs),
(560,98,o),
(333,88,o),
(154,72,c),
(182,49,l),
(239,135,o),
(292,218,o),
(343,303,cs),
(406,408,o),
(468,513,o),
(524,617,c),
(538,631,o),
(546,646,o),
(546,663,cs),
(546,698,o),
(517,714,o),
(479,716,cs),
(353,721,o),
(195,722,o),
(93,722,cs),
(56,722,o),
(37,695,o),
(37,671,cs),
(37,643,o),
(56,621,o),
(101,621,cs),
(207,621,o),
(332,621,o),
(446,618,c),
(434,654,l)
);
}
);
};
layerId = master01;
shapes = (
{
closed = 1;
nodes = (
(374,555,o),
(316,456,o),
(261,359,cs),
(206,262,o),
(150,171,o),
(87,78,c),
(76,69,o),
(66,53,o),
(66,35,cs),
(66,3,o),
(93,-16,o),
(150,-14,cs),
(247,-11,o),
(516,-4,o),
(608,-2,cs),
(641,-1,o),
(662,21,o),
(662,48,cs),
(662,75,o),
(644,98,o),
(608,98,cs),
(545,98,o),
(333,88,o),
(154,72,c),
(182,49,l),
(239,135,o),
(292,218,o),
(343,303,cs),
(406,408,o),
(468,513,o),
(524,617,c),
(538,631,o),
(546,646,o),
(546,663,cs),
(546,698,o),
(517,714,o),
(479,716,cs),
(353,721,o),
(207,722,o),
(105,722,cs),
(68,722,o),
(49,695,o),
(49,671,cs),
(49,643,o),
(68,621,o),
(113,621,cs),
(219,621,o),
(332,621,o),
(446,618,c),
(434,654,l)
);
}
);
width = 687;
},
{
layerId = "8E39700C-2F6D-4A17-B4B3-161F49A69C4C";
shapes = (
{
closed = 1;
nodes = (
(407,615,l),
(357,617,o),
(276,620,o),
(201,621,o),
(128,621,o),
(87,621,q),
(64,621,o),
(37,653,o),
(37,671,q),
(37,689,o),
(66,721,o),
(87,721,q),
(186,721,o),
(377,719,o),
(474,717,q),
(478,717,o),
(486,718,o),
(490,718,q),
(510,718,o),
(546,692,o),
(546,664,q),
(546,645,o),
(521,612,o),
(511,596,q),
(410,424,l),
(351,321,l),
(338,297,o),
(308,245,o),
(294,219,q),
(277,187,o),
(240,128,o),
(220,96,q),
(211,83,l),
(274,85,o),
(401,90,o),
(512,95,o),
(599,98,o),
(623,98,q),
(650,98,o),
(677,65,o),
(677,48,q),
(677,31,o),
(648,-2,o),
(623,-2,q),
(606,-2,o),
(560,-3,o),
(508,-5,o),
(453,-7,o),
(429,-8,q),
(364,-10,o),
(241,-17,o),
(185,-17,q),
(164,-17,o),
(121,-14,o),
(87,-4,o),
(66,18,o),
(66,38,q),
(66,58,o),
(84,80,o),
(95,92,q),
(112,111,o),
(139,155,o),
(153,176,q),
(175,210,o),
(216,281,o),
(236,316,q),
(291,418,l)
);
}
);
width = 687;
},
{
anchors = (
{
name = bottom;
pos = (373,8);
},
{
name = top;
pos = (296,721);
}
);
hints = (
{
horizontal = 1;
options = 4;
origin = (0,34);
target = (0,29);
type = TTStem;
},
{
horizontal = 1;
options = 4;
origin = (0,16);
target = (0,11);
type = TTStem;
},
{
horizontal = 1;
options = 4;
origin = (0,11);
target = (0,22);
type = TTShift;
},
{
horizontal = 1;
options = 4;
origin = (0,29);
target = (0,5);
type = TTShift;
}
);
layerId = "92936CB7-D294-4857-B41D-63B9425360A1";
shapes = (
{
closed = 1;
nodes = (
(109,-15,o),
(66,10,o),
(66,35,qs),
(66,47,o),
(77,70,o),
(87,78,q),
(177,211,o),
(261,359,qs),
(332,483,o),
(413,619,q),
(310,621,o),
(113,621,qs),
(82,621,o),
(49,648,o),
(49,692,o),
(80,722,o),
(105,722,qs),
(328,722,o),
(479,716,qs),
(511,715,o),
(546,687,o),
(546,639,o),
(524,617,q),
(459,497,o),
(343,303,qs),
(271,183,o),
(200,76,q),
(310,85,o),
(555,98,o),
(608,98,qs),
(633,98,o),
(662,70,o),
(662,27,o),
(632,-1,o),
(608,-2,qs),
(150,-14,ls)
);
}
);
width = 687;
}
);
unicode = 90;
}
{
glyphname = bracketleft;
layers = (
{
color = 3;
layerId = master01;
shapes = (
{
closed = 1;
nodes = (
(298,-126,o),
(352,-118,o),
(352,-73,cs),
(352,-52,o),
(335,-28,o),
(292,-28,cs),
(253,-28,o),
(200,-35,o),
(149,-43,c),
(184,-53,l),
(177,26,o),
(174,120,o),
(174,218,cs),
(174,366,o),
(181,525,o),
(197,668,c),
(145,656,l),
(220,639,o),
(282,628,o),
(335,628,cs),
(361,628,o),
(380,644,o),
(380,669,cs),
(380,690,o),
(368,706,o),
(344,715,cs),
(305,730,o),
(246,738,o),
(184,738,cs),
(147,738,o),
(113,723,o),
(104,683,cs),
(84,598,o),
(76,439,o),
(76,283,cs),
(76,155,o),
(82,28,o),
(92,-53,c),
(90,-123,o),
(155,-126,o),
(197,-126,cs)
);
}
);
width = 408;
},
{
layerId = "8E39700C-2F6D-4A17-B4B3-161F49A69C4C";
shapes = (
{
closed = 1;
nodes = (
(241,738,o),
(300,728,o),
(338,719,q),
(360,714,o),
(380,685,o),
(380,671,q),
(380,653,o),
(353,621,o),
(326,621,q),
(311,621,o),
(286,626,o),
(259,633,o),
(224,638,o),
(199,638,q),
(184,534,o),
(175,326,o),
(175,221,q),
(175,159,o),
(186,27,o),
(194,-27,q),
(220,-26,o),
(271,-19,o),
(296,-19,q),
(325,-19,o),
(352,-52,o),
(352,-69,q),
(352,-105,o),
(273,-126,o),
(197,-126,q),
(177,-126,o),
(139,-121,o),
(110,-106,o),
(92,-81,o),
(92,-61,q),
(92,-53,l),
(89,-26,o),
(84,42,o),
(80,117,o),
(77,194,o),
(77,231,q),
(77,266,o),
(78,355,o),
(80,449,o),
(85,543,o),
(93,625,o),
(106,689,o),
(115,706,q),
(125,724,o),
(172,738,o),
(201,738,q)
);
}
);
width = 408;
}
);
unicode = 91;
}
{
glyphname = backslash;
layers = (
{
color = 1;
layerId = master01;
shapes = (
{
closed = 1;
nodes = (
(63,598,o),
(114,541,o),
(135,493,cs),
(178,396,o),
(209,295,o),
(252,195,cs),
(279,134,o),
(323,76,o),
(334,7,cs),
(339,-28,o),
(366,-41,o),
(386,-41,cs),
(409,-41,o),
(435,-24,o),
(435,9,cs),
(435,73,o),
(376,160,o),
(344,235,cs),
(285,374,o),
(242,519,o),
(165,644,cs),
(160,651,o),
(153,698,o),
(112,698,cs),
(87,698,o),
(63,685,o),
(63,650,cs)
);
}
);
width = 489;
},
{
layerId = "8E39700C-2F6D-4A17-B4B3-161F49A69C4C";
shapes = (
{
closed = 1;
nodes = (
(63,676,o),
(93,698,o),
(112,698,q,{
name = av01;
}),
(127,698,o),
(147,683,o),
(158,664,o),
(163,647,o),
(165,644,q),
(194,597,o),
(240,496,o),
(282,393,o),
(322,287,o),
(344,235,q),
(356,207,o),
(387,147,o),
(416,89,o),
(435,33,o),
(435,9,q),
(435,-16,o),
(403,-41,o),
(386,-41,q,{
name = ab01;
}),
(371,-41,o),
(338,-19,o),
(334,7,q),
(330,33,o),
(311,81,o),
(287,127,o),
(262,172,o),
(252,195,q),
(220,270,o),
(167,420,o),
(135,493,q),
(127,511,o),
(103,550,o),
(80,590,o),
(63,630,o),
(63,650,q)
);
}
);
width = 489;
},
{
color = 1;
layerId = "92936CB7-D294-4857-B41D-63B9425360A1";
shapes = (
{
closed = 1;
nodes = (
(371,-41,o),
(338,-19,o),
(334,7,q),
(330,33,o),
(311,81,o),
(287,127,o),
(262,172,o),
(252,195,q),
(220,270,o),
(167,420,o),
(135,493,q),
(127,511,o),
(103,550,o),
(80,590,o),
(63,630,o),
(63,650,q),
(63,676,o),
(93,698,o),
(112,698,q,{
name = av01;
}),
(127,698,o),
(147,683,o),
(158,664,o),
(163,647,o),
(165,644,q),
(194,597,o),
(240,496,o),
(282,393,o),
(322,287,o),
(344,235,q),
(356,207,o),
(387,147,o),
(416,89,o),
(435,33,o),
(435,9,q),
(435,-16,o),
(403,-41,o),
(386,-41,q,{
name = ab01;
})
);
}
);
width = 489;
}
);
unicode = 92;
}
{
glyphname = bracketright;
layers = (
{
color = 1;
layerId = master01;
shapes = (
{
closed = 1;
nodes = (
(254,603,o),
(253,556,o),
(253,509,cs),
(253,330,o),
(235,155,o),
(234,-22,c),
(218,-25,o),
(202,-26,o),
(183,-26,cs),
(146,-26,o),
(113,-21,o),
(86,-21,cs),
(55,-21,o),
(37,-46,o),
(37,-71,cs),
(37,-99,o),
(61,-121,o),
(85,-121,cs),
(120,-121,o),
(153,-126,o),
(192,-126,cs),
(247,-126,o),
(334,-125,o),
(334,-69,cs),
(334,140,o),
(353,338,o),
(353,537,cs),
(353,592,o),
(352,635,o),
(352,690,cs),
(352,726,o),
(330,751,o),
(265,751,cs),
(209,751,o),
(126,741,o),
(102,730,cs),
(79,719,o),
(72,698,o),
(72,682,cs),
(72,657,o),
(89,636,o),
(118,636,cs),
(161,636,o),
(212,648,o),
(251,651,c)
);
}
);
width = 440;
},
{
layerId = "8E39700C-2F6D-4A17-B4B3-161F49A69C4C";
shapes = (
{
closed = 1;
nodes = (
(222,649,o),
(150,636,o),
(118,636,q),
(96,636,o),
(72,663,o),
(72,682,q),
(72,694,o),
(85,722,o),
(102,730,q),
(111,734,o),
(148,742,o),
(195,748,o),
(244,751,o),
(265,751,q),
(314,751,o),
(352,717,o),
(352,690,q),
(352,649,o),
(353,578,o),
(353,537,q),
(353,388,o),
(334,88,o),
(334,-69,q),
(334,-90,o),
(305,-113,o),
(262,-124,o),
(213,-126,o),
(192,-126,q),
(163,-126,o),
(111,-121,o),
(85,-121,q),
(67,-121,o),
(37,-92,o),
(37,-71,q),
(37,-52,o),
(63,-21,o),
(86,-21,q),
(106,-21,o),
(155,-26,o),
(183,-26,q),
(197,-26,o),
(222,-24,o),
(234,-22,q),
(235,111,o),
(253,375,o),
(253,509,q),
(253,544,o),
(253,615,o),
(251,651,q)
);
}
);
width = 440;
},
{
color = 1;
layerId = "92936CB7-D294-4857-B41D-63B9425360A1";
shapes = (
{
closed = 1;
nodes = (
(163,-126,o),
(111,-121,o),
(85,-121,q),
(67,-121,o),
(37,-92,o),
(37,-71,q),
(37,-52,o),
(63,-21,o),
(86,-21,q),
(106,-21,o),
(155,-26,o),
(183,-26,q),
(197,-26,o),
(222,-24,o),
(234,-22,q),
(235,111,o),
(253,375,o),
(253,509,q),
(253,544,o),
(253,615,o),
(251,651,q),
(222,649,o),
(150,636,o),
(118,636,q),
(96,636,o),
(72,663,o),
(72,682,q),
(72,694,o),
(85,722,o),
(102,730,q),
(111,734,o),
(148,742,o),
(195,748,o),
(244,751,o),
(265,751,q),
(314,751,o),
(352,717,o),
(352,690,q),
(352,649,o),
(353,578,o),
(353,537,q),
(353,388,o),
(334,88,o),
(334,-69,q),
(334,-90,o),
(305,-113,o),
(262,-124,o),
(213,-126,o),
(192,-126,q)
);
}
);
width = 440;
}
);
unicode = 93;
}
{
glyphname = asciicircum;
layers = (
{
color = 1;
layerId = master01;
shapes = (
{
closed = 1;
nodes = (
(154,393,o),
(204,453,o),
(236,514,cs),
(241,523,o),
(245,532,o),
(250,543,c),
(257,528,o),
(262,513,o),
(269,498,cs),
(294,445,o),
(330,393,o),
(339,333,c),
(350,304,o),
(370,291,o),
(390,291,cs),
(414,291,o),
(437,310,o),
(437,343,cs),
(437,417,o),
(363,532,o),
(331,609,c),
(315,644,o),
(298,694,o),
(250,694,cs),
(195,694,o),
(169,602,o),
(145,554,cs),
(110,485,o),
(60,425,o),
(44,349,c),
(44,312,o),
(67,291,o),
(91,291,cs),
(110,291,o),
(128,302,o),
(141,325,c)
);
}
);
width = 486;
},
{
layerId = "8E39700C-2F6D-4A17-B4B3-161F49A69C4C";
shapes = (
{
closed = 1;
nodes = (
(131,308,o),
(105,291,o),
(91,291,q),
(73,291,o),
(44,321,o),
(44,349,q),
(50,377,o),
(73,430,o),
(102,479,o),
(132,528,o),
(145,554,q),
(154,572,o),
(174,620,o),
(198,664,o),
(229,694,o),
(250,694,q),
(268,694,o),
(293,678,o),
(312,652,o),
(325,622,o),
(331,609,q),
(343,580,o),
(379,511,o),
(413,439,o),
(437,371,o),
(437,343,q),
(437,318,o),
(408,291,o),
(390,291,q),
(375,291,o),
(347,311,o),
(339,333,q),
(332,378,o),
(288,458,o),
(269,498,q),
(264,509,o),
(255,532,o),
(250,543,q),
(246,535,o),
(240,521,o),
(236,514,q),
(224,491,o),
(196,445,o),
(169,399,o),
(146,351,o),
(141,325,q)
);
}
);
width = 486;
}
);
unicode = 94;
}
{
glyphname = underscore;
layers = (
{
hints = (
{
name = _cap.hor;
options = 10;
origin = (0,2);
scale = (1.02174,1);
type = Cap;
},
{
name = _cap.hor;
options = 10;
origin = (0,0);
scale = (1.02174,1);
type = Cap;
},
{
horizontal = 1;
origin = (0,3);
type = TTSnap;
},
{
horizontal = 1;
options = 4;
origin = (0,3);
target = (0,2);
type = TTStem;
}
);
layerId = master01;
shapes = (
{
closed = 1;
nodes = (
(442,-214,l),
(442,-120,l),
(0,-120,l),
(0,-214,l)
);
}
);
width = 442;
},
{
layerId = "8E39700C-2F6D-4A17-B4B3-161F49A69C4C";
shapes = (
{
closed = 1;
nodes = (
(-27,-222,o),
(-48,-193,o),
(-48,-177,q),
(-48,-161,o),
(-27,-133,o),
(-4,-127,q),
(105,-125,o),
(318,-109,o),
(427,-107,q),
(454,-110,o),
(481,-140,o),
(481,-157,q),
(481,-174,o),
(454,-205,o),
(427,-207,q),
(318,-209,o),
(105,-225,o),
(-4,-227,q)
);
}
);
width = 442;
}
);
unicode = 95;
}
{
glyphname = grave;
layers = (
{
color = 6;
layerId = master01;
shapes = (
{
pos = (-97,-35);
ref = gravecomb;
}
);
width = 309;
},
{
layerId = "8E39700C-2F6D-4A17-B4B3-161F49A69C4C";
shapes = (
{
closed = 1;
nodes = (
(65,665,o),
(65,674,q),
(65,697,o),
(93,723,o),
(111,723,q),
(123,723,o),
(147,710,o),
(157,696,q),
(161,689,o),
(168,685,q),
(174,679,o),
(200,660,o),
(226,634,o),
(245,606,o),
(245,591,q),
(245,567,o),
(217,539,o),
(198,539,q),
(186,539,o),
(162,550,o),
(153,563,q),
(145,575,o),
(121,594,o),
(97,614,o),
(76,636,o),
(70,650,q)
);
}
);
width = 309;
}
);
unicode = 96;
}
{
glyphname = a;
kernLeft = a;
kernRight = a;
layers = (
{
anchors = (
{
name = bottom;
pos = (245,0);
},
{
name = bottomAttach;
pos = (547,30);
},
{
name = top;
pos = (330,500);
}
);
layerId = master01;
shapes = (
{
closed = 1;
nodes = (
(258,-6,o),
(331,53,o),
(377,115,cs),
(419,172,o),
(453,255,o),
(484,370,c),
(465,373,l),
(416,217,o),
(410,128,o),
(428,67,cs),
(447,3,o),
(496,-20,o),
(546,-20,cs),
(593,-20,o),
(619,29,o),
(557,65,cs),
(536,77,o),
(512,95,o),
(512,169,cs),
(512,215,o),
(518,284,o),
(531,388,cs),
(541,465,o),
(440,476,o),
(429,409,c),
(406,316,o),
(367,243,o),
(328,189,cs),
(276,117,o),
(221,92,o),
(189,92,cs),
(147,92,o),
(133,123,o),
(139,201,cs),
(151,353,o),
(249,421,o),
(327,421,cs),
(355,421,o),
(382,412,o),
(410,400,cs),
(462,378,o),
(504,428,o),
(450,470,cs),
(424,490,o),
(381,507,o),
(319,507,cs),
(184,507,o),
(60,399,o),
(36,232,cs),
(13,73,o),
(70,-6,o),
(168,-6,cs)
);
}
);
userData = {
com.typemytype.robofont.mark = (
0.619,
1,
0.6,
1
);
};
width = 617;
},
{
layerId = "8E39700C-2F6D-4A17-B4B3-161F49A69C4C";
shapes = (
{
closed = 1;
nodes = (
(377,521,o),
(406,516,o),
(428,503,o),
(442,481,o),
(442,464,q),
(442,443,o),
(418,410,o),
(395,410,q),
(381,410,o),
(371,417,q),
(366,418,o),
(348,419,o),
(339,419,q),
(295,419,o),
(220,386,o),
(164,322,o),
(133,229,o),
(133,170,q),
(133,152,o),
(136,112,o),
(138,94,q),
(142,93,o),
(149,93,q),
(169,93,o),
(210,106,o),
(249,127,o),
(285,154,o),
(300,167,q),
(317,182,o),
(355,236,o),
(390,299,o),
(418,364,o),
(424,390,q),
(426,400,o),
(430,420,o),
(435,428,q),
(448,453,o),
(479,453,q),
(504,453,o),
(530,420,o),
(530,400,q),
(530,369,o),
(524,311,o),
(518,254,o),
(512,196,o),
(512,166,q),
(512,141,o),
(518,95,o),
(526,89,q),
(535,82,o),
(552,80,o),
(558,78,q),
(578,71,o),
(596,42,o),
(596,28,q),
(596,10,o),
(568,-19,o),
(545,-19,q),
(519,-19,o),
(482,-9,o),
(465,5,q),
(437,28,o),
(415,92,o),
(413,146,q),
(386,110,o),
(319,53,o),
(247,13,o),
(173,-8,o),
(139,-8,q),
(81,-8,o),
(31,79,o),
(31,169,q),
(31,248,o),
(79,378,o),
(167,471,o),
(288,521,o),
(362,521,q)
);
}
);
width = 617;
},
{
anchors = (
{
name = bottom;
pos = (245,0);
},
{
name = bottomAttach;
pos = (547,30);
},
{
name = top;
pos = (330,500);
}
);
hints = (
{
horizontal = 1;
origin = (0,30);
type = TTSnap;
},
{
horizontal = 1;
options = 4;
origin = (0,6);
target = (1,13);
type = TTStem;
},
{
horizontal = 1;
options = 4;
origin = (0,12);
target = (1,7);
type = TTStem;
}
);
layerId = "92936CB7-D294-4857-B41D-63B9425360A1";
shapes = (
{
closed = 1;
nodes = (
(503,-20,o),
(441,24,o),
(413,114,o),
(422,193,q),
(379,100,o),
(244,-6,o),
(168,-6,qs),
(90,-6,o),
(20,119,o),
(36,232,qs),
(53,352,o),
(213,507,o),
(319,507,qs),
(402,507,o),
(450,470,qs),
(460,463,o),
(467,452,q),
(484,456,o),
(517,442,o),
(534,410,o),
(531,388,qs),
(512,236,o),
(512,169,qs),
(512,128,o),
(532,79,o),
(557,65,qs),
(578,53,o),
(596,24,o),
(589,-4,o),
(563,-20,o),
(546,-20,qs)
);
},
{
closed = 1;
nodes = (
(233,92,o),
(325,175,o),
(406,321,o),
(425,395,q),
(420,396,o),
(410,400,qs),
(361,421,o),
(327,421,qs),
(255,421,o),
(147,300,o),
(139,201,qs),
(134,142,o),
(158,92,o),
(189,92,qs)
);
}
);
userData = {
com.typemytype.robofont.mark = (
0.656,
1,
0.6,
1
);
};
width = 617;
}
);
unicode = 97;
}
{
glyphname = b;
kernLeft = b;
kernRight = b;
layers = (
{
anchors = (
{
name = bottom;
pos = (294,0);
},
{
name = top;
pos = (180,725);
}
);
hints = (
{
horizontal = 1;
options = 4;
origin = (0,29);
target = (0,20);
type = TTStem;
},
{
horizontal = 1;
origin = (0,29);
type = TTSnap;
},
{
horizontal = 1;
origin = (0,45);
type = TTSnap;
},
{
horizontal = 1;
options = 4;
origin = (0,35);
target = (0,14);
type = TTStem;
}
);
layerId = master01;
shapes = (
{
closed = 1;
nodes = (
(108,541,o),
(88,374,o),
(65,199,c),
(64,194,o),
(63,188,o),
(63,183,cs),
(63,151,o),
(90,139,o),
(113,139,cs),
(140,139,o),
(159,158,o),
(163,189,c),
(208,351,o),
(277,409,o),
(342,409,cs),
(408,409,o),
(440,344,o),
(438,264,cs),
(434,132,o),
(386,49,o),
(288,49,cs),
(219,49,o),
(179,84,o),
(151,158,cs),
(131,211,o),
(65,180,o),
(74,130,cs),
(92,28,o),
(175,-45,o),
(288,-45,cs),
(446,-45,o),
(546,89,o),
(546,271,cs),
(546,403,o),
(480,505,o),
(362,505,cs),
(288,505,o),
(171,474,o),
(113,218,c),
(137,219,l),
(194,427,o),
(207,524,o),
(221,712,cs),
(224,755,o),
(198,769,o),
(174,769,cs),
(154,769,o),
(126,761,o),
(123,720,cs)
);
}
);
userData = {
com.typemytype.robofont.mark = (
0.619,
1,
0.6,
1
);
};
width = 581;
},
{
layerId = "8E39700C-2F6D-4A17-B4B3-161F49A69C4C";
shapes = (
{
closed = 1;
nodes = (
(131,752,o),
(159,769,o),
(174,769,q),
(192,769,o),
(221,745,o),
(221,716,q),
(221,708,o),
(220,703,q),
(209,670,o),
(205,603,o),
(205,568,q),
(205,539,o),
(204,483,o),
(200,454,q),
(215,469,o),
(256,488,o),
(300,500,o),
(344,505,o),
(362,505,q),
(406,505,o),
(475,469,o),
(522,406,o),
(546,321,o),
(546,271,q),
(546,201,o),
(508,85,o),
(442,1,o),
(353,-45,o),
(303,-45,q),
(264,-45,o),
(187,-24,o),
(127,10,o),
(89,52,o),
(89,73,q),
(89,93,o),
(116,120,o),
(135,120,q),
(145,120,o),
(167,112,o),
(177,101,q),
(200,77,o),
(265,55,o),
(301,55,q),
(331,55,o),
(384,85,o),
(423,139,o),
(445,216,o),
(445,264,q),
(445,293,o),
(433,345,o),
(410,383,o),
(377,405,o),
(356,405,q),
(297,405,o),
(226,350,o),
(200,288,q),
(163,189,l),
(160,166,o),
(133,139,o),
(113,139,q),
(94,139,o),
(64,163,o),
(64,192,q),
(64,197,o),
(65,214,o),
(66,219,q),
(74,290,o),
(97,429,o),
(103,500,q),
(106,528,o),
(105,586,o),
(107,643,o),
(114,699,o),
(123,727,q)
);
}
);
width = 581;
}
);
unicode = 98;
}
{
glyphname = c;
kernLeft = c;
kernRight = c;
layers = (
{
anchors = (
{
name = bottom;
pos = (276,0);
},
{
name = bottomAttach;
pos = (464,112);
},
{
name = top;
pos = (300,500);
}
);
background = {
shapes = (
{
closed = 1;
nodes = (
(493,472,o),
(401,518,o),
(310,518,cs),
(162,518,o),
(58,405,o),
(49,254,cs),
(39,88,o),
(122,-14,o),
(268,-14,cs),
(344,-14,o),
(427,17,o),
(478,72,cs),
(521,118,o),
(482,187,o),
(425,140,cs),
(384,106,o),
(336,81,o),
(274,81,cs),
(188,81,o),
(144,144,o),
(156,254,cs),
(167,353,o),
(220,423,o),
(310,423,cs),
(336,423,o),
(358,419,o),
(379,414,c),
(387,369,o),
(408,351,o),
(439,351,cs),
(471,351,o),
(493,374,o),
(493,406,cs)
);
}
);
};
hints = (
{
horizontal = 1;
options = 4;
origin = (0,8);
target = (0,17);
type = TTStem;
},
{
horizontal = 1;
options = 4;
origin = (0,2);
target = (0,23);
type = TTStem;
}
);
layerId = master01;
shapes = (
{
closed = 1;
nodes = (
(493,472,o),
(401,518,o),
(310,518,cs),
(149,518,o),
(48,388,o),
(48,228,cs),
(48,77,o),
(130,-14,o),
(268,-14,cs),
(344,-14,o),
(427,17,o),
(478,72,cs),
(521,118,o),
(482,187,o),
(425,140,cs),
(384,106,o),
(336,81,o),
(274,81,cs),
(197,81,o),
(154,131,o),
(154,220,cs),
(154,321,o),
(201,423,o),
(310,423,cs),
(336,423,o),
(358,419,o),
(379,414,c),
(387,369,o),
(408,351,o),
(439,351,cs),
(471,351,o),
(493,374,o),
(493,406,cs)
);
}
);
width = 551;
},
{
layerId = "8E39700C-2F6D-4A17-B4B3-161F49A69C4C";
shapes = (
{
closed = 1;
nodes = (
(493,381,o),
(467,357,o),
(447,357,q),
(433,357,o),
(405,373,o),
(399,391,q),
(376,404,o),
(325,418,o),
(299,418,q),
(254,418,o),
(195,382,o),
(160,325,o),
(146,253,o),
(146,217,q),
(146,151,o),
(212,88,o),
(284,88,q),
(322,88,o),
(387,115,o),
(415,135,q),
(423,150,o),
(447,164,o),
(460,164,q),
(477,164,o),
(509,139,o),
(509,114,q),
(509,94,o),
(488,64,o),
(455,39,o),
(417,20,o),
(401,13,q),
(372,0,o),
(316,-14,o),
(281,-14,q),
(219,-14,o),
(130,21,o),
(73,84,o),
(47,174,o),
(47,228,q),
(47,280,o),
(71,384,o),
(129,466,o),
(228,518,o),
(302,518,q),
(339,518,o),
(408,502,o),
(461,472,o),
(493,428,o),
(493,400,q)
);
}
);
width = 551;
}
);
unicode = 99;
}
{
glyphname = d;
kernLeft = d;
kernRight = d;
layers = (
{
anchors = (
{
name = bottom;
pos = (278,0);
},
{
name = bottomAttach;
pos = (621,80);
},
{
name = top;
pos = (495,725);
}
);
layerId = master01;
shapes = (
{
closed = 1;
nodes = (
(403,453,o),
(344,493,o),
(261,493,cs),
(165,493,o),
(39,417,o),
(21,248,cs),
(5,96,o),
(82,5,o),
(185,5,cs),
(272,5,o),
(369,64,o),
(405,205,c),
(392,229,l),
(389,19,o),
(477,1,o),
(534,1,cs),
(578,1,o),
(615,15,o),
(646,42,cs),
(672,64,o),
(660,115,o),
(623,106,cs),
(587,97,o),
(570,94,o),
(546,94,cs),
(499,94,o),
(475,144,o),
(493,342,cs),
(496,368,o),
(510,473,o),
(514,505,c),
(532,573,o),
(544,653,o),
(543,717,cs),
(542,755,o),
(522,772,o),
(494,772,cs),
(471,772,o),
(451,756,o),
(444,731,cs),
(427,669,o),
(419,594,o),
(416,530,c),
(394,407,o),
(368,311,o),
(340,240,cs),
(302,148,o),
(259,100,o),
(193,100,cs),
(136,100,o),
(117,155,o),
(126,241,cs),
(137,348,o),
(194,399,o),
(272,399,cs),
(324,399,o),
(372,381,o),
(409,356,c),
(434,428,l)
);
}
);
userData = {
com.typemytype.robofont.mark = (
0.619,
1,
0.6,
1
);
};
width = 626;
},
{
layerId = "8E39700C-2F6D-4A17-B4B3-161F49A69C4C";
shapes = (
{
closed = 1;
nodes = (
(553,98,o),
(572,107,o),
(590,118,o),
(608,127,o),
(618,127,q),
(641,127,o),
(665,100,o),
(665,81,q),
(665,60,o),
(637,29,o),
(596,10,o),
(553,1,o),
(538,1,q),
(489,1,o),
(408,67,o),
(394,139,q),
(379,110,o),
(335,61,o),
(280,25,o),
(217,5,o),
(185,5,q),
(105,5,o),
(21,113,o),
(21,220,q),
(21,269,o),
(52,367,o),
(111,445,o),
(198,494,o),
(254,494,q),
(296,494,o),
(375,463,o),
(393,428,q),
(403,470,o),
(414,527,o),
(417,545,q),
(425,590,o),
(436,686,o),
(446,731,q),
(447,736,o),
(452,750,o),
(464,763,o),
(483,772,o),
(499,772,q),
(516,772,o),
(543,749,o),
(543,730,q),
(543,688,o),
(531,610,o),
(525,565,q),
(510,474,o),
(486,304,o),
(486,213,q),
(486,200,o),
(489,169,o),
(495,139,o),
(505,114,o),
(513,107,q),
(518,102,o),
(534,98,o),
(542,98,q)
);
},
{
closed = 1;
nodes = (
(346,277,o),
(366,340,o),
(374,367,q),
(361,359,o),
(348,359,q),
(337,359,o),
(315,370,o),
(305,382,q),
(296,388,o),
(266,391,o),
(255,391,q),
(218,391,o),
(166,361,o),
(133,312,o),
(118,248,o),
(118,215,q),
(118,193,o),
(125,153,o),
(141,122,o),
(167,104,o),
(187,104,q),
(220,104,o),
(269,134,o),
(304,180,o),
(329,235,o),
(339,260,q)
);
}
);
width = 626;
},
{
anchors = (
{
name = bottom;
pos = (278,0);
},
{
name = bottomAttach;
pos = (621,80);
},
{
name = top;
pos = (495,725);
}
);
hints = (
{
horizontal = 1;
options = 4;
origin = (0,5);
target = (1,12);
type = TTStem;
},
{
horizontal = 1;
options = 4;
origin = (0,42);
target = (0,33);
type = TTStem;
},
{
horizontal = 1;
options = 4;
origin = (0,13);
target = (1,6);
type = TTStem;
},
{
horizontal = 1;
origin = (0,21);
type = TTSnap;
}
);
layerId = "92936CB7-D294-4857-B41D-63B9425360A1";
shapes = (
{
closed = 1;
nodes = (
(468,1,o),
(401,84,o),
(394,169,q),
(364,92,o),
(253,5,o),
(185,5,qs),
(132,5,o),
(51,66,o),
(13,177,o),
(21,248,qs),
(29,320,o),
(96,430,o),
(204,493,o),
(261,493,qs),
(335,493,o),
(401,452,q),
(416,530,l),
(422,649,o),
(444,731,qs),
(449,750,o),
(477,772,o),
(494,772,qs),
(516,772,o),
(542,744,o),
(543,717,qs),
(544,671,o),
(528,559,o),
(514,505,q),
(510,477,o),
(495,360,o),
(493,342,qs),
(480,211,o),
(505,94,o),
(546,94,qs),
(563,94,o),
(594,99,o),
(623,106,qs),
(640,110,o),
(661,88,o),
(659,53,o),
(646,42,qs),
(599,1,o),
(534,1,qs)
);
},
{
closed = 1;
nodes = (
(240,100,o),
(310,167,o),
(340,240,qs),
(363,296,o),
(382,372,q),
(328,399,o),
(272,399,qs),
(210,399,o),
(134,317,o),
(126,241,qs),
(119,173,o),
(152,100,o),
(193,100,qs)
);
}
);
userData = {
com.typemytype.robofont.mark = (
0.656,
1,
0.6,
1
);
};
width = 626;
}
);
unicode = 100;
}
